<svg width="16" height="16" viewBox="0 0 16 16" fill="none" xmlns="http://www.w3.org/2000/svg">
<path d="M13.5306 6.53061L8.5306 11.5306C8.46092 11.6005 8.37813 11.656 8.28696 11.6939C8.1958 11.7317 8.09806 11.7512 7.99935 11.7512C7.90064 11.7512 7.8029 11.7317 7.71173 11.6939C7.62057 11.656 7.53778 11.6005 7.4681 11.5306L2.4681 6.53061C2.3272 6.38972 2.24805 6.19862 2.24805 5.99936C2.24805 5.80011 2.3272 5.60901 2.4681 5.46811C2.60899 5.32722 2.80009 5.24806 2.99935 5.24806C3.19861 5.24806 3.3897 5.32722 3.5306 5.46811L7.99997 9.93749L12.4693 5.46749C12.6102 5.32659 12.8013 5.24744 13.0006 5.24744C13.1999 5.24744 13.391 5.32659 13.5318 5.46749C13.6727 5.60838 13.7519 5.79948 13.7519 5.99874C13.7519 6.198 13.6727 6.38909 13.5318 6.52999L13.5306 6.53061Z" fill="#98959D"/>
</svg>
