<svg width="20" height="20" viewBox="0 0 20 20" fill="none" xmlns="http://www.w3.org/2000/svg">
<path d="M12.1875 5.31252C11.7019 5.31256 11.2179 5.36893 10.7453 5.48048C10.6047 5.27509 10.448 5.08125 10.2765 4.9008L10.8679 4.05548C11.0106 3.85181 11.0665 3.5998 11.0234 3.3549C10.9802 3.11001 10.8415 2.89228 10.6379 2.74962C10.4342 2.60697 10.1822 2.55106 9.93729 2.59421C9.69239 2.63736 9.47466 2.77602 9.33201 2.9797L8.73982 3.82814C8.19054 3.58763 7.60013 3.45501 7.00076 3.43752L6.82107 2.42189C6.77356 2.18117 6.63358 1.96866 6.43116 1.82999C6.22874 1.69131 5.98002 1.63752 5.73838 1.68016C5.49675 1.7228 5.28147 1.85848 5.13874 2.05806C4.99601 2.25764 4.93722 2.50523 4.97498 2.74767L5.15466 3.7633C4.59756 3.98469 4.08809 4.3109 3.65388 4.72423L2.80544 4.1297C2.60177 3.98705 2.34976 3.93114 2.10486 3.97429C1.85997 4.01744 1.64224 4.1561 1.49958 4.35978C1.35693 4.56346 1.30102 4.81547 1.34417 5.06036C1.38732 5.30526 1.52598 5.52298 1.72966 5.66564L2.5781 6.25861C2.33694 6.8074 2.20429 7.39768 2.18748 7.99689L1.17185 8.17658C0.940788 8.21706 0.733296 8.34269 0.590335 8.52867C0.447373 8.71466 0.379331 8.94748 0.39964 9.18118C0.419949 9.41488 0.527133 9.63248 0.700034 9.79101C0.872935 9.94955 1.09899 10.0375 1.33357 10.0375C1.38855 10.0374 1.44343 10.0327 1.49763 10.0235L2.51326 9.84377C2.58995 10.0384 2.67973 10.2277 2.78201 10.4102C2.18889 11.029 1.79061 11.8084 1.63663 12.6516C1.48265 13.4948 1.57975 14.3646 1.91587 15.1531C2.25198 15.9416 2.81232 16.614 3.52728 17.0868C4.24224 17.5596 5.08033 17.8119 5.93748 17.8125H12.1875C13.8451 17.8125 15.4348 17.154 16.6069 15.9819C17.779 14.8098 18.4375 13.2201 18.4375 11.5625C18.4375 9.90491 17.779 8.3152 16.6069 7.1431C15.4348 5.971 13.8451 5.31252 12.1875 5.31252ZM6.87498 5.31252C7.26337 5.31283 7.6475 5.39358 8.00314 5.54969C8.35879 5.70579 8.67824 5.93387 8.94138 6.21955C7.82926 6.89405 6.95406 7.89729 6.43669 9.09064C6.27095 9.07184 6.10428 9.06245 5.93748 9.06252C5.39403 9.06246 4.85536 9.16394 4.34919 9.36173C4.13927 8.93297 4.04194 8.45782 4.06638 7.98104C4.09082 7.50427 4.23622 7.04156 4.48888 6.6365C4.74154 6.23145 5.09316 5.89737 5.5106 5.66574C5.92804 5.43411 6.39758 5.31255 6.87498 5.31252ZM12.1875 15.9375H5.93748C5.27443 15.9375 4.63855 15.6741 4.16971 15.2053C3.70087 14.7364 3.43748 14.1006 3.43748 13.4375C3.43748 12.7745 3.70087 12.1386 4.16971 11.6697C4.63855 11.2009 5.27443 10.9375 5.93748 10.9375H5.95935C5.95076 11.0235 5.94373 11.1094 5.93904 11.1953C5.92453 11.444 6.0094 11.6882 6.17496 11.8743C6.34051 12.0603 6.57321 12.173 6.82185 12.1875C7.07049 12.202 7.31471 12.1172 7.50078 11.9516C7.68685 11.786 7.79953 11.5533 7.81404 11.3047C7.83057 11.0144 7.87611 10.7265 7.94998 10.4453L7.96169 10.4024C8.17709 9.61485 8.60832 8.90323 9.20671 8.34781C9.8051 7.79239 10.5468 7.41529 11.3482 7.25906C12.1495 7.10284 12.9786 7.17372 13.7418 7.46371C14.505 7.75369 15.1719 8.25122 15.6674 8.90016C16.1628 9.54909 16.467 10.3236 16.5456 11.1362C16.6242 11.9489 16.474 12.7673 16.1121 13.4992C15.7502 14.231 15.191 14.8471 14.4975 15.278C13.804 15.7088 13.0039 15.9373 12.1875 15.9375Z" fill="#846F2E"/>
</svg>
