<svg width="99" height="32" viewBox="0 0 99 32" fill="none" xmlns="http://www.w3.org/2000/svg">
<g clip-path="url(#clip0_1164_528)">
<g clip-path="url(#clip1_1164_528)">
<path d="M91.6953 12.7945C90.4758 13.3221 89.9165 14.7244 90.446 15.9266C90.9756 17.1288 92.3935 17.6757 93.6129 17.1481C94.8324 16.6205 95.3918 15.2182 94.8622 14.016C94.3327 12.8138 92.9148 12.2669 91.6953 12.7945Z" stroke="#B8952E" stroke-width="1.5948" stroke-linecap="round" stroke-linejoin="round"/>
<path d="M90.4161 14.1081L86.3202 12.5283" stroke="#B8952E" stroke-width="1.5948" stroke-linecap="round" stroke-linejoin="round"/>
<path d="M82.9889 20.8806L87.936 8.47749" stroke="#B8952E" stroke-width="1.5948" stroke-linecap="round" stroke-linejoin="round"/>
<path d="M87.86 4.08739C86.6405 4.61499 86.0811 6.01728 86.6107 7.21949C87.1402 8.42169 88.5581 8.96857 89.7776 8.44097C90.9971 7.91336 91.5564 6.51108 91.0269 5.30887C90.4973 4.10666 89.0795 3.55979 87.86 4.08739Z" stroke="#B8952E" stroke-width="1.5948" stroke-linecap="round" stroke-linejoin="round"/>
<path d="M83.3645 11.3883L77.8752 9.27105" stroke="#B8952E" stroke-width="1.5948" stroke-linecap="round" stroke-linejoin="round"/>
</g>
<path d="M15.68 25.3899H13.76V19.3299H7.72V25.3899H5.8V11.7899L7.72 11.6899V17.7899H13.76V11.7899H15.68V25.3899ZM21.1366 22.5899C21.1366 22.8299 21.1966 23.0699 21.3166 23.3099C21.4366 23.5366 21.6166 23.7299 21.8566 23.8899C22.0966 24.0366 22.3966 24.1099 22.7566 24.1099C23.2499 24.1099 23.7099 23.9899 24.1366 23.7499C24.5766 23.5099 24.9632 23.2032 25.2966 22.8299V20.8699H22.9366C22.3499 20.8699 21.9032 21.0432 21.5966 21.3899C21.2899 21.7366 21.1366 22.1366 21.1366 22.5899ZM20.5366 17.8099L19.9966 16.2899C20.2499 16.1166 20.5832 15.9699 20.9966 15.8499C21.4099 15.7166 21.8299 15.6166 22.2566 15.5499C22.6832 15.4699 23.0299 15.4299 23.2966 15.4299C24.0432 15.4299 24.7099 15.5832 25.2966 15.8899C25.8966 16.1832 26.3632 16.5899 26.6966 17.1099C27.0432 17.6166 27.2166 18.1832 27.2166 18.8099V25.3899H25.8766L25.6366 24.4699C25.3032 24.7632 24.8766 25.0299 24.3566 25.2699C23.8366 25.5099 23.3166 25.6299 22.7966 25.6299C21.6499 25.6299 20.7966 25.3432 20.2366 24.7699C19.6899 24.1966 19.4166 23.4699 19.4166 22.5899C19.4166 21.6166 19.7432 20.8766 20.3966 20.3699C21.0632 19.8499 21.9232 19.5899 22.9766 19.5899H25.2766V19.4899C25.2766 18.8232 25.1432 18.2699 24.8766 17.8299C24.6099 17.3766 24.0966 17.1499 23.3366 17.1499C22.7632 17.1499 22.2432 17.2232 21.7766 17.3699C21.3099 17.5032 20.8966 17.6499 20.5366 17.8099ZM32.4798 25.3899H30.5398V15.6899H32.4798V25.3899ZM31.4798 13.9499C31.1465 13.9499 30.8665 13.8366 30.6398 13.6099C30.4132 13.3832 30.2998 13.0966 30.2998 12.7499C30.2998 12.4166 30.4132 12.1366 30.6398 11.9099C30.8665 11.6699 31.1465 11.5499 31.4798 11.5499C31.8132 11.5499 32.0998 11.6632 32.3398 11.8899C32.5798 12.1166 32.6998 12.4032 32.6998 12.7499C32.6998 13.0832 32.5798 13.3699 32.3398 13.6099C32.0998 13.8366 31.8132 13.9499 31.4798 13.9499ZM37.7958 25.3899H35.8758V15.6899H36.9558L37.5758 17.2699C37.8291 17.0566 38.1424 16.8299 38.5158 16.5899C38.8891 16.3366 39.2758 16.1232 39.6758 15.9499C40.0891 15.7766 40.4691 15.6899 40.8158 15.6899L41.2358 17.2299C40.8891 17.2299 40.5024 17.3166 40.0758 17.4899C39.6624 17.6499 39.2558 17.8632 38.8558 18.1299C38.4691 18.3832 38.1158 18.6632 37.7958 18.9699V25.3899ZM49.0536 25.3899H44.2336V11.7899H49.1336C50.5469 11.7899 51.6936 12.0832 52.5736 12.6699C53.4669 13.2566 54.1269 14.0566 54.5536 15.0699C54.9803 16.0832 55.1936 17.2299 55.1936 18.5099C55.1936 19.8299 54.9536 21.0099 54.4736 22.0499C54.0069 23.0899 53.3203 23.9099 52.4136 24.5099C51.5069 25.0966 50.3869 25.3899 49.0536 25.3899ZM49.2136 13.4299H46.1536V23.7899H49.0536C49.8936 23.7899 50.6269 23.5899 51.2536 23.1899C51.8803 22.7899 52.3669 22.2032 52.7136 21.4299C53.0736 20.6432 53.2536 19.6766 53.2536 18.5299C53.2536 17.5166 53.1069 16.6299 52.8136 15.8699C52.5336 15.1099 52.0936 14.5166 51.4936 14.0899C50.9069 13.6499 50.1469 13.4299 49.2136 13.4299ZM59.6483 22.5899C59.6483 22.8299 59.7083 23.0699 59.8283 23.3099C59.9483 23.5366 60.1283 23.7299 60.3683 23.8899C60.6083 24.0366 60.9083 24.1099 61.2683 24.1099C61.7616 24.1099 62.2216 23.9899 62.6483 23.7499C63.0883 23.5099 63.4749 23.2032 63.8083 22.8299V20.8699H61.4483C60.8616 20.8699 60.4149 21.0432 60.1083 21.3899C59.8016 21.7366 59.6483 22.1366 59.6483 22.5899ZM59.0483 17.8099L58.5083 16.2899C58.7616 16.1166 59.0949 15.9699 59.5083 15.8499C59.9216 15.7166 60.3416 15.6166 60.7683 15.5499C61.1949 15.4699 61.5416 15.4299 61.8083 15.4299C62.5549 15.4299 63.2216 15.5832 63.8083 15.8899C64.4083 16.1832 64.8749 16.5899 65.2083 17.1099C65.5549 17.6166 65.7283 18.1832 65.7283 18.8099V25.3899H64.3883L64.1483 24.4699C63.8149 24.7632 63.3883 25.0299 62.8683 25.2699C62.3483 25.5099 61.8283 25.6299 61.3083 25.6299C60.1616 25.6299 59.3083 25.3432 58.7483 24.7699C58.2016 24.1966 57.9283 23.4699 57.9283 22.5899C57.9283 21.6166 58.2549 20.8766 58.9083 20.3699C59.5749 19.8499 60.4349 19.5899 61.4883 19.5899H63.7883V19.4899C63.7883 18.8232 63.6549 18.2699 63.3883 17.8299C63.1216 17.3766 62.6083 17.1499 61.8483 17.1499C61.2749 17.1499 60.7549 17.2232 60.2883 17.3699C59.8216 17.5032 59.4083 17.6499 59.0483 17.8099ZM71.0316 26.6099L71.5916 25.1299L68.0516 16.0099L69.8716 15.3299L72.5716 22.6499L75.1316 15.6899H77.1116L72.8116 27.1499C72.6516 27.5899 72.3982 27.9899 72.0516 28.3499C71.7182 28.7099 71.3249 29.0099 70.8716 29.2499C70.4316 29.5032 69.9582 29.6899 69.4516 29.8099L68.8116 28.3299C69.1316 28.1832 69.4382 28.0366 69.7316 27.8899C70.0249 27.7432 70.2849 27.5632 70.5116 27.3499C70.7516 27.1499 70.9249 26.9032 71.0316 26.6099Z" fill="#B8952E"/>
</g>
<defs>
<clipPath id="clip0_1164_528">
<rect width="99" height="32" fill="white"/>
</clipPath>
<clipPath id="clip1_1164_528">
<rect width="19.2471" height="19.0288" fill="white" transform="matrix(-0.917788 0.397071 -0.403106 -0.915153 98.988 17.4143)"/>
</clipPath>
</defs>
</svg>
