<svg width="20" height="20" viewBox="0 0 20 20" fill="none" xmlns="http://www.w3.org/2000/svg">
<path d="M18.75 11.5625H15.9289C15.9344 11.4586 15.9375 11.3547 15.9375 11.25C15.9375 9.67528 15.3119 8.16505 14.1984 7.05156C13.0849 5.93806 11.5747 5.3125 10 5.3125C8.42528 5.3125 6.91505 5.93806 5.80155 7.05156C4.68806 8.16505 4.0625 9.67528 4.0625 11.25C4.0625 11.3547 4.0625 11.4586 4.07109 11.5625H1.25C1.00136 11.5625 0.762903 11.6613 0.587087 11.8371C0.411272 12.0129 0.3125 12.2514 0.3125 12.5C0.3125 12.7486 0.411272 12.9871 0.587087 13.1629C0.762903 13.3387 1.00136 13.4375 1.25 13.4375H18.75C18.9986 13.4375 19.2371 13.3387 19.4129 13.1629C19.5887 12.9871 19.6875 12.7486 19.6875 12.5C19.6875 12.2514 19.5887 12.0129 19.4129 11.8371C19.2371 11.6613 18.9986 11.5625 18.75 11.5625ZM5.9375 11.25C5.9375 10.1726 6.36551 9.13925 7.12738 8.37738C7.88925 7.61551 8.92256 7.1875 10 7.1875C11.0774 7.1875 12.1108 7.61551 12.8726 8.37738C13.6345 9.13925 14.0625 10.1726 14.0625 11.25C14.0625 11.3547 14.057 11.4586 14.0492 11.5625H5.95078C5.94297 11.4586 5.9375 11.3547 5.9375 11.25ZM17.1875 15.625C17.1875 15.8736 17.0887 16.1121 16.9129 16.2879C16.7371 16.4637 16.4986 16.5625 16.25 16.5625H3.75C3.50136 16.5625 3.2629 16.4637 3.08709 16.2879C2.91127 16.1121 2.8125 15.8736 2.8125 15.625C2.8125 15.3764 2.91127 15.1379 3.08709 14.9621C3.2629 14.7863 3.50136 14.6875 3.75 14.6875H16.25C16.4986 14.6875 16.7371 14.7863 16.9129 14.9621C17.0887 15.1379 17.1875 15.3764 17.1875 15.625ZM0.985937 7.20391C1.06456 6.96818 1.23356 6.77332 1.45579 6.66213C1.67802 6.55094 1.9353 6.53253 2.17109 6.61094L3.10859 6.92344C3.22666 6.9613 3.33605 7.0222 3.43042 7.10262C3.52479 7.18303 3.60227 7.28137 3.65838 7.39194C3.71448 7.50251 3.7481 7.62311 3.75728 7.74676C3.76646 7.8704 3.75102 7.99465 3.71186 8.11229C3.6727 8.22993 3.61059 8.33863 3.52913 8.43211C3.44767 8.52558 3.34848 8.60197 3.2373 8.65685C3.12612 8.71172 3.00515 8.744 2.88141 8.75181C2.75767 8.75962 2.63361 8.74281 2.51641 8.70235L1.57891 8.38985C1.4621 8.35092 1.3541 8.28936 1.26108 8.20869C1.16806 8.12803 1.09185 8.02982 1.03678 7.9197C0.981718 7.80957 0.948887 7.68968 0.940163 7.56686C0.93144 7.44405 0.946994 7.32071 0.985937 7.20391ZM5.36094 3.42188C5.31834 3.30423 5.29973 3.17924 5.30619 3.05428C5.31266 2.92932 5.34407 2.80692 5.39858 2.69429C5.4531 2.58167 5.5296 2.48109 5.62359 2.3985C5.71759 2.3159 5.82716 2.25295 5.94586 2.21337C6.06456 2.17379 6.18998 2.15836 6.31473 2.16801C6.43949 2.17766 6.56105 2.21219 6.67225 2.26955C6.78345 2.32692 6.88204 2.40596 6.96221 2.50203C7.04239 2.5981 7.10252 2.70924 7.13906 2.82891L7.45156 3.76641C7.49416 3.88406 7.51277 4.00905 7.50631 4.13401C7.49984 4.25897 7.46843 4.38137 7.41392 4.49399C7.3594 4.60662 7.2829 4.7072 7.18891 4.78979C7.09491 4.87239 6.98534 4.93533 6.86664 4.97492C6.74794 5.0145 6.62252 5.02992 6.49777 5.02027C6.37301 5.01062 6.25145 4.9761 6.14025 4.91873C6.02905 4.86137 5.93046 4.78232 5.85029 4.68626C5.77011 4.59019 5.70998 4.47905 5.67344 4.35938L5.36094 3.42188ZM16.2984 8.10938C16.2595 7.99257 16.2439 7.86924 16.2527 7.74643C16.2614 7.62361 16.2942 7.50372 16.3493 7.39359C16.4043 7.28346 16.4806 7.18526 16.5736 7.10459C16.6666 7.02392 16.7746 6.96237 16.8914 6.92344L17.8289 6.61094C18.064 6.53557 18.3193 6.55595 18.5394 6.66765C18.7595 6.77935 18.9267 6.97336 19.0047 7.20756C19.0826 7.44177 19.0651 7.69727 18.9558 7.91862C18.8466 8.13996 18.6544 8.30929 18.4211 8.38985L17.4836 8.70235C17.2478 8.78076 16.9905 8.76235 16.7683 8.65116C16.5461 8.53997 16.3771 8.3451 16.2984 8.10938ZM12.5484 3.76641L12.8609 2.82891C12.8975 2.70924 12.9576 2.5981 13.0378 2.50203C13.118 2.40596 13.2166 2.32692 13.3278 2.26955C13.439 2.21219 13.5605 2.17766 13.6853 2.16801C13.81 2.15836 13.9354 2.17379 14.0541 2.21337C14.1728 2.25295 14.2824 2.3159 14.3764 2.3985C14.4704 2.48109 14.5469 2.58167 14.6014 2.69429C14.6559 2.80692 14.6873 2.92932 14.6938 3.05428C14.7003 3.17924 14.6817 3.30423 14.6391 3.42188L14.3266 4.35938C14.29 4.47905 14.2299 4.59019 14.1497 4.68626C14.0695 4.78232 13.9709 4.86137 13.8597 4.91873C13.7485 4.9761 13.627 5.01062 13.5022 5.02027C13.3775 5.02992 13.2521 5.0145 13.1334 4.97492C13.0147 4.93533 12.9051 4.87239 12.8111 4.78979C12.7171 4.7072 12.6406 4.60662 12.5861 4.49399C12.5316 4.38137 12.5002 4.25897 12.4937 4.13401C12.4872 4.00905 12.5058 3.88406 12.5484 3.76641Z" fill="#846F2E"/>
</svg>
