<svg width="20" height="20" viewBox="0 0 20 20" fill="none" xmlns="http://www.w3.org/2000/svg">
<path d="M19.0625 7.5C19.0625 7.74864 18.9637 7.9871 18.7879 8.16291C18.6121 8.33873 18.3736 8.4375 18.125 8.4375H17.1875V9.375C17.1875 9.62364 17.0887 9.8621 16.9129 10.0379C16.7371 10.2137 16.4986 10.3125 16.25 10.3125C16.0014 10.3125 15.7629 10.2137 15.5871 10.0379C15.4113 9.8621 15.3125 9.62364 15.3125 9.375V8.4375H14.375C14.1264 8.4375 13.8879 8.33873 13.7121 8.16291C13.5363 7.9871 13.4375 7.74864 13.4375 7.5C13.4375 7.25136 13.5363 7.0129 13.7121 6.83709C13.8879 6.66127 14.1264 6.5625 14.375 6.5625H15.3125V5.625C15.3125 5.37636 15.4113 5.1379 15.5871 4.96209C15.7629 4.78627 16.0014 4.6875 16.25 4.6875C16.4986 4.6875 16.7371 4.78627 16.9129 4.96209C17.0887 5.1379 17.1875 5.37636 17.1875 5.625V6.5625H18.125C18.3736 6.5625 18.6121 6.66127 18.7879 6.83709C18.9637 7.0129 19.0625 7.25136 19.0625 7.5ZM11.25 4.6875H11.5625V5C11.5625 5.24864 11.6613 5.4871 11.8371 5.66291C12.0129 5.83873 12.2514 5.9375 12.5 5.9375C12.7486 5.9375 12.9871 5.83873 13.1629 5.66291C13.3387 5.4871 13.4375 5.24864 13.4375 5V4.6875H13.75C13.9986 4.6875 14.2371 4.58873 14.4129 4.41291C14.5887 4.2371 14.6875 3.99864 14.6875 3.75C14.6875 3.50136 14.5887 3.2629 14.4129 3.08709C14.2371 2.91127 13.9986 2.8125 13.75 2.8125H13.4375V2.5C13.4375 2.25136 13.3387 2.0129 13.1629 1.83709C12.9871 1.66127 12.7486 1.5625 12.5 1.5625C12.2514 1.5625 12.0129 1.66127 11.8371 1.83709C11.6613 2.0129 11.5625 2.25136 11.5625 2.5V2.8125H11.25C11.0014 2.8125 10.7629 2.91127 10.5871 3.08709C10.4113 3.2629 10.3125 3.50136 10.3125 3.75C10.3125 3.99864 10.4113 4.2371 10.5871 4.41291C10.7629 4.58873 11.0014 4.6875 11.25 4.6875ZM17.1726 11.7484C17.2812 11.8745 17.3543 12.0272 17.3844 12.1909C17.4145 12.3545 17.4004 12.5232 17.3437 12.6797C16.8923 13.9118 16.1378 15.0103 15.1498 15.8739C14.1618 16.7375 12.9723 17.3383 11.6909 17.6209C10.4095 17.9036 9.07754 17.8589 7.81797 17.491C6.55839 17.1232 5.41177 16.4439 4.48391 15.5161C3.55605 14.5882 2.87684 13.4416 2.50897 12.182C2.1411 10.9225 2.09642 9.59051 2.37905 8.30911C2.66167 7.02772 3.26251 5.83815 4.1261 4.85019C4.98969 3.86223 6.08822 3.10771 7.3203 2.65625C7.47652 2.59917 7.6451 2.58468 7.80877 2.61426C7.97243 2.64384 8.12528 2.71643 8.25163 2.82457C8.37799 2.93271 8.4733 3.07253 8.52779 3.22966C8.58228 3.3868 8.59399 3.5556 8.56171 3.71875C8.47897 4.14081 8.43737 4.5699 8.43749 5C8.43935 6.73991 9.13136 8.40803 10.3617 9.63833C11.592 10.8686 13.2601 11.5606 15 11.5625C15.4293 11.5624 15.8576 11.5208 16.2789 11.4383C16.442 11.4061 16.6107 11.4179 16.7678 11.4724C16.9248 11.5269 17.0646 11.6221 17.1726 11.7484ZM14.8437 13.4375C12.6608 13.3949 10.579 12.5087 9.03515 10.9648C7.49125 9.42095 6.60509 7.33924 6.56249 5.15625C5.85988 5.65705 5.27486 6.30496 4.84815 7.05488C4.42144 7.8048 4.1633 8.63871 4.09171 9.49856C4.02011 10.3584 4.13677 11.2235 4.43357 12.0337C4.73037 12.8439 5.20017 13.5796 5.81028 14.1897C6.42039 14.7998 7.15613 15.2696 7.9663 15.5664C8.77647 15.8632 9.64159 15.9799 10.5014 15.9083C11.3613 15.8367 12.1952 15.5785 12.9451 15.1518C13.695 14.7251 14.3429 14.1401 14.8437 13.4375Z" fill="#846F2E"/>
</svg>
