<svg width="20" height="20" viewBox="0 0 20 20" fill="none" xmlns="http://www.w3.org/2000/svg">
<path d="M16.25 2.1875H3.75C3.3356 2.1875 2.93817 2.35212 2.64515 2.64515C2.35212 2.93817 2.1875 3.3356 2.1875 3.75V16.25C2.1875 16.6644 2.35212 17.0618 2.64515 17.3549C2.93817 17.6479 3.3356 17.8125 3.75 17.8125H16.25C16.6644 17.8125 17.0618 17.6479 17.3549 17.3549C17.6479 17.0618 17.8125 16.6644 17.8125 16.25V3.75C17.8125 3.3356 17.6479 2.93817 17.3549 2.64515C17.0618 2.35212 16.6644 2.1875 16.25 2.1875ZM15.9375 4.0625V15.3313C15.3037 13.9797 14.2262 12.886 12.8844 12.232C13.4492 11.6626 13.8328 10.9386 13.9869 10.1515C14.1409 9.36438 14.0585 8.54925 13.7501 7.80887C13.4416 7.06849 12.9209 6.43598 12.2535 5.99105C11.5862 5.54613 10.8021 5.30871 10 5.30871C9.19793 5.30871 8.41381 5.54613 7.74646 5.99105C7.07911 6.43598 6.55839 7.06849 6.24993 7.80887C5.94148 8.54925 5.85909 9.36438 6.01314 10.1515C6.1672 10.9386 6.55081 11.6626 7.11563 12.232C5.77376 12.886 4.69628 13.9797 4.0625 15.3313V4.0625H15.9375ZM7.8125 9.375C7.8125 8.94235 7.94079 8.51942 8.18116 8.15969C8.42153 7.79996 8.76317 7.51958 9.16288 7.35401C9.56259 7.18845 10.0024 7.14513 10.4268 7.22953C10.8511 7.31394 11.2409 7.52228 11.5468 7.8282C11.8527 8.13413 12.0611 8.52391 12.1455 8.94824C12.2299 9.37257 12.1866 9.81241 12.021 10.2121C11.8554 10.6118 11.575 10.9535 11.2153 11.1938C10.8556 11.4342 10.4326 11.5625 10 11.5625C9.41984 11.5625 8.86344 11.332 8.4532 10.9218C8.04297 10.5116 7.8125 9.95516 7.8125 9.375ZM10 13.4375C11.0722 13.4332 12.1128 13.8006 12.9445 14.4773C13.4391 14.8782 13.8476 15.3748 14.1453 15.9375H5.85469C6.15244 15.3748 6.56089 14.8782 7.05547 14.4773C7.88719 13.8006 8.92777 13.4332 10 13.4375Z" fill="#B8952E"/>
</svg>
