<svg width="203" height="32" viewBox="0 0 203 32" fill="none" xmlns="http://www.w3.org/2000/svg">
<path d="M31 7.35898L27.4779 7.29676L25.692 4.40939L24.8083 7.76347L21 8.41685L24.4599 9.87921L24.771 10.0099L24.0367 13.1835L26.1898 11.2731L29.687 13.1835L28.2744 9.3316L31 7.35898Z" fill="#E43A12"/>
<path d="M4.19731 5.03806L6.60556 13.3426L1 19.6955L9.67831 19.3633L13.8306 28L15.2008 18.8651V18.0346L23.2977 17.4948L17.1939 13.7162L19.1869 4L10.8824 10.1453L4.19731 5.03806Z" fill="#E43A12"/>
<path d="M8.06548 29.625L6.79762 27.4881L7.88094 25.3452L5.52976 26.0536L3.74404 24L4.14284 26.625L4.17857 26.8571L2 27.5952L3.94046 28.1905L4.08927 31L5.87499 28.7321L8.06548 29.625Z" fill="#E43A12"/>
<path d="M21.7911 22.3185L22.387 24.3733L21 25.9452L23.1473 25.863L24.1747 28L24.4213 25.6884V25.4829L26.4247 25.339L24.9144 24.4144L25.4075 22L23.3528 23.5308L21.7911 22.3185Z" fill="#E43A12"/>
<path d="M40.8984 10.2422C40.638 10.1641 40.4818 9.99479 40.4297 9.73438C40.3646 9.55208 40.3841 9.35677 40.4883 9.14844C40.5924 8.92708 40.7552 8.80339 40.9766 8.77734C42.2396 8.58203 43.5026 8.47786 44.7656 8.46484C46.0417 8.4388 47.3177 8.41927 48.5938 8.40625C48.8411 8.40625 49.0299 8.48438 49.1602 8.64062C49.2904 8.79688 49.3555 8.97266 49.3555 9.16797C49.3555 9.36328 49.2904 9.54557 49.1602 9.71484C49.0299 9.87109 48.8411 9.94922 48.5938 9.94922C47.5781 9.97526 46.556 9.98828 45.5273 9.98828C44.4987 9.98828 43.4701 10.0404 42.4414 10.1445C42.4674 10.6654 42.5 11.1862 42.5391 11.707C42.5781 12.2148 42.6172 12.7292 42.6562 13.25C43.6458 13.1979 44.6289 13.1328 45.6055 13.0547C46.5951 12.9766 47.5846 12.9635 48.5742 13.0156C48.8216 13.0286 49.0104 13.1198 49.1406 13.2891C49.2708 13.4583 49.3359 13.6406 49.3359 13.8359C49.3359 14.0312 49.2708 14.207 49.1406 14.3633C49.0104 14.5195 48.8216 14.5911 48.5742 14.5781C47.5977 14.526 46.6276 14.5391 45.6641 14.6172C44.7135 14.6953 43.75 14.7604 42.7734 14.8125C42.8516 15.75 42.9232 16.6875 42.9883 17.625C43.0664 18.5495 43.1185 19.4805 43.1445 20.418C43.6003 20.3138 44.0625 20.2161 44.5312 20.125C45 20.0208 45.4688 19.9427 45.9375 19.8906C46.4062 19.8255 46.875 19.793 47.3438 19.793C47.8125 19.793 48.2812 19.832 48.75 19.9102C48.9583 19.9492 49.1146 20.0729 49.2188 20.2812C49.3229 20.4896 49.349 20.6849 49.2969 20.8672C49.2318 21.0885 49.1081 21.2448 48.9258 21.3359C48.7435 21.4271 48.5417 21.4531 48.3203 21.4141C47.9036 21.3359 47.4805 21.3099 47.0508 21.3359C46.6211 21.362 46.1979 21.4076 45.7812 21.4727C45.2995 21.5508 44.8177 21.6419 44.3359 21.7461C43.8672 21.8503 43.3984 21.9609 42.9297 22.0781C42.7083 22.1302 42.5 22.0911 42.3047 21.9609C42.1224 21.9349 41.9596 21.8633 41.8164 21.7461C41.6732 21.6289 41.6016 21.4531 41.6016 21.2188C41.5755 20.112 41.5234 19.0182 41.4453 17.9375C41.3802 16.8568 41.3021 15.7695 41.2109 14.6758C41.0677 14.5326 40.9831 14.3568 40.957 14.1484C40.944 13.9271 41.0026 13.7383 41.1328 13.582C41.0286 12.4753 40.9505 11.362 40.8984 10.2422ZM51.7773 17.6641C51.4388 17.4167 51.1979 17.1107 51.0547 16.7461C50.9115 16.3685 50.9049 15.9714 51.0352 15.5547C51.1654 15.1771 51.3672 14.8385 51.6406 14.5391C51.9141 14.2396 52.2266 13.9987 52.5781 13.8164C52.9688 13.6081 53.3854 13.4453 53.8281 13.3281C54.2708 13.2109 54.7201 13.1458 55.1758 13.1328C55.6315 13.1198 56.0807 13.1654 56.5234 13.2695C56.9792 13.3607 57.4089 13.5104 57.8125 13.7188C58.0339 13.8359 58.1576 13.9922 58.1836 14.1875C58.2096 14.3828 58.1706 14.5651 58.0664 14.7344C57.9753 14.9036 57.832 15.0273 57.6367 15.1055C57.4414 15.1836 57.2331 15.1641 57.0117 15.0469C56.6992 14.8776 56.3477 14.7669 55.957 14.7148C55.5664 14.6628 55.1693 14.6628 54.7656 14.7148C54.375 14.7539 54.0039 14.8516 53.6523 15.0078C53.3008 15.1641 53.0078 15.3659 52.7734 15.6133C52.7083 15.6784 52.6628 15.724 52.6367 15.75C52.6237 15.776 52.5977 15.8346 52.5586 15.9258L52.5195 16.1406C52.5586 16.2578 52.5911 16.3294 52.6172 16.3555C52.8776 16.5247 53.1445 16.6354 53.418 16.6875C53.7044 16.7266 53.9909 16.7526 54.2773 16.7656C54.681 16.7917 55.0911 16.8177 55.5078 16.8438C55.9375 16.8568 56.3477 16.9089 56.7383 17C57.1419 17.0911 57.513 17.2409 57.8516 17.4492C58.1901 17.6576 58.4766 17.9635 58.7109 18.3672C58.9714 18.8229 59.0885 19.2982 59.0625 19.793C59.0495 20.2747 58.8607 20.7109 58.4961 21.1016C58.1315 21.4922 57.7083 21.7656 57.2266 21.9219C56.7448 22.0651 56.2565 22.1693 55.7617 22.2344C55.319 22.2865 54.8568 22.2995 54.375 22.2734C53.9062 22.2474 53.4505 22.1693 53.0078 22.0391C52.5781 21.9219 52.1745 21.7396 51.7969 21.4922C51.4193 21.2318 51.1068 20.8932 50.8594 20.4766C50.7422 20.2682 50.7227 20.0729 50.8008 19.8906C50.8789 19.6953 50.9961 19.5521 51.1523 19.4609C51.3216 19.3568 51.5039 19.3177 51.6992 19.3438C51.9076 19.3698 52.0768 19.487 52.207 19.6953C52.3893 19.9948 52.6432 20.2227 52.9688 20.3789C53.2943 20.5352 53.6458 20.6458 54.0234 20.7109C54.4141 20.763 54.8047 20.776 55.1953 20.75C55.5859 20.7109 55.9375 20.6589 56.25 20.5938C56.4193 20.5547 56.5885 20.5026 56.7578 20.4375C56.9401 20.3594 57.0898 20.2682 57.207 20.1641C57.3372 20.0599 57.4284 19.9427 57.4805 19.8125C57.5326 19.6693 57.526 19.513 57.4609 19.3438C57.3307 19.0182 57.1094 18.7839 56.7969 18.6406C56.4974 18.4974 56.1784 18.4128 55.8398 18.3867C55.5013 18.3607 55.1562 18.3477 54.8047 18.3477C54.4531 18.3477 54.1016 18.3346 53.75 18.3086C53.3984 18.2695 53.0534 18.2044 52.7148 18.1133C52.3763 18.0221 52.0638 17.8724 51.7773 17.6641ZM66.4844 15.1836C66.7318 15.1836 66.9141 15.2617 67.0312 15.418C67.1615 15.5742 67.2266 15.75 67.2266 15.9453C67.2266 16.1406 67.1615 16.3229 67.0312 16.4922C66.9141 16.6484 66.7318 16.7266 66.4844 16.7266C66.1719 16.7396 65.8594 16.7396 65.5469 16.7266C65.2474 16.7005 64.9479 16.6745 64.6484 16.6484C64.6615 17.6771 64.6419 18.7057 64.5898 19.7344C64.5508 20.763 64.4466 21.7852 64.2773 22.8008C64.2513 23.0221 64.1341 23.1849 63.9258 23.2891C63.7174 23.3932 63.5156 23.4128 63.3203 23.3477C63.099 23.2826 62.9427 23.1589 62.8516 22.9766C62.7734 22.8073 62.7539 22.612 62.793 22.3906C62.9492 21.401 63.0339 20.4115 63.0469 19.4219C63.0729 18.4323 63.0729 17.4362 63.0469 16.4336C62.5521 16.3555 62.0508 16.2773 61.543 16.1992C61.0352 16.1081 60.5339 16.0299 60.0391 15.9648C59.8177 15.9388 59.6615 15.8216 59.5703 15.6133C59.4661 15.3919 59.4401 15.1901 59.4922 15.0078C59.5573 14.7865 59.681 14.6367 59.8633 14.5586C60.0456 14.4674 60.2409 14.4349 60.4492 14.4609C60.8789 14.526 61.3086 14.5977 61.7383 14.6758C62.168 14.7409 62.6042 14.806 63.0469 14.8711C63.0339 14.806 63.0273 14.7083 63.0273 14.5781C63.0273 13.4062 63.0208 12.2474 63.0078 11.1016C63.0078 9.95573 63.0664 8.79688 63.1836 7.625C63.2096 7.41667 63.2878 7.23438 63.418 7.07812C63.5612 6.92188 63.7435 6.84375 63.9648 6.84375C64.1602 6.84375 64.3424 6.92188 64.5117 7.07812C64.694 7.23438 64.7721 7.41667 64.7461 7.625C64.6159 8.875 64.5508 10.1185 64.5508 11.3555C64.5638 12.5794 64.5833 13.8229 64.6094 15.0859C64.9219 15.112 65.2344 15.138 65.5469 15.1641C65.8594 15.1771 66.1719 15.1836 66.4844 15.1836ZM68.5938 14.0508C68.6068 13.8034 68.6979 13.6211 68.8672 13.5039C69.0365 13.3737 69.2188 13.3086 69.4141 13.3086C69.6094 13.3086 69.7786 13.3737 69.9219 13.5039C70.0781 13.6211 70.1497 13.8034 70.1367 14.0508C70.1367 14.1289 70.1302 14.2135 70.1172 14.3047C70.1172 14.3828 70.1172 14.4609 70.1172 14.5391C70.5339 14.3307 70.9701 14.1549 71.4258 14.0117C71.8945 13.8555 72.3568 13.7578 72.8125 13.7188C73.2812 13.6797 73.7305 13.7188 74.1602 13.8359C74.6029 13.9401 75.0065 14.1484 75.3711 14.4609C75.5534 14.6302 75.6315 14.8125 75.6055 15.0078C75.5924 15.2031 75.5143 15.3724 75.3711 15.5156C75.2409 15.6458 75.0716 15.7305 74.8633 15.7695C74.6549 15.7956 74.4531 15.7305 74.2578 15.5742C74.1146 15.457 73.9518 15.3724 73.7695 15.3203C73.6003 15.2682 73.4115 15.2487 73.2031 15.2617C73.0078 15.2617 72.806 15.2812 72.5977 15.3203C72.4023 15.3594 72.2135 15.4049 72.0312 15.457C71.3411 15.6784 70.6966 15.9714 70.0977 16.3359C70.1237 16.974 70.1628 17.612 70.2148 18.25C70.2669 18.7839 70.3125 19.3372 70.3516 19.9102C70.3906 20.4701 70.5013 21.0039 70.6836 21.5117C70.7617 21.7461 70.7422 21.9414 70.625 22.0977C70.5208 22.2669 70.3711 22.3776 70.1758 22.4297C69.9935 22.4818 69.7982 22.4688 69.5898 22.3906C69.3945 22.3125 69.2578 22.1562 69.1797 21.9219C69.0755 21.6224 69.0039 21.3164 68.9648 21.0039C68.9258 20.6914 68.8867 20.3789 68.8477 20.0664C68.8216 19.7669 68.7891 19.4674 68.75 19.168C68.724 18.8555 68.6979 18.5495 68.6719 18.25C68.6068 17.5469 68.5612 16.8503 68.5352 16.1602C68.5221 15.457 68.5417 14.7539 68.5938 14.0508ZM77.0898 14.4219C77.3372 14.0833 77.6302 13.7839 77.9688 13.5234C78.3203 13.263 78.6914 13.0612 79.082 12.918C79.4727 12.7617 79.8763 12.6836 80.293 12.6836C80.7096 12.6706 81.1263 12.7487 81.543 12.918C81.9466 13.0742 82.3112 13.2891 82.6367 13.5625C82.9622 13.8229 83.2161 14.1615 83.3984 14.5781C83.5417 14.8906 83.6263 15.2292 83.6523 15.5938C83.6784 15.9583 83.5807 16.2904 83.3594 16.5898C83.1641 16.8633 82.9232 17.0716 82.6367 17.2148C82.3633 17.3581 82.0638 17.4622 81.7383 17.5273C81.4258 17.5924 81.1003 17.625 80.7617 17.625C80.4362 17.625 80.1237 17.6185 79.8242 17.6055C79.4857 17.5924 79.1471 17.5664 78.8086 17.5273C78.4831 17.4883 78.151 17.4492 77.8125 17.4102C77.9167 17.9961 78.125 18.5169 78.4375 18.9727C78.75 19.4284 79.1732 19.7734 79.707 20.0078C79.8503 20.0599 79.9609 20.099 80.0391 20.125C80.0781 20.138 80.1107 20.151 80.1367 20.1641C80.1758 20.1641 80.2148 20.1641 80.2539 20.1641C80.3581 20.1771 80.4427 20.1901 80.5078 20.2031C80.5859 20.2031 80.6576 20.1966 80.7227 20.1836C80.8138 20.1706 80.8724 20.1641 80.8984 20.1641C80.9375 20.151 80.9766 20.138 81.0156 20.125C81.1589 20.0859 81.2826 20.0404 81.3867 19.9883C81.5039 19.9362 81.6406 19.8516 81.7969 19.7344C81.875 19.6693 81.9792 19.5716 82.1094 19.4414C82.2396 19.3112 82.3503 19.194 82.4414 19.0898C82.5716 18.9076 82.7279 18.7839 82.9102 18.7188C83.1055 18.6536 83.3008 18.6797 83.4961 18.7969C83.6654 18.901 83.7826 19.0638 83.8477 19.2852C83.9258 19.4935 83.8997 19.6888 83.7695 19.8711C83.3919 20.3789 82.9427 20.8151 82.4219 21.1797C81.9141 21.5312 81.3281 21.7201 80.6641 21.7461C80.1302 21.7721 79.6159 21.681 79.1211 21.4727C78.6263 21.2513 78.1901 20.9583 77.8125 20.5938C77.3438 20.138 76.9727 19.6107 76.6992 19.0117C76.4258 18.4128 76.276 17.8008 76.25 17.1758C76.1328 17.0846 76.0417 16.974 75.9766 16.8438C75.9245 16.7005 75.9049 16.5573 75.918 16.4141C75.944 16.2708 75.9961 16.1406 76.0742 16.0234C76.1523 15.8932 76.2695 15.8086 76.4258 15.7695C76.569 15.2878 76.7904 14.8385 77.0898 14.4219ZM81.7773 14.8906C81.6341 14.7083 81.4128 14.5456 81.1133 14.4023C80.8659 14.2982 80.5729 14.2461 80.2344 14.2461C79.9089 14.2461 79.6289 14.3047 79.3945 14.4219C79.0951 14.5651 78.8281 14.7669 78.5938 15.0273C78.3594 15.2747 78.1706 15.5547 78.0273 15.8672C78.3398 15.9062 78.6523 15.9453 78.9648 15.9844C79.2773 16.0234 79.5898 16.0495 79.9023 16.0625C80.0716 16.0625 80.2409 16.0625 80.4102 16.0625C80.5794 16.0625 80.7487 16.056 80.918 16.043C80.9701 16.043 81.0156 16.043 81.0547 16.043C81.1068 16.0299 81.1589 16.0234 81.2109 16.0234C81.3281 15.9974 81.4128 15.9844 81.4648 15.9844C81.5299 15.9714 81.5951 15.9518 81.6602 15.9258C81.7122 15.9128 81.7773 15.8932 81.8555 15.8672C81.9206 15.8411 81.9596 15.8216 81.9727 15.8086C81.9857 15.7956 82.0052 15.7826 82.0312 15.7695L82.0898 15.5352C82.0638 15.4831 82.0443 15.4375 82.0312 15.3984C82.0312 15.3464 82.0182 15.3008 81.9922 15.2617C81.9792 15.2227 81.9466 15.1641 81.8945 15.0859C81.8555 15.0078 81.8164 14.9427 81.7773 14.8906ZM86.4844 6.66797C86.7188 6.66797 86.901 6.74609 87.0312 6.90234C87.1615 7.05859 87.2396 7.24089 87.2656 7.44922C87.3958 8.6862 87.4674 9.92318 87.4805 11.1602C87.4935 12.3971 87.474 13.6341 87.4219 14.8711C87.3828 16.1081 87.3177 17.3451 87.2266 18.582C87.1354 19.819 87.0443 21.0495 86.9531 22.2734C86.9271 22.4948 86.8424 22.6771 86.6992 22.8203C86.569 22.9766 86.3932 23.0547 86.1719 23.0547C85.9766 23.0547 85.7943 22.9766 85.625 22.8203C85.4557 22.6771 85.3776 22.4948 85.3906 22.2734C85.4818 21.0495 85.5729 19.819 85.6641 18.582C85.7682 17.3451 85.8398 16.1081 85.8789 14.8711C85.931 13.6341 85.9505 12.3971 85.9375 11.1602C85.9245 9.92318 85.8529 8.6862 85.7227 7.44922C85.6966 7.24089 85.7682 7.05859 85.9375 6.90234C86.1068 6.74609 86.2891 6.66797 86.4844 6.66797ZM90.8789 21.4727C90.4362 21.2773 90.0846 21.0104 89.8242 20.6719C89.5768 20.3203 89.401 19.9362 89.2969 19.5195C89.2057 19.1029 89.1797 18.6732 89.2188 18.2305C89.2578 17.7747 89.349 17.3385 89.4922 16.9219C89.6094 16.5964 89.7396 16.2578 89.8828 15.9062C90.0391 15.5547 90.2214 15.2292 90.4297 14.9297C90.638 14.6302 90.8854 14.3763 91.1719 14.168C91.4583 13.9466 91.7969 13.8034 92.1875 13.7383C92.5911 13.6732 92.9948 13.6536 93.3984 13.6797C93.8151 13.6927 94.2253 13.7318 94.6289 13.7969C94.8112 13.8229 94.987 13.8685 95.1562 13.9336C95.3255 13.9857 95.4948 14.0443 95.6641 14.1094C95.6771 13.9141 95.7617 13.7513 95.918 13.6211C96.0872 13.4909 96.263 13.4258 96.4453 13.4258C96.6667 13.4258 96.8424 13.5039 96.9727 13.6602C97.1159 13.8034 97.2005 13.9792 97.2266 14.1875C97.2917 14.7865 97.3177 15.3854 97.3047 15.9844C97.3047 16.5833 97.2852 17.1823 97.2461 17.7812C97.2201 18.3802 97.194 18.9792 97.168 19.5781C97.1549 20.1771 97.1615 20.776 97.1875 21.375C97.2005 21.6224 97.1224 21.8112 96.9531 21.9414C96.7969 22.0586 96.6211 22.1172 96.4258 22.1172C96.2305 22.1172 96.0482 22.0586 95.8789 21.9414C95.7227 21.8112 95.638 21.6224 95.625 21.375C94.8828 21.6875 94.0951 21.8698 93.2617 21.9219C92.4284 21.9609 91.6341 21.8112 90.8789 21.4727ZM91.0156 17.2344C90.9375 17.4688 90.8659 17.7357 90.8008 18.0352C90.7357 18.3346 90.7161 18.6211 90.7422 18.8945C90.7682 19.168 90.8529 19.4219 90.9961 19.6562C91.1393 19.8776 91.3737 20.0339 91.6992 20.125C92.3633 20.3333 93.0273 20.3919 93.6914 20.3008C94.3685 20.2096 95 19.9753 95.5859 19.5977C95.638 18.9596 95.6771 18.3411 95.7031 17.7422C95.7422 17.1432 95.7552 16.5378 95.7422 15.9258C95.5208 15.7826 95.293 15.6589 95.0586 15.5547C94.8372 15.4375 94.5898 15.3594 94.3164 15.3203C94.043 15.2812 93.75 15.2552 93.4375 15.2422C93.138 15.2161 92.8451 15.2161 92.5586 15.2422C92.5326 15.2422 92.4609 15.2617 92.3438 15.3008C92.2396 15.3268 92.181 15.3464 92.168 15.3594C92.0378 15.4245 91.9206 15.5286 91.8164 15.6719C91.6471 15.9062 91.4974 16.1602 91.3672 16.4336C91.237 16.694 91.1198 16.9609 91.0156 17.2344ZM99.9219 17.6641C99.5833 17.4167 99.3424 17.1107 99.1992 16.7461C99.056 16.3685 99.0495 15.9714 99.1797 15.5547C99.3099 15.1771 99.5117 14.8385 99.7852 14.5391C100.059 14.2396 100.371 13.9987 100.723 13.8164C101.113 13.6081 101.53 13.4453 101.973 13.3281C102.415 13.2109 102.865 13.1458 103.32 13.1328C103.776 13.1198 104.225 13.1654 104.668 13.2695C105.124 13.3607 105.553 13.5104 105.957 13.7188C106.178 13.8359 106.302 13.9922 106.328 14.1875C106.354 14.3828 106.315 14.5651 106.211 14.7344C106.12 14.9036 105.977 15.0273 105.781 15.1055C105.586 15.1836 105.378 15.1641 105.156 15.0469C104.844 14.8776 104.492 14.7669 104.102 14.7148C103.711 14.6628 103.314 14.6628 102.91 14.7148C102.52 14.7539 102.148 14.8516 101.797 15.0078C101.445 15.1641 101.152 15.3659 100.918 15.6133C100.853 15.6784 100.807 15.724 100.781 15.75C100.768 15.776 100.742 15.8346 100.703 15.9258L100.664 16.1406C100.703 16.2578 100.736 16.3294 100.762 16.3555C101.022 16.5247 101.289 16.6354 101.562 16.6875C101.849 16.7266 102.135 16.7526 102.422 16.7656C102.826 16.7917 103.236 16.8177 103.652 16.8438C104.082 16.8568 104.492 16.9089 104.883 17C105.286 17.0911 105.658 17.2409 105.996 17.4492C106.335 17.6576 106.621 17.9635 106.855 18.3672C107.116 18.8229 107.233 19.2982 107.207 19.793C107.194 20.2747 107.005 20.7109 106.641 21.1016C106.276 21.4922 105.853 21.7656 105.371 21.9219C104.889 22.0651 104.401 22.1693 103.906 22.2344C103.464 22.2865 103.001 22.2995 102.52 22.2734C102.051 22.2474 101.595 22.1693 101.152 22.0391C100.723 21.9219 100.319 21.7396 99.9414 21.4922C99.5638 21.2318 99.2513 20.8932 99.0039 20.4766C98.8867 20.2682 98.8672 20.0729 98.9453 19.8906C99.0234 19.6953 99.1406 19.5521 99.2969 19.4609C99.4661 19.3568 99.6484 19.3177 99.8438 19.3438C100.052 19.3698 100.221 19.487 100.352 19.6953C100.534 19.9948 100.788 20.2227 101.113 20.3789C101.439 20.5352 101.79 20.6458 102.168 20.7109C102.559 20.763 102.949 20.776 103.34 20.75C103.73 20.7109 104.082 20.6589 104.395 20.5938C104.564 20.5547 104.733 20.5026 104.902 20.4375C105.085 20.3594 105.234 20.2682 105.352 20.1641C105.482 20.0599 105.573 19.9427 105.625 19.8125C105.677 19.6693 105.671 19.513 105.605 19.3438C105.475 19.0182 105.254 18.7839 104.941 18.6406C104.642 18.4974 104.323 18.4128 103.984 18.3867C103.646 18.3607 103.301 18.3477 102.949 18.3477C102.598 18.3477 102.246 18.3346 101.895 18.3086C101.543 18.2695 101.198 18.2044 100.859 18.1133C100.521 18.0221 100.208 17.8724 99.9219 17.6641ZM116.973 14.8711C117.441 14.5846 117.943 14.3372 118.477 14.1289C119.023 13.9206 119.577 13.8229 120.137 13.8359C120.085 12.7292 120.039 11.6289 120 10.5352C119.974 9.44141 119.954 8.34115 119.941 7.23438C119.941 6.98698 120.02 6.80469 120.176 6.6875C120.332 6.55729 120.508 6.49219 120.703 6.49219C120.898 6.49219 121.074 6.55729 121.23 6.6875C121.4 6.80469 121.484 6.98698 121.484 7.23438C121.497 8.52344 121.53 9.81901 121.582 11.1211C121.634 12.4102 121.686 13.6992 121.738 14.9883C121.79 16.2773 121.829 17.5729 121.855 18.875C121.882 20.1641 121.875 21.4531 121.836 22.7422C121.823 22.9896 121.732 23.1784 121.562 23.3086C121.393 23.4388 121.211 23.5039 121.016 23.5039C120.82 23.5039 120.645 23.4388 120.488 23.3086C120.332 23.1914 120.26 23.0026 120.273 22.7422C120.273 22.651 120.273 22.5599 120.273 22.4688C120.273 22.3776 120.28 22.2865 120.293 22.1953C120.163 22.1823 120.033 22.1693 119.902 22.1562C119.785 22.1562 119.668 22.1562 119.551 22.1562C119.395 22.1562 119.238 22.1562 119.082 22.1562C118.926 22.1562 118.776 22.1497 118.633 22.1367C118.294 22.1107 117.956 22.0781 117.617 22.0391C117.279 22 116.947 21.9219 116.621 21.8047C116.296 21.6745 115.99 21.5182 115.703 21.3359C115.417 21.1406 115.182 20.8867 115 20.5742C114.792 20.2487 114.616 19.8971 114.473 19.5195C114.342 19.1419 114.29 18.7513 114.316 18.3477C114.342 17.944 114.434 17.5729 114.59 17.2344C114.746 16.8958 114.941 16.5833 115.176 16.2969C115.423 16.0104 115.697 15.75 115.996 15.5156C116.309 15.2812 116.634 15.0664 116.973 14.8711ZM120.312 20.6523C120.312 18.9076 120.273 17.1562 120.195 15.3984C119.766 15.3724 119.336 15.4505 118.906 15.6328C118.49 15.8021 118.105 15.9974 117.754 16.2188C117.559 16.3359 117.344 16.4727 117.109 16.6289C116.888 16.7721 116.68 16.9414 116.484 17.1367C116.302 17.319 116.152 17.5208 116.035 17.7422C115.918 17.9635 115.859 18.2044 115.859 18.4648C115.872 18.6992 115.924 18.9531 116.016 19.2266C116.107 19.487 116.23 19.7018 116.387 19.8711C116.543 20.0404 116.719 20.1706 116.914 20.2617C117.109 20.3398 117.318 20.4049 117.539 20.457C117.799 20.5091 118.047 20.5417 118.281 20.5547C118.529 20.5677 118.783 20.5807 119.043 20.5938C119.251 20.5938 119.46 20.6068 119.668 20.6328C119.876 20.6458 120.091 20.6523 120.312 20.6523ZM128.613 12.9961C129.03 12.944 129.466 12.931 129.922 12.957C130.378 12.9701 130.814 13.0482 131.23 13.1914C131.647 13.3216 132.025 13.5234 132.363 13.7969C132.702 14.0703 132.962 14.4284 133.145 14.8711C133.275 15.1836 133.34 15.5026 133.34 15.8281C133.353 16.1406 133.307 16.4466 133.203 16.7461C133.112 17.0326 132.969 17.3125 132.773 17.5859C132.591 17.8464 132.376 18.0872 132.129 18.3086C131.595 18.7904 131.009 19.2005 130.371 19.5391C129.733 19.8776 129.062 20.138 128.359 20.3203C128.06 20.3984 127.747 20.4701 127.422 20.5352C127.109 20.5872 126.79 20.6133 126.465 20.6133C126.139 20.6133 125.82 20.5807 125.508 20.5156C125.195 20.4375 124.902 20.3138 124.629 20.1445C124.434 20.0273 124.316 19.8711 124.277 19.6758C124.199 19.4544 124.115 19.2461 124.023 19.0508C123.932 18.8555 123.841 18.6536 123.75 18.4453C123.672 18.237 123.607 18.0286 123.555 17.8203C123.503 17.612 123.477 17.3971 123.477 17.1758C123.477 16.7331 123.568 16.3164 123.75 15.9258C123.945 15.5221 124.206 15.1706 124.531 14.8711C125.078 14.3503 125.71 13.9336 126.426 13.6211C127.142 13.3086 127.871 13.1003 128.613 12.9961ZM130.82 14.6758C130.469 14.5456 130.091 14.4805 129.688 14.4805C129.258 14.4674 128.828 14.513 128.398 14.6172C127.969 14.7083 127.559 14.8385 127.168 15.0078C126.803 15.151 126.426 15.3529 126.035 15.6133C125.658 15.8607 125.378 16.1667 125.195 16.5312C125.091 16.7266 125.039 16.9284 125.039 17.1367C125.052 17.332 125.085 17.5339 125.137 17.7422C125.202 17.9375 125.28 18.1393 125.371 18.3477C125.475 18.543 125.566 18.7383 125.645 18.9336C125.853 18.9857 125.983 19.0117 126.035 19.0117C126.061 19.0247 126.094 19.0312 126.133 19.0312C126.172 19.0312 126.204 19.0312 126.23 19.0312C126.491 19.0573 126.725 19.0508 126.934 19.0117C127.077 19.0117 127.259 18.9857 127.48 18.9336C127.819 18.8685 128.145 18.7839 128.457 18.6797C128.77 18.5625 129.056 18.4388 129.316 18.3086C129.616 18.1654 129.909 18.0091 130.195 17.8398C130.482 17.6706 130.723 17.4948 130.918 17.3125C131.048 17.1953 131.172 17.0716 131.289 16.9414C131.354 16.8763 131.4 16.8242 131.426 16.7852C131.491 16.694 131.543 16.6289 131.582 16.5898C131.621 16.5378 131.654 16.4792 131.68 16.4141C131.732 16.3229 131.758 16.2513 131.758 16.1992C131.771 16.1732 131.777 16.1406 131.777 16.1016C131.79 16.0625 131.803 16.0299 131.816 16.0039V15.7891C131.803 15.737 131.797 15.6979 131.797 15.6719C131.797 15.6458 131.79 15.6198 131.777 15.5938C131.738 15.5026 131.699 15.4375 131.66 15.3984C131.634 15.3464 131.602 15.2943 131.562 15.2422C131.576 15.2552 131.556 15.2357 131.504 15.1836C131.465 15.1315 131.439 15.099 131.426 15.0859L131.27 14.9297C131.204 14.8906 131.133 14.8451 131.055 14.793C130.977 14.7409 130.898 14.7018 130.82 14.6758ZM141.992 21.7461C141.992 21.9935 141.908 22.1758 141.738 22.293C141.582 22.4232 141.406 22.4883 141.211 22.4883C141.016 22.4883 140.84 22.4232 140.684 22.293C140.527 22.1758 140.449 21.9935 140.449 21.7461C140.449 20.7305 140.566 19.7539 140.801 18.8164C141.035 17.8789 141.328 16.9479 141.68 16.0234C141.589 15.8542 141.562 15.6654 141.602 15.457C141.68 15.1836 141.849 15.0143 142.109 14.9492C142.37 14.3242 142.637 13.7057 142.91 13.0938C143.197 12.4688 143.47 11.8438 143.73 11.2188C143.991 10.5938 144.232 9.96224 144.453 9.32422C144.674 8.6862 144.857 8.03516 145 7.37109C145.039 7.17578 145.117 7.00651 145.234 6.86328C145.365 6.72005 145.54 6.64844 145.762 6.64844C145.97 6.64844 146.159 6.72656 146.328 6.88281C146.497 7.02604 146.569 7.20833 146.543 7.42969C146.504 8.1849 146.517 8.88151 146.582 9.51953C146.647 10.1445 146.745 10.7695 146.875 11.3945C147.005 12.0065 147.148 12.625 147.305 13.25C147.474 13.862 147.63 14.474 147.773 15.0859C147.917 15.6719 148.047 16.2578 148.164 16.8438C148.281 17.4297 148.47 17.9961 148.73 18.543C148.861 18.8164 148.997 19.0833 149.141 19.3438C149.284 19.5911 149.44 19.8451 149.609 20.1055C149.766 20.3398 149.909 20.5872 150.039 20.8477C150.169 21.0951 150.26 21.3685 150.312 21.668C150.339 21.8763 150.306 22.0716 150.215 22.2539C150.137 22.4362 149.987 22.5599 149.766 22.625C149.583 22.6771 149.388 22.651 149.18 22.5469C148.971 22.4427 148.848 22.2865 148.809 22.0781C148.757 21.7786 148.652 21.5117 148.496 21.2773C148.353 21.043 148.203 20.8021 148.047 20.5547C147.865 20.2682 147.695 19.9818 147.539 19.6953C147.396 19.3958 147.266 19.0898 147.148 18.7773C147.018 18.4518 146.908 18.1263 146.816 17.8008C146.725 17.4622 146.641 17.1237 146.562 16.7852C145.977 16.7461 145.397 16.7201 144.824 16.707C144.264 16.681 143.698 16.6354 143.125 16.5703C142.812 17.4036 142.546 18.25 142.324 19.1094C142.116 19.9688 142.005 20.8477 141.992 21.7461ZM143.828 14.832C143.802 14.8711 143.783 14.9167 143.77 14.9688C143.77 15.0078 143.757 15.0469 143.73 15.0859C144.147 15.125 144.557 15.151 144.961 15.1641C145.365 15.1641 145.775 15.1771 146.191 15.2031C146.048 14.5781 145.892 13.9596 145.723 13.3477C145.566 12.7227 145.423 12.0911 145.293 11.4531C145.059 12.026 144.818 12.5924 144.57 13.1523C144.323 13.6992 144.076 14.2591 143.828 14.832ZM153.184 22.2539C153.001 22.319 152.799 22.2995 152.578 22.1953C152.37 22.0911 152.253 21.9349 152.227 21.7266C152.044 20.5807 151.927 19.4479 151.875 18.3281C151.836 17.1953 151.816 16.056 151.816 14.9102C151.816 14.7148 151.868 14.5586 151.973 14.4414C152.077 14.3242 152.201 14.2461 152.344 14.207C152.487 14.168 152.637 14.1615 152.793 14.1875C152.949 14.2135 153.079 14.2786 153.184 14.3828C153.483 14.1354 153.802 13.9206 154.141 13.7383C154.479 13.556 154.818 13.4388 155.156 13.3867C155.508 13.3216 155.853 13.3411 156.191 13.4453C156.53 13.5365 156.849 13.7383 157.148 14.0508C157.396 14.3112 157.611 14.5911 157.793 14.8906C157.975 15.1771 158.138 15.4831 158.281 15.8086C158.477 15.3138 158.75 14.8581 159.102 14.4414C159.453 14.0247 159.902 13.7448 160.449 13.6016C160.853 13.4974 161.172 13.5234 161.406 13.6797C161.641 13.8229 161.862 14.0508 162.07 14.3633C162.292 14.6888 162.493 15.0208 162.676 15.3594C162.871 15.6979 163.053 16.043 163.223 16.3945C163.392 16.7461 163.555 17.0977 163.711 17.4492C163.867 17.8008 164.023 18.1458 164.18 18.4844C164.362 18.862 164.518 19.2396 164.648 19.6172C164.792 19.9818 164.883 20.3724 164.922 20.7891C164.948 21.0104 164.87 21.1992 164.688 21.3555C164.518 21.4987 164.336 21.5703 164.141 21.5703C163.919 21.5703 163.737 21.4987 163.594 21.3555C163.464 21.1992 163.385 21.0104 163.359 20.7891C163.333 20.4766 163.249 20.1771 163.105 19.8906C162.975 19.5911 162.845 19.2982 162.715 19.0117C162.572 18.7122 162.428 18.4062 162.285 18.0938C162.155 17.7812 162.018 17.4753 161.875 17.1758C161.732 16.8763 161.576 16.5768 161.406 16.2773C161.25 15.9779 161.081 15.6849 160.898 15.3984C160.872 15.3594 160.846 15.3203 160.82 15.2812C160.794 15.2422 160.768 15.2031 160.742 15.1641C160.482 15.3073 160.293 15.444 160.176 15.5742C160.059 15.7044 159.948 15.8802 159.844 16.1016C159.753 16.2969 159.674 16.5052 159.609 16.7266C159.557 16.9349 159.512 17.1497 159.473 17.3711C159.395 17.7878 159.336 18.224 159.297 18.6797C159.271 19.0182 159.271 19.3438 159.297 19.6562C159.336 19.9688 159.323 20.2943 159.258 20.6328C159.219 20.8411 159.095 20.9974 158.887 21.1016C158.691 21.2057 158.496 21.2318 158.301 21.1797C158.118 21.1276 157.982 21.0365 157.891 20.9062C157.812 20.763 157.76 20.6003 157.734 20.418C157.682 20.0013 157.624 19.5716 157.559 19.1289C157.493 18.6862 157.409 18.25 157.305 17.8203C157.201 17.3776 157.064 16.9544 156.895 16.5508C156.738 16.1341 156.53 15.75 156.27 15.3984C156.087 15.1641 155.898 15.0078 155.703 14.9297C155.521 14.8516 155.293 14.8841 155.02 15.0273C154.72 15.1836 154.427 15.3724 154.141 15.5938C153.854 15.8151 153.6 16.0625 153.379 16.3359C153.392 17.1693 153.418 18.0026 153.457 18.8359C153.509 19.6562 153.6 20.4766 153.73 21.2969C153.757 21.5182 153.724 21.7201 153.633 21.9023C153.555 22.0716 153.405 22.1888 153.184 22.2539ZM167.52 21.4727C167.077 21.2773 166.725 21.0104 166.465 20.6719C166.217 20.3203 166.042 19.9362 165.938 19.5195C165.846 19.1029 165.82 18.6732 165.859 18.2305C165.898 17.7747 165.99 17.3385 166.133 16.9219C166.25 16.5964 166.38 16.2578 166.523 15.9062C166.68 15.5547 166.862 15.2292 167.07 14.9297C167.279 14.6302 167.526 14.3763 167.812 14.168C168.099 13.9466 168.438 13.8034 168.828 13.7383C169.232 13.6732 169.635 13.6536 170.039 13.6797C170.456 13.6927 170.866 13.7318 171.27 13.7969C171.452 13.8229 171.628 13.8685 171.797 13.9336C171.966 13.9857 172.135 14.0443 172.305 14.1094C172.318 13.9141 172.402 13.7513 172.559 13.6211C172.728 13.4909 172.904 13.4258 173.086 13.4258C173.307 13.4258 173.483 13.5039 173.613 13.6602C173.757 13.8034 173.841 13.9792 173.867 14.1875C173.932 14.7865 173.958 15.3854 173.945 15.9844C173.945 16.5833 173.926 17.1823 173.887 17.7812C173.861 18.3802 173.835 18.9792 173.809 19.5781C173.796 20.1771 173.802 20.776 173.828 21.375C173.841 21.6224 173.763 21.8112 173.594 21.9414C173.438 22.0586 173.262 22.1172 173.066 22.1172C172.871 22.1172 172.689 22.0586 172.52 21.9414C172.363 21.8112 172.279 21.6224 172.266 21.375C171.523 21.6875 170.736 21.8698 169.902 21.9219C169.069 21.9609 168.275 21.8112 167.52 21.4727ZM167.656 17.2344C167.578 17.4688 167.507 17.7357 167.441 18.0352C167.376 18.3346 167.357 18.6211 167.383 18.8945C167.409 19.168 167.493 19.4219 167.637 19.6562C167.78 19.8776 168.014 20.0339 168.34 20.125C169.004 20.3333 169.668 20.3919 170.332 20.3008C171.009 20.2096 171.641 19.9753 172.227 19.5977C172.279 18.9596 172.318 18.3411 172.344 17.7422C172.383 17.1432 172.396 16.5378 172.383 15.9258C172.161 15.7826 171.934 15.6589 171.699 15.5547C171.478 15.4375 171.23 15.3594 170.957 15.3203C170.684 15.2812 170.391 15.2552 170.078 15.2422C169.779 15.2161 169.486 15.2161 169.199 15.2422C169.173 15.2422 169.102 15.2617 168.984 15.3008C168.88 15.3268 168.822 15.3464 168.809 15.3594C168.678 15.4245 168.561 15.5286 168.457 15.6719C168.288 15.9062 168.138 16.1602 168.008 16.4336C167.878 16.694 167.76 16.9609 167.656 17.2344ZM175.957 20.125C175.957 19.5651 175.996 18.9987 176.074 18.4258C176.165 17.7357 176.257 17.0521 176.348 16.375C176.439 15.6849 176.478 14.9883 176.465 14.2852C176.465 14.0378 176.543 13.849 176.699 13.7188C176.855 13.5885 177.031 13.5234 177.227 13.5234C177.422 13.5234 177.604 13.5885 177.773 13.7188C177.943 13.849 178.027 14.0378 178.027 14.2852C178.535 14.2461 179.017 14.2266 179.473 14.2266C179.993 14.2396 180.436 14.3893 180.801 14.6758C181.165 14.9622 181.439 15.3464 181.621 15.8281C181.777 16.2708 181.868 16.7266 181.895 17.1953C181.921 17.6641 181.94 18.1328 181.953 18.6016C181.966 19.2656 181.986 19.9297 182.012 20.5938C182.038 21.2448 182.051 21.9023 182.051 22.5664C182.051 22.8268 181.966 23.0156 181.797 23.1328C181.641 23.263 181.465 23.3281 181.27 23.3281C181.087 23.3281 180.911 23.263 180.742 23.1328C180.586 23.0156 180.508 22.8268 180.508 22.5664C180.508 21.9414 180.495 21.3294 180.469 20.7305C180.456 20.1315 180.436 19.5195 180.41 18.8945C180.384 18.556 180.371 18.2109 180.371 17.8594C180.384 17.4948 180.358 17.1628 180.293 16.8633C180.254 16.681 180.215 16.5247 180.176 16.3945C180.137 16.2513 180.065 16.1146 179.961 15.9844C179.935 15.9323 179.876 15.8867 179.785 15.8477C179.707 15.8086 179.635 15.7891 179.57 15.7891C179.375 15.7891 179.193 15.8021 179.023 15.8281C178.854 15.8542 178.678 15.8932 178.496 15.9453C178.418 15.9714 178.34 15.9974 178.262 16.0234C178.184 16.0495 178.112 16.082 178.047 16.1211C177.917 16.5898 177.819 17.0391 177.754 17.4688C177.702 17.8854 177.65 18.3086 177.598 18.7383C177.559 19.0508 177.533 19.3698 177.52 19.6953C177.52 20.0078 177.507 20.3203 177.48 20.6328C177.467 20.9453 177.428 21.2578 177.363 21.5703C177.311 21.8828 177.214 22.1823 177.07 22.4688C176.953 22.6901 176.797 22.8138 176.602 22.8398C176.406 22.8789 176.224 22.8464 176.055 22.7422C175.898 22.651 175.775 22.5078 175.684 22.3125C175.605 22.1172 175.618 21.9089 175.723 21.6875C175.84 21.4531 175.905 21.1992 175.918 20.9258C175.931 20.6523 175.944 20.3854 175.957 20.125ZM184.238 21.6094C184.056 21.5443 183.9 21.4206 183.77 21.2383C183.652 21.043 183.633 20.8477 183.711 20.6523C183.932 20.0404 184.082 19.4219 184.16 18.7969C184.238 18.1719 184.29 17.5339 184.316 16.8828C184.329 16.6875 184.336 16.4987 184.336 16.3164C184.336 16.1211 184.342 15.9258 184.355 15.7305C184.316 15.5742 184.329 15.4245 184.395 15.2812C184.421 14.9036 184.447 14.526 184.473 14.1484C184.499 13.7578 184.538 13.3737 184.59 12.9961C184.655 12.4232 184.72 11.8568 184.785 11.2969C184.863 10.724 184.915 10.1445 184.941 9.55859C184.967 9.02474 184.993 8.4974 185.02 7.97656C185.059 7.44271 185.195 6.9349 185.43 6.45312C185.547 6.23177 185.703 6.10807 185.898 6.08203C186.094 6.04297 186.276 6.07552 186.445 6.17969C186.615 6.27083 186.738 6.41406 186.816 6.60938C186.908 6.80469 186.895 7.01302 186.777 7.23438C186.673 7.45573 186.602 7.68359 186.562 7.91797C186.523 8.15234 186.497 8.39323 186.484 8.64062C186.484 8.88802 186.484 9.13542 186.484 9.38281C186.484 9.63021 186.478 9.87109 186.465 10.1055C186.4 10.6914 186.335 11.2773 186.27 11.8633C186.204 12.4362 186.139 13.0156 186.074 13.6016C186.621 13.3281 187.227 13.1784 187.891 13.1523C188.411 13.1393 188.939 13.2305 189.473 13.4258C190.02 13.6081 190.462 13.9076 190.801 14.3242C190.996 14.5716 191.152 14.8451 191.27 15.1445C191.387 15.431 191.478 15.737 191.543 16.0625C191.621 16.375 191.673 16.694 191.699 17.0195C191.725 17.332 191.751 17.638 191.777 17.9375C191.816 18.5495 191.829 19.1615 191.816 19.7734C191.816 20.3724 191.803 20.9844 191.777 21.6094C191.777 21.8568 191.693 22.0391 191.523 22.1562C191.354 22.2865 191.172 22.3516 190.977 22.3516C190.781 22.3516 190.605 22.2865 190.449 22.1562C190.293 22.0391 190.221 21.8568 190.234 21.6094C190.247 21.0885 190.26 20.5677 190.273 20.0469C190.286 19.526 190.28 19.0052 190.254 18.4844C190.228 18.224 190.208 17.957 190.195 17.6836C190.182 17.4102 190.15 17.1367 190.098 16.8633C190.072 16.7331 190.046 16.6094 190.02 16.4922C190.007 16.362 189.98 16.2318 189.941 16.1016C189.928 15.9974 189.896 15.8867 189.844 15.7695C189.805 15.6523 189.779 15.5872 189.766 15.5742C189.74 15.5352 189.72 15.5026 189.707 15.4766C189.694 15.4375 189.674 15.3984 189.648 15.3594C189.531 15.2292 189.46 15.1576 189.434 15.1445C189.382 15.1055 189.336 15.0794 189.297 15.0664C189.258 15.0404 189.219 15.0143 189.18 14.9883C189.036 14.9102 188.874 14.8451 188.691 14.793C188.509 14.7409 188.333 14.7148 188.164 14.7148C187.721 14.6888 187.305 14.7669 186.914 14.9492C186.536 15.1315 186.198 15.4115 185.898 15.7891C185.872 16.6875 185.827 17.5794 185.762 18.4648C185.697 19.3372 185.508 20.2031 185.195 21.0625C185.13 21.2578 185.007 21.4141 184.824 21.5312C184.655 21.6484 184.46 21.6745 184.238 21.6094ZM195 21.4727C194.557 21.2773 194.206 21.0104 193.945 20.6719C193.698 20.3203 193.522 19.9362 193.418 19.5195C193.327 19.1029 193.301 18.6732 193.34 18.2305C193.379 17.7747 193.47 17.3385 193.613 16.9219C193.73 16.5964 193.861 16.2578 194.004 15.9062C194.16 15.5547 194.342 15.2292 194.551 14.9297C194.759 14.6302 195.007 14.3763 195.293 14.168C195.579 13.9466 195.918 13.8034 196.309 13.7383C196.712 13.6732 197.116 13.6536 197.52 13.6797C197.936 13.6927 198.346 13.7318 198.75 13.7969C198.932 13.8229 199.108 13.8685 199.277 13.9336C199.447 13.9857 199.616 14.0443 199.785 14.1094C199.798 13.9141 199.883 13.7513 200.039 13.6211C200.208 13.4909 200.384 13.4258 200.566 13.4258C200.788 13.4258 200.964 13.5039 201.094 13.6602C201.237 13.8034 201.322 13.9792 201.348 14.1875C201.413 14.7865 201.439 15.3854 201.426 15.9844C201.426 16.5833 201.406 17.1823 201.367 17.7812C201.341 18.3802 201.315 18.9792 201.289 19.5781C201.276 20.1771 201.283 20.776 201.309 21.375C201.322 21.6224 201.243 21.8112 201.074 21.9414C200.918 22.0586 200.742 22.1172 200.547 22.1172C200.352 22.1172 200.169 22.0586 200 21.9414C199.844 21.8112 199.759 21.6224 199.746 21.375C199.004 21.6875 198.216 21.8698 197.383 21.9219C196.549 21.9609 195.755 21.8112 195 21.4727ZM195.137 17.2344C195.059 17.4688 194.987 17.7357 194.922 18.0352C194.857 18.3346 194.837 18.6211 194.863 18.8945C194.889 19.168 194.974 19.4219 195.117 19.6562C195.26 19.8776 195.495 20.0339 195.82 20.125C196.484 20.3333 197.148 20.3919 197.812 20.3008C198.49 20.2096 199.121 19.9753 199.707 19.5977C199.759 18.9596 199.798 18.3411 199.824 17.7422C199.863 17.1432 199.876 16.5378 199.863 15.9258C199.642 15.7826 199.414 15.6589 199.18 15.5547C198.958 15.4375 198.711 15.3594 198.438 15.3203C198.164 15.2812 197.871 15.2552 197.559 15.2422C197.259 15.2161 196.966 15.2161 196.68 15.2422C196.654 15.2422 196.582 15.2617 196.465 15.3008C196.361 15.3268 196.302 15.3464 196.289 15.3594C196.159 15.4245 196.042 15.5286 195.938 15.6719C195.768 15.9062 195.618 16.1602 195.488 16.4336C195.358 16.694 195.241 16.9609 195.137 17.2344ZM199.492 12C199.219 12.1042 198.932 12.1367 198.633 12.0977C198.346 12.0456 198.086 11.9284 197.852 11.7461C197.669 11.6029 197.493 11.4466 197.324 11.2773C197.155 11.0951 196.953 10.9844 196.719 10.9453C196.497 10.9062 196.283 10.9453 196.074 11.0625C195.879 11.1797 195.71 11.3099 195.566 11.4531C195.384 11.6354 195.189 11.7135 194.98 11.6875C194.785 11.6615 194.616 11.5833 194.473 11.4531C194.342 11.3099 194.258 11.1406 194.219 10.9453C194.193 10.737 194.271 10.5417 194.453 10.3594C194.674 10.138 194.922 9.94922 195.195 9.79297C195.469 9.63672 195.755 9.52604 196.055 9.46094C196.367 9.38281 196.673 9.36979 196.973 9.42188C197.285 9.46094 197.585 9.5651 197.871 9.73438C198.118 9.90365 198.333 10.0859 198.516 10.2812C198.581 10.3464 198.639 10.4049 198.691 10.457C198.743 10.4961 198.802 10.5286 198.867 10.5547C198.945 10.5677 199.023 10.5482 199.102 10.4961C199.18 10.431 199.258 10.3594 199.336 10.2812C199.414 10.1901 199.486 10.099 199.551 10.0078C199.616 9.90365 199.668 9.82552 199.707 9.77344C199.85 9.60417 200.033 9.52604 200.254 9.53906C200.475 9.55208 200.658 9.63021 200.801 9.77344C200.97 9.92969 201.048 10.112 201.035 10.3203C201.022 10.5156 200.944 10.6979 200.801 10.8672C200.618 11.0885 200.43 11.3099 200.234 11.5312C200.039 11.7396 199.792 11.8958 199.492 12Z" fill="#292524"/>
</svg>
