<svg width="268" height="69" viewBox="0 0 268 69" fill="none" xmlns="http://www.w3.org/2000/svg">
<path d="M53.364 67.4631C54.9307 69.039 57.483 69.039 59.0498 67.4632L89.198 37.1407C90.7488 35.5809 90.7488 33.0641 89.198 31.5044L59.0498 1.18185C57.483 -0.393956 54.9307 -0.393949 53.364 1.18187L44.6896 9.90642C52.7571 15.053 58.1049 24.0653 58.1049 34.3229C58.1049 44.5803 52.7574 53.5924 44.69 58.739L53.364 67.4631Z" fill="#5EC5FD"/>
<path fill-rule="evenodd" clip-rule="evenodd" d="M44.6896 9.87187L23.2181 31.4677C21.6669 33.0279 21.6669 35.548 23.2181 37.1082L44.69 58.7045C40.1757 61.5846 34.8097 63.2542 29.0525 63.2542C13.0073 63.2542 -1.4026e-06 50.2857 0 34.2884C1.4026e-06 18.2909 13.0073 5.32251 29.0525 5.32251C34.8095 5.32251 40.1753 6.99201 44.6896 9.87187Z" fill="#F24D0D"/>
<g clip-path="url(#clip0_3135_845)">
<path d="M111.993 31.3225V14.5225H115.641L120.993 25.1785L126.273 14.5225H129.921V31.3225H126.849V19.7305L122.169 28.9225H119.745L115.065 19.7305V31.3225H111.993ZM137.213 31.6105C136.189 31.6105 135.349 31.4505 134.693 31.1305C134.037 30.7945 133.549 30.3545 133.229 29.8105C132.909 29.2665 132.749 28.6665 132.749 28.0105C132.749 26.9065 133.181 26.0105 134.045 25.3225C134.909 24.6345 136.205 24.2905 137.933 24.2905H140.957V24.0025C140.957 23.1865 140.725 22.5865 140.261 22.2025C139.797 21.8185 139.221 21.6265 138.533 21.6265C137.909 21.6265 137.365 21.7785 136.901 22.0825C136.437 22.3705 136.149 22.8025 136.037 23.3785H133.037C133.117 22.5145 133.405 21.7625 133.901 21.1225C134.413 20.4825 135.069 19.9945 135.869 19.6585C136.669 19.3065 137.565 19.1305 138.557 19.1305C140.253 19.1305 141.589 19.5545 142.565 20.4025C143.541 21.2505 144.029 22.4505 144.029 24.0025V31.3225H141.413L141.125 29.4025C140.773 30.0425 140.277 30.5705 139.637 30.9865C139.013 31.4025 138.205 31.6105 137.213 31.6105ZM137.909 29.2105C138.789 29.2105 139.469 28.9225 139.949 28.3465C140.445 27.7705 140.757 27.0585 140.885 26.2105H138.269C137.453 26.2105 136.869 26.3625 136.517 26.6665C136.165 26.9545 135.989 27.3145 135.989 27.7465C135.989 28.2105 136.165 28.5705 136.517 28.8265C136.869 29.0825 137.333 29.2105 137.909 29.2105ZM146.96 31.3225V19.4185H149.696L149.984 21.6505C150.416 20.8825 151 20.2745 151.736 19.8265C152.488 19.3625 153.368 19.1305 154.376 19.1305V22.3705H153.512C152.84 22.3705 152.24 22.4745 151.712 22.6825C151.184 22.8905 150.768 23.2505 150.464 23.7625C150.176 24.2745 150.032 24.9865 150.032 25.8985V31.3225H146.96ZM156.476 31.3225V14.0425H159.548V24.2425L163.772 19.4185H167.42L162.548 24.8425L168.212 31.3225H164.372L159.548 25.3465V31.3225H156.476ZM174.916 31.6105C173.716 31.6105 172.652 31.3545 171.724 30.8425C170.796 30.3305 170.068 29.6105 169.54 28.6825C169.012 27.7545 168.748 26.6825 168.748 25.4665C168.748 24.2345 169.004 23.1385 169.516 22.1785C170.044 21.2185 170.764 20.4745 171.676 19.9465C172.604 19.4025 173.692 19.1305 174.94 19.1305C176.108 19.1305 177.14 19.3865 178.036 19.8985C178.932 20.4105 179.628 21.1145 180.124 22.0105C180.636 22.8905 180.892 23.8745 180.892 24.9625C180.892 25.1385 180.884 25.3225 180.868 25.5145C180.868 25.7065 180.86 25.9065 180.844 26.1145H171.796C171.86 27.0425 172.18 27.7705 172.756 28.2985C173.348 28.8265 174.06 29.0905 174.892 29.0905C175.516 29.0905 176.036 28.9545 176.452 28.6825C176.884 28.3945 177.204 28.0265 177.412 27.5785H180.532C180.308 28.3305 179.932 29.0185 179.404 29.6425C178.892 30.2505 178.252 30.7305 177.484 31.0825C176.732 31.4345 175.876 31.6105 174.916 31.6105ZM174.94 21.6265C174.188 21.6265 173.524 21.8425 172.948 22.2745C172.372 22.6905 172.004 23.3305 171.844 24.1945H177.772C177.724 23.4105 177.436 22.7865 176.908 22.3225C176.38 21.8585 175.724 21.6265 174.94 21.6265ZM188.569 31.3225C187.321 31.3225 186.321 31.0185 185.569 30.4105C184.817 29.8025 184.441 28.7225 184.441 27.1705V21.9865H182.401V19.4185H184.441L184.801 16.2265H187.513V19.4185H190.729V21.9865H187.513V27.1945C187.513 27.7705 187.633 28.1705 187.873 28.3945C188.129 28.6025 188.561 28.7065 189.169 28.7065H190.657V31.3225H188.569ZM193.366 36.6025V19.4185H196.102L196.438 21.1225C196.822 20.5945 197.326 20.1305 197.95 19.7305C198.59 19.3305 199.414 19.1305 200.422 19.1305C201.542 19.1305 202.542 19.4025 203.422 19.9465C204.302 20.4905 204.998 21.2345 205.51 22.1785C206.022 23.1225 206.278 24.1945 206.278 25.3945C206.278 26.5945 206.022 27.6665 205.51 28.6105C204.998 29.5385 204.302 30.2745 203.422 30.8185C202.542 31.3465 201.542 31.6105 200.422 31.6105C199.526 31.6105 198.742 31.4425 198.07 31.1065C197.398 30.7705 196.854 30.2985 196.438 29.6905V36.6025H193.366ZM199.774 28.9225C200.75 28.9225 201.558 28.5945 202.198 27.9385C202.838 27.2825 203.158 26.4345 203.158 25.3945C203.158 24.3545 202.838 23.4985 202.198 22.8265C201.558 22.1545 200.75 21.8185 199.774 21.8185C198.782 21.8185 197.966 22.1545 197.326 22.8265C196.702 23.4825 196.39 24.3305 196.39 25.3705C196.39 26.4105 196.702 27.2665 197.326 27.9385C197.966 28.5945 198.782 28.9225 199.774 28.9225ZM209.023 31.3225V14.0425H212.095V31.3225H209.023ZM219.338 31.6105C218.314 31.6105 217.474 31.4505 216.818 31.1305C216.162 30.7945 215.674 30.3545 215.354 29.8105C215.034 29.2665 214.874 28.6665 214.874 28.0105C214.874 26.9065 215.306 26.0105 216.17 25.3225C217.034 24.6345 218.33 24.2905 220.058 24.2905H223.082V24.0025C223.082 23.1865 222.85 22.5865 222.386 22.2025C221.922 21.8185 221.346 21.6265 220.658 21.6265C220.034 21.6265 219.49 21.7785 219.026 22.0825C218.562 22.3705 218.274 22.8025 218.162 23.3785H215.162C215.242 22.5145 215.53 21.7625 216.026 21.1225C216.538 20.4825 217.194 19.9945 217.994 19.6585C218.794 19.3065 219.69 19.1305 220.682 19.1305C222.378 19.1305 223.714 19.5545 224.69 20.4025C225.666 21.2505 226.154 22.4505 226.154 24.0025V31.3225H223.538L223.25 29.4025C222.898 30.0425 222.402 30.5705 221.762 30.9865C221.138 31.4025 220.33 31.6105 219.338 31.6105ZM220.034 29.2105C220.914 29.2105 221.594 28.9225 222.074 28.3465C222.57 27.7705 222.882 27.0585 223.01 26.2105H220.394C219.578 26.2105 218.994 26.3625 218.642 26.6665C218.29 26.9545 218.114 27.3145 218.114 27.7465C218.114 28.2105 218.29 28.5705 218.642 28.8265C218.994 29.0825 219.458 29.2105 220.034 29.2105ZM234.917 31.6105C233.701 31.6105 232.629 31.3465 231.701 30.8185C230.773 30.2905 230.037 29.5545 229.493 28.6105C228.965 27.6665 228.701 26.5865 228.701 25.3705C228.701 24.1545 228.965 23.0745 229.493 22.1305C230.037 21.1865 230.773 20.4505 231.701 19.9225C232.629 19.3945 233.701 19.1305 234.917 19.1305C236.437 19.1305 237.717 19.5305 238.757 20.3305C239.797 21.1145 240.461 22.2025 240.749 23.5945H237.509C237.349 23.0185 237.029 22.5705 236.549 22.2505C236.085 21.9145 235.533 21.7465 234.893 21.7465C234.045 21.7465 233.325 22.0665 232.733 22.7065C232.141 23.3465 231.845 24.2345 231.845 25.3705C231.845 26.5065 232.141 27.3945 232.733 28.0345C233.325 28.6745 234.045 28.9945 234.893 28.9945C235.533 28.9945 236.085 28.8345 236.549 28.5145C237.029 28.1945 237.349 27.7385 237.509 27.1465H240.749C240.461 28.4905 239.797 29.5705 238.757 30.3865C237.717 31.2025 236.437 31.6105 234.917 31.6105ZM249.26 31.6105C248.06 31.6105 246.996 31.3545 246.068 30.8425C245.14 30.3305 244.412 29.6105 243.884 28.6825C243.356 27.7545 243.092 26.6825 243.092 25.4665C243.092 24.2345 243.348 23.1385 243.86 22.1785C244.388 21.2185 245.108 20.4745 246.02 19.9465C246.948 19.4025 248.036 19.1305 249.284 19.1305C250.452 19.1305 251.484 19.3865 252.38 19.8985C253.276 20.4105 253.972 21.1145 254.468 22.0105C254.98 22.8905 255.236 23.8745 255.236 24.9625C255.236 25.1385 255.228 25.3225 255.212 25.5145C255.212 25.7065 255.204 25.9065 255.188 26.1145H246.14C246.204 27.0425 246.524 27.7705 247.1 28.2985C247.692 28.8265 248.404 29.0905 249.236 29.0905C249.86 29.0905 250.38 28.9545 250.796 28.6825C251.228 28.3945 251.548 28.0265 251.756 27.5785H254.876C254.652 28.3305 254.276 29.0185 253.748 29.6425C253.236 30.2505 252.596 30.7305 251.828 31.0825C251.076 31.4345 250.22 31.6105 249.26 31.6105ZM249.284 21.6265C248.532 21.6265 247.868 21.8425 247.292 22.2745C246.716 22.6905 246.348 23.3305 246.188 24.1945H252.116C252.068 23.4105 251.78 22.7865 251.252 22.3225C250.724 21.8585 250.068 21.6265 249.284 21.6265Z" fill="#1D1D1D"/>
<path d="M119.049 48.4345C119.049 49.3625 118.729 50.1358 118.089 50.7545C117.46 51.3625 116.494 51.6665 115.193 51.6665H113.049V56.3225H111.593V45.1705H115.193C116.452 45.1705 117.406 45.4745 118.057 46.0825C118.718 46.6905 119.049 47.4745 119.049 48.4345ZM115.193 50.4665C116.004 50.4665 116.601 50.2905 116.985 49.9385C117.369 49.5865 117.561 49.0852 117.561 48.4345C117.561 47.0585 116.772 46.3705 115.193 46.3705H113.049V50.4665H115.193ZM120.315 51.9065C120.315 51.0105 120.496 50.2265 120.859 49.5545C121.221 48.8718 121.717 48.3438 122.347 47.9705C122.987 47.5972 123.696 47.4105 124.475 47.4105C125.243 47.4105 125.909 47.5758 126.475 47.9065C127.04 48.2372 127.461 48.6532 127.739 49.1545V47.5545H129.211V56.3225H127.739V54.6905C127.451 55.2025 127.019 55.6292 126.443 55.9705C125.877 56.3012 125.216 56.4665 124.459 56.4665C123.68 56.4665 122.976 56.2745 122.347 55.8905C121.717 55.5065 121.221 54.9678 120.859 54.2745C120.496 53.5812 120.315 52.7918 120.315 51.9065ZM127.739 51.9225C127.739 51.2612 127.605 50.6852 127.339 50.1945C127.072 49.7038 126.709 49.3305 126.251 49.0745C125.803 48.8078 125.307 48.6745 124.763 48.6745C124.219 48.6745 123.723 48.8025 123.275 49.0585C122.827 49.3145 122.469 49.6878 122.203 50.1785C121.936 50.6692 121.803 51.2452 121.803 51.9065C121.803 52.5785 121.936 53.1652 122.203 53.6665C122.469 54.1572 122.827 54.5358 123.275 54.8025C123.723 55.0585 124.219 55.1865 124.763 55.1865C125.307 55.1865 125.803 55.0585 126.251 54.8025C126.709 54.5358 127.072 54.1572 127.339 53.6665C127.605 53.1652 127.739 52.5838 127.739 51.9225ZM132.423 46.1305C132.146 46.1305 131.911 46.0345 131.719 45.8425C131.527 45.6505 131.431 45.4158 131.431 45.1385C131.431 44.8612 131.527 44.6265 131.719 44.4345C131.911 44.2425 132.146 44.1465 132.423 44.1465C132.69 44.1465 132.914 44.2425 133.095 44.4345C133.287 44.6265 133.383 44.8612 133.383 45.1385C133.383 45.4158 133.287 45.6505 133.095 45.8425C132.914 46.0345 132.69 46.1305 132.423 46.1305ZM133.127 47.5545V56.3225H131.671V47.5545H133.127ZM139.881 47.3945C140.947 47.3945 141.811 47.7198 142.473 48.3705C143.134 49.0105 143.465 49.9385 143.465 51.1545V56.3225H142.025V51.3625C142.025 50.4878 141.806 49.8212 141.369 49.3625C140.931 48.8932 140.334 48.6585 139.577 48.6585C138.809 48.6585 138.195 48.8985 137.737 49.3785C137.289 49.8585 137.065 50.5572 137.065 51.4745V56.3225H135.609V47.5545H137.065V48.8025C137.353 48.3545 137.742 48.0078 138.233 47.7625C138.734 47.5172 139.283 47.3945 139.881 47.3945ZM153.843 51.6025C153.843 51.8798 153.827 52.1732 153.795 52.4825H146.787C146.84 53.3465 147.134 54.0238 147.667 54.5145C148.211 54.9945 148.867 55.2345 149.635 55.2345C150.264 55.2345 150.787 55.0905 151.203 54.8025C151.63 54.5038 151.928 54.1092 152.099 53.6185H153.667C153.432 54.4612 152.963 55.1492 152.259 55.6825C151.555 56.2052 150.68 56.4665 149.635 56.4665C148.803 56.4665 148.056 56.2798 147.395 55.9065C146.744 55.5332 146.232 55.0052 145.859 54.3225C145.486 53.6292 145.299 52.8292 145.299 51.9225C145.299 51.0158 145.48 50.2212 145.843 49.5385C146.206 48.8558 146.712 48.3332 147.363 47.9705C148.024 47.5972 148.782 47.4105 149.635 47.4105C150.467 47.4105 151.203 47.5918 151.843 47.9545C152.483 48.3172 152.974 48.8185 153.315 49.4585C153.667 50.0878 153.843 50.8025 153.843 51.6025ZM152.339 51.2985C152.339 50.7438 152.216 50.2692 151.971 49.8745C151.726 49.4692 151.39 49.1652 150.963 48.9625C150.547 48.7492 150.083 48.6425 149.571 48.6425C148.835 48.6425 148.206 48.8772 147.683 49.3465C147.171 49.8158 146.878 50.4665 146.803 51.2985H152.339ZM157.221 44.4825V56.3225H155.765V44.4825H157.221ZM163.424 51.9065C163.424 51.0105 163.605 50.2265 163.968 49.5545C164.331 48.8718 164.827 48.3438 165.456 47.9705C166.096 47.5972 166.811 47.4105 167.6 47.4105C168.283 47.4105 168.917 47.5705 169.504 47.8905C170.091 48.1998 170.539 48.6105 170.848 49.1225V44.4825H172.32V56.3225H170.848V54.6745C170.56 55.1972 170.133 55.6292 169.568 55.9705C169.003 56.3012 168.341 56.4665 167.584 56.4665C166.805 56.4665 166.096 56.2745 165.456 55.8905C164.827 55.5065 164.331 54.9678 163.968 54.2745C163.605 53.5812 163.424 52.7918 163.424 51.9065ZM170.848 51.9225C170.848 51.2612 170.715 50.6852 170.448 50.1945C170.181 49.7038 169.819 49.3305 169.36 49.0745C168.912 48.8078 168.416 48.6745 167.872 48.6745C167.328 48.6745 166.832 48.8025 166.384 49.0585C165.936 49.3145 165.579 49.6878 165.312 50.1785C165.045 50.6692 164.912 51.2452 164.912 51.9065C164.912 52.5785 165.045 53.1652 165.312 53.6665C165.579 54.1572 165.936 54.5358 166.384 54.8025C166.832 55.0585 167.328 55.1865 167.872 55.1865C168.416 55.1865 168.912 55.0585 169.36 54.8025C169.819 54.5358 170.181 54.1572 170.448 53.6665C170.715 53.1652 170.848 52.5838 170.848 51.9225ZM182.781 51.6025C182.781 51.8798 182.765 52.1732 182.733 52.4825H175.725C175.778 53.3465 176.071 54.0238 176.605 54.5145C177.149 54.9945 177.805 55.2345 178.573 55.2345C179.202 55.2345 179.725 55.0905 180.141 54.8025C180.567 54.5038 180.866 54.1092 181.037 53.6185H182.605C182.37 54.4612 181.901 55.1492 181.197 55.6825C180.493 56.2052 179.618 56.4665 178.573 56.4665C177.741 56.4665 176.994 56.2798 176.333 55.9065C175.682 55.5332 175.17 55.0052 174.797 54.3225C174.423 53.6292 174.237 52.8292 174.237 51.9225C174.237 51.0158 174.418 50.2212 174.781 49.5385C175.143 48.8558 175.65 48.3332 176.301 47.9705C176.962 47.5972 177.719 47.4105 178.573 47.4105C179.405 47.4105 180.141 47.5918 180.781 47.9545C181.421 48.3172 181.911 48.8185 182.253 49.4585C182.605 50.0878 182.781 50.8025 182.781 51.6025ZM181.277 51.2985C181.277 50.7438 181.154 50.2692 180.909 49.8745C180.663 49.4692 180.327 49.1652 179.901 48.9625C179.485 48.7492 179.021 48.6425 178.509 48.6425C177.773 48.6425 177.143 48.8772 176.621 49.3465C176.109 49.8158 175.815 50.4665 175.741 51.2985H181.277ZM198.184 45.1705L193.976 56.3225H192.296L188.088 45.1705H189.64L193.144 54.7865L196.648 45.1705H198.184ZM207.781 51.6025C207.781 51.8798 207.765 52.1732 207.733 52.4825H200.725C200.778 53.3465 201.071 54.0238 201.605 54.5145C202.149 54.9945 202.805 55.2345 203.573 55.2345C204.202 55.2345 204.725 55.0905 205.141 54.8025C205.567 54.5038 205.866 54.1092 206.037 53.6185H207.605C207.37 54.4612 206.901 55.1492 206.197 55.6825C205.493 56.2052 204.618 56.4665 203.573 56.4665C202.741 56.4665 201.994 56.2798 201.333 55.9065C200.682 55.5332 200.17 55.0052 199.797 54.3225C199.423 53.6292 199.237 52.8292 199.237 51.9225C199.237 51.0158 199.418 50.2212 199.781 49.5385C200.143 48.8558 200.65 48.3332 201.301 47.9705C201.962 47.5972 202.719 47.4105 203.573 47.4105C204.405 47.4105 205.141 47.5918 205.781 47.9545C206.421 48.3172 206.911 48.8185 207.253 49.4585C207.605 50.0878 207.781 50.8025 207.781 51.6025ZM206.277 51.2985C206.277 50.7438 206.154 50.2692 205.909 49.8745C205.663 49.4692 205.327 49.1652 204.901 48.9625C204.485 48.7492 204.021 48.6425 203.509 48.6425C202.773 48.6425 202.143 48.8772 201.621 49.3465C201.109 49.8158 200.815 50.4665 200.741 51.2985H206.277ZM213.975 47.3945C215.041 47.3945 215.905 47.7198 216.567 48.3705C217.228 49.0105 217.559 49.9385 217.559 51.1545V56.3225H216.119V51.3625C216.119 50.4878 215.9 49.8212 215.463 49.3625C215.025 48.8932 214.428 48.6585 213.671 48.6585C212.903 48.6585 212.289 48.8985 211.831 49.3785C211.383 49.8585 211.159 50.5572 211.159 51.4745V56.3225H209.703V47.5545H211.159V48.8025C211.447 48.3545 211.836 48.0078 212.327 47.7625C212.828 47.5172 213.377 47.3945 213.975 47.3945ZM219.393 51.9065C219.393 51.0105 219.574 50.2265 219.937 49.5545C220.3 48.8718 220.796 48.3438 221.425 47.9705C222.065 47.5972 222.78 47.4105 223.569 47.4105C224.252 47.4105 224.886 47.5705 225.473 47.8905C226.06 48.1998 226.508 48.6105 226.817 49.1225V44.4825H228.289V56.3225H226.817V54.6745C226.529 55.1972 226.102 55.6292 225.537 55.9705C224.972 56.3012 224.31 56.4665 223.553 56.4665C222.774 56.4665 222.065 56.2745 221.425 55.8905C220.796 55.5065 220.3 54.9678 219.937 54.2745C219.574 53.5812 219.393 52.7918 219.393 51.9065ZM226.817 51.9225C226.817 51.2612 226.684 50.6852 226.417 50.1945C226.15 49.7038 225.788 49.3305 225.329 49.0745C224.881 48.8078 224.385 48.6745 223.841 48.6745C223.297 48.6745 222.801 48.8025 222.353 49.0585C221.905 49.3145 221.548 49.6878 221.281 50.1785C221.014 50.6692 220.881 51.2452 220.881 51.9065C220.881 52.5785 221.014 53.1652 221.281 53.6665C221.548 54.1572 221.905 54.5358 222.353 54.8025C222.801 55.0585 223.297 55.1865 223.841 55.1865C224.385 55.1865 224.881 55.0585 225.329 54.8025C225.788 54.5358 226.15 54.1572 226.417 53.6665C226.684 53.1652 226.817 52.5838 226.817 51.9225ZM238.749 51.6025C238.749 51.8798 238.733 52.1732 238.701 52.4825H231.693C231.747 53.3465 232.04 54.0238 232.573 54.5145C233.117 54.9945 233.773 55.2345 234.541 55.2345C235.171 55.2345 235.693 55.0905 236.109 54.8025C236.536 54.5038 236.835 54.1092 237.005 53.6185H238.573C238.339 54.4612 237.869 55.1492 237.165 55.6825C236.461 56.2052 235.587 56.4665 234.541 56.4665C233.709 56.4665 232.963 56.2798 232.301 55.9065C231.651 55.5332 231.139 55.0052 230.765 54.3225C230.392 53.6292 230.205 52.8292 230.205 51.9225C230.205 51.0158 230.387 50.2212 230.749 49.5385C231.112 48.8558 231.619 48.3332 232.269 47.9705C232.931 47.5972 233.688 47.4105 234.541 47.4105C235.373 47.4105 236.109 47.5918 236.749 47.9545C237.389 48.3172 237.88 48.8185 238.221 49.4585C238.573 50.0878 238.749 50.8025 238.749 51.6025ZM237.245 51.2985C237.245 50.7438 237.123 50.2692 236.877 49.8745C236.632 49.4692 236.296 49.1652 235.869 48.9625C235.453 48.7492 234.989 48.6425 234.477 48.6425C233.741 48.6425 233.112 48.8772 232.589 49.3465C232.077 49.8158 231.784 50.4665 231.709 51.2985H237.245ZM240.127 51.9065C240.127 51.0105 240.309 50.2265 240.671 49.5545C241.034 48.8718 241.53 48.3438 242.159 47.9705C242.799 47.5972 243.514 47.4105 244.303 47.4105C244.986 47.4105 245.621 47.5705 246.207 47.8905C246.794 48.1998 247.242 48.6105 247.551 49.1225V44.4825H249.023V56.3225H247.551V54.6745C247.263 55.1972 246.837 55.6292 246.271 55.9705C245.706 56.3012 245.045 56.4665 244.287 56.4665C243.509 56.4665 242.799 56.2745 242.159 55.8905C241.53 55.5065 241.034 54.9678 240.671 54.2745C240.309 53.5812 240.127 52.7918 240.127 51.9065ZM247.551 51.9225C247.551 51.2612 247.418 50.6852 247.151 50.1945C246.885 49.7038 246.522 49.3305 246.063 49.0745C245.615 48.8078 245.119 48.6745 244.575 48.6745C244.031 48.6745 243.535 48.8025 243.087 49.0585C242.639 49.3145 242.282 49.6878 242.015 50.1785C241.749 50.6692 241.615 51.2452 241.615 51.9065C241.615 52.5785 241.749 53.1652 242.015 53.6665C242.282 54.1572 242.639 54.5358 243.087 54.8025C243.535 55.0585 244.031 55.1865 244.575 55.1865C245.119 55.1865 245.615 55.0585 246.063 54.8025C246.522 54.5358 246.885 54.1572 247.151 53.6665C247.418 53.1652 247.551 52.5838 247.551 51.9225ZM255.308 56.4665C254.486 56.4665 253.74 56.2798 253.068 55.9065C252.406 55.5332 251.884 55.0052 251.5 54.3225C251.126 53.6292 250.94 52.8292 250.94 51.9225C250.94 51.0265 251.132 50.2372 251.516 49.5545C251.91 48.8612 252.444 48.3332 253.116 47.9705C253.788 47.5972 254.54 47.4105 255.372 47.4105C256.204 47.4105 256.956 47.5972 257.628 47.9705C258.3 48.3332 258.828 48.8558 259.212 49.5385C259.606 50.2212 259.804 51.0158 259.804 51.9225C259.804 52.8292 259.601 53.6292 259.196 54.3225C258.801 55.0052 258.262 55.5332 257.58 55.9065C256.897 56.2798 256.14 56.4665 255.308 56.4665ZM255.308 55.1865C255.83 55.1865 256.321 55.0638 256.78 54.8185C257.238 54.5732 257.606 54.2052 257.884 53.7145C258.172 53.2238 258.316 52.6265 258.316 51.9225C258.316 51.2185 258.177 50.6212 257.9 50.1305C257.622 49.6398 257.26 49.2772 256.812 49.0425C256.364 48.7972 255.878 48.6745 255.356 48.6745C254.822 48.6745 254.332 48.7972 253.884 49.0425C253.446 49.2772 253.094 49.6398 252.828 50.1305C252.561 50.6212 252.428 51.2185 252.428 51.9225C252.428 52.6372 252.556 53.2398 252.812 53.7305C253.078 54.2212 253.43 54.5892 253.868 54.8345C254.305 55.0692 254.785 55.1865 255.308 55.1865ZM263.174 48.9785C263.43 48.4772 263.793 48.0878 264.262 47.8105C264.742 47.5332 265.323 47.3945 266.006 47.3945V48.8985H265.622C263.99 48.8985 263.174 49.7838 263.174 51.5545V56.3225H261.718V47.5545H263.174V48.9785Z" fill="#3D3D3D"/>
</g>
<defs>
<clipPath id="clip0_3135_845">
<rect width="157" height="52" fill="white" transform="translate(110.361 8.32251)"/>
</clipPath>
</defs>
</svg>
