<svg width="26" height="26" viewBox="0 0 26 26" fill="none" xmlns="http://www.w3.org/2000/svg">
<g clip-path="url(#clip0_1164_529)">
<path d="M18.6953 12.7945C17.4758 13.3221 16.9165 14.7244 17.446 15.9266C17.9756 17.1288 19.3935 17.6757 20.6129 17.1481C21.8324 16.6205 22.3918 15.2182 21.8622 14.016C21.3327 12.8138 19.9148 12.2669 18.6953 12.7945Z" stroke="#B8952E" stroke-width="1.5948" stroke-linecap="round" stroke-linejoin="round"/>
<path d="M17.4161 14.1081L13.3202 12.5283" stroke="#B8952E" stroke-width="1.5948" stroke-linecap="round" stroke-linejoin="round"/>
<path d="M9.98891 20.8806L14.936 8.47749" stroke="#B8952E" stroke-width="1.5948" stroke-linecap="round" stroke-linejoin="round"/>
<path d="M14.86 4.08739C13.6405 4.61499 13.0811 6.01728 13.6107 7.21949C14.1402 8.42169 15.5581 8.96857 16.7776 8.44097C17.9971 7.91336 18.5564 6.51108 18.0269 5.30887C17.4973 4.10666 16.0795 3.55979 14.86 4.08739Z" stroke="#B8952E" stroke-width="1.5948" stroke-linecap="round" stroke-linejoin="round"/>
<path d="M10.3645 11.3883L4.87516 9.27105" stroke="#B8952E" stroke-width="1.5948" stroke-linecap="round" stroke-linejoin="round"/>
</g>
<defs>
<clipPath id="clip0_1164_529">
<rect width="19.2471" height="19.0288" fill="white" transform="matrix(-0.917788 0.397071 -0.403106 -0.915153 25.988 17.4143)"/>
</clipPath>
</defs>
</svg>
