<svg width="20" height="20" viewBox="0 0 20 20" fill="none" xmlns="http://www.w3.org/2000/svg">
<path d="M15.625 2.5V13.75C15.625 13.9158 15.5592 14.0747 15.4419 14.1919C15.3247 14.3092 15.1658 14.375 15 14.375H5.2586L7.94219 17.0578C8.00026 17.1159 8.04632 17.1848 8.07775 17.2607C8.10918 17.3366 8.12535 17.4179 8.12535 17.5C8.12535 17.5821 8.10918 17.6634 8.07775 17.7393C8.04632 17.8152 8.00026 17.8841 7.94219 17.9422C7.88412 18.0003 7.81518 18.0463 7.73931 18.0777C7.66344 18.1092 7.58212 18.1253 7.5 18.1253C7.41788 18.1253 7.33656 18.1092 7.26069 18.0777C7.18482 18.0463 7.11588 18.0003 7.05782 17.9422L3.30782 14.1922C3.24971 14.1341 3.20361 14.0652 3.17215 13.9893C3.1407 13.9135 3.12451 13.8321 3.12451 13.75C3.12451 13.6679 3.1407 13.5865 3.17215 13.5107C3.20361 13.4348 3.24971 13.3659 3.30782 13.3078L7.05782 9.55781C7.17509 9.44054 7.33415 9.37465 7.5 9.37465C7.66586 9.37465 7.82492 9.44054 7.94219 9.55781C8.05947 9.67509 8.12535 9.83415 8.12535 10C8.12535 10.1659 8.05947 10.3249 7.94219 10.4422L5.2586 13.125H14.375V2.5C14.375 2.33424 14.4408 2.17527 14.5581 2.05806C14.6753 1.94085 14.8342 1.875 15 1.875C15.1658 1.875 15.3247 1.94085 15.4419 2.05806C15.5592 2.17527 15.625 2.33424 15.625 2.5Z" fill="white"/>
</svg>
