<svg width="66" height="64" viewBox="0 0 66 64" fill="none" xmlns="http://www.w3.org/2000/svg">
<path d="M48.5361 16.8072L44.8891 19.8932H49.6665H60.7159C61.5884 19.8932 62.4251 20.2398 63.0421 20.8567C63.659 21.4736 64.0056 22.3103 64.0056 23.1828V33.2621C64.0056 34.1346 63.659 34.9713 63.0421 35.5882C62.4251 36.2052 61.5884 36.5518 60.7159 36.5518H58.9659V38.3018V58.4604C58.9659 59.3328 58.6194 60.1696 58.0024 60.7865C57.3855 61.4034 56.5488 61.75 55.6763 61.75H37.2677V35.0121H60.7159H62.4659V33.2621V23.1828V21.4328H60.7159H35.5177H33.7677V23.1828V31.5121H32.2281V23.1828V21.4328H30.4781H5.27982H3.52982V23.1828V33.2621V35.0121H5.27982H28.7281V61.75H10.3195C9.447 61.75 8.61027 61.4034 7.99334 60.7865C7.37641 60.1696 7.02982 59.3328 7.02982 58.4604V38.3018V36.5518H5.27982C4.40735 36.5518 3.57062 36.2052 2.95369 35.5882C2.33676 34.9713 1.99017 34.1346 1.99017 33.2621V23.1828C1.99017 22.3103 2.33676 21.4736 2.95369 20.8567C3.57062 20.2398 4.40735 19.8932 5.27982 19.8932H16.3292H20.8993L17.4981 16.8407C17.4134 16.7648 17.2403 16.6186 17.1556 16.547C17.1361 16.5306 17.1213 16.5181 17.1134 16.5113C16.3412 15.8229 15.7187 14.9832 15.2844 14.0442C14.8484 13.1013 14.6116 12.0785 14.5889 11.0399L14.5889 11.0399L14.5885 11.0265C14.5542 9.86534 14.7576 8.70941 15.1861 7.62969C15.6147 6.54997 16.2594 5.56923 17.0807 4.74769C17.902 3.92615 18.8825 3.28113 19.9621 2.85225C21.0417 2.42337 22.1976 2.21967 23.3588 2.25365L23.3588 2.2537L23.3723 2.25399C24.4113 2.27637 25.4346 2.51299 26.3779 2.94905L27.1122 1.36053L26.3779 2.94905C27.3176 3.38337 28.1579 4.00623 28.8466 4.7789C29.9002 6.00209 30.7571 7.38188 31.3862 8.86871L32.9979 12.6772L34.6095 8.86871C35.2387 7.38186 36.0956 6.00205 37.1492 4.77884C37.838 4.0062 38.6782 3.38336 39.6178 2.94905C40.5612 2.51299 41.5845 2.27637 42.6235 2.25404L42.637 2.25365C43.7982 2.21967 44.954 2.42337 46.0336 2.85225C47.1132 3.28113 48.0938 3.92615 48.9151 4.74769C49.7364 5.56923 50.3811 6.54997 50.8096 7.62969C51.2382 8.70942 51.4416 9.86534 51.4072 11.0265L51.4072 11.0265L51.4069 11.0399C51.3976 11.4635 51.3527 11.8845 51.2733 12.2985H49.6916C49.799 11.8623 49.8579 11.4144 49.8664 10.963C49.8904 10.0366 49.7298 9.11465 49.394 8.25088C49.0572 7.38452 48.5508 6.59412 47.9046 5.92598C47.2584 5.25783 46.4853 4.72539 45.6306 4.35985C44.776 3.99432 43.857 3.80304 42.9275 3.79723V3.79719H42.9165H42.7622H42.7528L42.7433 3.7973C41.9078 3.80631 41.0831 3.98797 40.3211 4.33088C39.559 4.67379 38.8761 5.17053 38.3152 5.78994L38.3101 5.79557L38.3051 5.80124C36.8139 7.47701 35.8298 9.65909 35.1714 11.7555C34.5068 13.8717 34.1354 16.0271 33.9395 17.7573L33.694 19.9255L35.8638 19.6943C37.4668 19.5235 39.5917 19.1926 41.7293 18.5456C43.8487 17.9042 46.1035 16.9158 47.8625 15.3589L51.2635 12.3485C51.1474 12.932 50.9624 13.5013 50.7113 14.0442C50.2753 14.9871 49.6494 15.8299 48.8727 16.5199L48.861 16.5303L48.8495 16.541C48.7962 16.59 48.7537 16.6254 48.6858 16.6818C48.6466 16.7144 48.5991 16.754 48.5361 16.8072ZM18.131 15.3512L18.1373 15.3568C19.8959 16.9189 22.1474 17.9103 24.2651 18.5531C26.4006 19.2013 28.5232 19.5315 30.1275 19.7008L32.2816 19.9282L32.0512 17.7743C31.8803 16.1775 31.5494 14.0581 30.9027 11.925C30.2616 9.8099 29.2741 7.5587 27.719 5.80164L27.7124 5.79418L27.7057 5.78678C27.1448 5.16739 26.4619 4.67064 25.6999 4.32773L24.9995 5.88424L25.6999 4.32773C24.9379 3.98482 24.1132 3.80316 23.2776 3.79415L23.2682 3.79405H23.2588L23.1044 3.79404L23.1007 3.79405C22.1712 3.79604 21.2515 3.98352 20.3954 4.34549C19.5394 4.70745 18.7641 5.23664 18.1152 5.90203L19.368 7.12389L18.1152 5.90203C17.4662 6.56743 16.9566 7.35564 16.6162 8.2205C16.277 9.08213 16.1125 10.0026 16.1323 10.9283C16.1428 11.7602 16.3243 12.5811 16.6658 13.3398C17.0087 14.1018 17.5054 14.7847 18.1248 15.3456L18.131 15.3512Z" fill="#D658B3" stroke="white" stroke-width="3.5"/>
</svg>
