<svg width="32" height="32" viewBox="0 0 32 32" fill="none" xmlns="http://www.w3.org/2000/svg">
<rect width="32" height="32" rx="16" fill="#45B442" fill-opacity="0.12"/>
<path d="M25.1744 13.6394C24.8209 13.27 24.4553 12.8894 24.3175 12.5547C24.19 12.2481 24.1825 11.74 24.175 11.2478C24.1609 10.3328 24.1459 9.29594 23.425 8.575C22.7041 7.85406 21.6672 7.83906 20.7522 7.825C20.26 7.8175 19.7519 7.81 19.4453 7.6825C19.1116 7.54469 18.73 7.17906 18.3606 6.82562C17.7137 6.20406 16.9788 5.5 16 5.5C15.0212 5.5 14.2872 6.20406 13.6394 6.82562C13.27 7.17906 12.8894 7.54469 12.5547 7.6825C12.25 7.81 11.74 7.8175 11.2478 7.825C10.3328 7.83906 9.29594 7.85406 8.575 8.575C7.85406 9.29594 7.84375 10.3328 7.825 11.2478C7.8175 11.74 7.81 12.2481 7.6825 12.5547C7.54469 12.8884 7.17906 13.27 6.82562 13.6394C6.20406 14.2863 5.5 15.0212 5.5 16C5.5 16.9788 6.20406 17.7128 6.82562 18.3606C7.17906 18.73 7.54469 19.1106 7.6825 19.4453C7.81 19.7519 7.8175 20.26 7.825 20.7522C7.83906 21.6672 7.85406 22.7041 8.575 23.425C9.29594 24.1459 10.3328 24.1609 11.2478 24.175C11.74 24.1825 12.2481 24.19 12.5547 24.3175C12.8884 24.4553 13.27 24.8209 13.6394 25.1744C14.2863 25.7959 15.0212 26.5 16 26.5C16.9788 26.5 17.7128 25.7959 18.3606 25.1744C18.73 24.8209 19.1106 24.4553 19.4453 24.3175C19.7519 24.19 20.26 24.1825 20.7522 24.175C21.6672 24.1609 22.7041 24.1459 23.425 23.425C24.1459 22.7041 24.1609 21.6672 24.175 20.7522C24.1825 20.26 24.19 19.7519 24.3175 19.4453C24.4553 19.1116 24.8209 18.73 25.1744 18.3606C25.7959 17.7137 26.5 16.9788 26.5 16C26.5 15.0212 25.7959 14.2872 25.1744 13.6394ZM24.0916 17.3228C23.6425 17.7916 23.1775 18.2763 22.9309 18.8716C22.6947 19.4434 22.6844 20.0969 22.675 20.7297C22.6656 21.3859 22.6553 22.0731 22.3638 22.3638C22.0722 22.6544 21.3897 22.6656 20.7297 22.675C20.0969 22.6844 19.4434 22.6947 18.8716 22.9309C18.2763 23.1775 17.7916 23.6425 17.3228 24.0916C16.8541 24.5406 16.375 25 16 25C15.625 25 15.1422 24.5387 14.6772 24.0916C14.2122 23.6444 13.7238 23.1775 13.1284 22.9309C12.5566 22.6947 11.9031 22.6844 11.2703 22.675C10.6141 22.6656 9.92688 22.6553 9.63625 22.3638C9.34562 22.0722 9.33437 21.3897 9.325 20.7297C9.31562 20.0969 9.30531 19.4434 9.06906 18.8716C8.8225 18.2763 8.3575 17.7916 7.90844 17.3228C7.45937 16.8541 7 16.375 7 16C7 15.625 7.46125 15.1422 7.90844 14.6772C8.35562 14.2122 8.8225 13.7238 9.06906 13.1284C9.30531 12.5566 9.31562 11.9031 9.325 11.2703C9.33437 10.6141 9.34469 9.92688 9.63625 9.63625C9.92781 9.34562 10.6103 9.33437 11.2703 9.325C11.9031 9.31562 12.5566 9.30531 13.1284 9.06906C13.7238 8.8225 14.2084 8.3575 14.6772 7.90844C15.1459 7.45937 15.625 7 16 7C16.375 7 16.8578 7.46125 17.3228 7.90844C17.7878 8.35562 18.2763 8.8225 18.8716 9.06906C19.4434 9.30531 20.0969 9.31562 20.7297 9.325C21.3859 9.33437 22.0731 9.34469 22.3638 9.63625C22.6544 9.92781 22.6656 10.6103 22.675 11.2703C22.6844 11.9031 22.6947 12.5566 22.9309 13.1284C23.1775 13.7238 23.6425 14.2084 24.0916 14.6772C24.5406 15.1459 25 15.625 25 16C25 16.375 24.5387 16.8578 24.0916 17.3228ZM20.2806 13.2194C20.3504 13.289 20.4057 13.3717 20.4434 13.4628C20.4812 13.5538 20.5006 13.6514 20.5006 13.75C20.5006 13.8486 20.4812 13.9462 20.4434 14.0372C20.4057 14.1283 20.3504 14.211 20.2806 14.2806L15.0306 19.5306C14.961 19.6004 14.8783 19.6557 14.7872 19.6934C14.6962 19.7312 14.5986 19.7506 14.5 19.7506C14.4014 19.7506 14.3038 19.7312 14.2128 19.6934C14.1217 19.6557 14.039 19.6004 13.9694 19.5306L11.7194 17.2806C11.5786 17.1399 11.4996 16.949 11.4996 16.75C11.4996 16.551 11.5786 16.3601 11.7194 16.2194C11.8601 16.0786 12.051 15.9996 12.25 15.9996C12.449 15.9996 12.6399 16.0786 12.7806 16.2194L14.5 17.9397L19.2194 13.2194C19.289 13.1496 19.3717 13.0943 19.4628 13.0566C19.5538 13.0188 19.6514 12.9994 19.75 12.9994C19.8486 12.9994 19.9462 13.0188 20.0372 13.0566C20.1283 13.0943 20.211 13.1496 20.2806 13.2194Z" fill="#45B442"/>
</svg>
