<svg width="32" height="32" viewBox="0 0 32 32" fill="none" xmlns="http://www.w3.org/2000/svg">
<path d="M30.9294 21.7188C30.93 21.7129 30.93 21.7071 30.9294 21.7013L28.8806 11.18C28.8806 11.1725 28.8806 11.165 28.8806 11.1575C28.5644 9.43007 27.6527 7.86809 26.3042 6.74314C24.9556 5.61818 23.2555 5.00139 21.4994 5H10.4856C8.72455 4.99932 7.01964 5.61962 5.67073 6.75179C4.32182 7.88395 3.41531 9.45549 3.11062 11.19L1.07187 21.7013C1.07127 21.7071 1.07127 21.7129 1.07187 21.7188C0.905922 22.661 1.04463 23.6317 1.46785 24.4898C1.89107 25.3479 2.57678 26.0487 3.42541 26.4906C4.27405 26.9325 5.24143 27.0924 6.18711 26.947C7.1328 26.8017 8.00755 26.3588 8.68437 25.6825L8.72812 25.6362L13.6894 20H18.3144L23.2781 25.6362C23.2919 25.6525 23.3069 25.6675 23.3219 25.6825C24.1654 26.5242 25.3077 26.9979 26.4994 27C27.1562 26.9996 27.805 26.8554 28.4002 26.5775C28.9954 26.2996 29.5225 25.8948 29.9445 25.3915C30.3666 24.8882 30.6734 24.2986 30.8433 23.6641C31.0132 23.0296 31.0422 22.3656 30.9281 21.7188H30.9294ZM12.9994 14H11.9994V15C11.9994 15.2652 11.894 15.5196 11.7065 15.7071C11.5189 15.8946 11.2646 16 10.9994 16C10.7342 16 10.4798 15.8946 10.2923 15.7071C10.1047 15.5196 9.99937 15.2652 9.99937 15V14H8.99937C8.73415 14 8.4798 13.8946 8.29226 13.7071C8.10473 13.5196 7.99937 13.2652 7.99937 13C7.99937 12.7348 8.10473 12.4804 8.29226 12.2929C8.4798 12.1054 8.73415 12 8.99937 12H9.99937V11C9.99937 10.7348 10.1047 10.4804 10.2923 10.2929C10.4798 10.1054 10.7342 10 10.9994 10C11.2646 10 11.5189 10.1054 11.7065 10.2929C11.894 10.4804 11.9994 10.7348 11.9994 11V12H12.9994C13.2646 12 13.5189 12.1054 13.7065 12.2929C13.894 12.4804 13.9994 12.7348 13.9994 13C13.9994 13.2652 13.894 13.5196 13.7065 13.7071C13.5189 13.8946 13.2646 14 12.9994 14ZM17.9994 13C17.9994 12.7348 18.1047 12.4804 18.2923 12.2929C18.4798 12.1054 18.7342 12 18.9994 12H21.9994C22.2646 12 22.5189 12.1054 22.7065 12.2929C22.894 12.4804 22.9994 12.7348 22.9994 13C22.9994 13.2652 22.894 13.5196 22.7065 13.7071C22.5189 13.8946 22.2646 14 21.9994 14H18.9994C18.7342 14 18.4798 13.8946 18.2923 13.7071C18.1047 13.5196 17.9994 13.2652 17.9994 13ZM28.5456 23.9338C28.3583 24.2034 28.1193 24.4332 27.8425 24.6098C27.5657 24.7864 27.2566 24.9063 26.9331 24.9625C26.5418 25.0309 26.1398 25.0056 25.7602 24.8884C25.3805 24.7713 25.0341 24.5658 24.7494 24.2887L20.9744 20H21.4994C22.7761 20.0002 24.0317 19.6744 25.1473 19.0536C26.2629 18.4328 27.2015 17.5375 27.8744 16.4525L28.9669 22.0775C29.0225 22.3994 29.0139 22.7291 28.9416 23.0477C28.8693 23.3663 28.7347 23.6674 28.5456 23.9338Z" fill="url(#paint0_linear_2230_407)"/>
<defs>
<linearGradient id="paint0_linear_2230_407" x1="1.00366" y1="16" x2="30.9965" y2="16" gradientUnits="userSpaceOnUse">
<stop stop-color="#FC4A1A"/>
<stop offset="1" stop-color="#F7B733"/>
</linearGradient>
</defs>
</svg>
