<svg width="32" height="32" viewBox="0 0 32 32" fill="none" xmlns="http://www.w3.org/2000/svg">
<path d="M11.3826 8.5812C11.3309 8.5295 11.2686 8.48976 11.1999 8.46478C11.1312 8.4398 11.0578 8.43019 10.985 8.43663C10.9122 8.44306 10.8417 8.46539 10.7784 8.50203C10.7151 8.53867 10.6607 8.58873 10.6189 8.6487C9.5641 10.1541 8.99887 11.948 9.00013 13.7862C9.00105 14.18 9.02735 14.5733 9.07888 14.9637L0.39013 26.8137C0.105736 27.1983 -0.0306888 27.6725 0.00580645 28.1495C0.0423017 28.6264 0.249278 29.0743 0.58888 29.4112L2.37513 31.1974C2.71202 31.537 3.15991 31.744 3.63687 31.7805C4.11383 31.817 4.58799 31.6806 4.97263 31.3962L16.8239 22.7049C17.2138 22.7573 17.6067 22.7844 18.0001 22.7862C19.8376 22.7879 21.631 22.2236 23.1364 21.1699C23.1963 21.1281 23.2464 21.0737 23.283 21.0104C23.3197 20.9472 23.342 20.8766 23.3484 20.8038C23.3549 20.731 23.3453 20.6577 23.3203 20.589C23.2953 20.5203 23.2556 20.4579 23.2039 20.4062L11.3826 8.5812ZM11.7089 21.4912L9.70888 23.4912C9.61695 23.588 9.50657 23.6653 9.38426 23.7188C9.26194 23.7722 9.13017 23.8006 8.9967 23.8023C8.86324 23.8041 8.73078 23.779 8.60714 23.7287C8.4835 23.6784 8.37118 23.6039 8.2768 23.5095C8.18241 23.4152 8.10788 23.3028 8.05759 23.1792C8.0073 23.0555 7.98227 22.9231 7.98398 22.7896C7.98569 22.6562 8.0141 22.5244 8.06754 22.4021C8.12098 22.2798 8.19836 22.1694 8.29513 22.0774L10.2951 20.0774C10.4842 19.8978 10.7359 19.7992 10.9967 19.8025C11.2575 19.8058 11.5066 19.9109 11.691 20.0953C11.8754 20.2797 11.9805 20.5289 11.9838 20.7896C11.9872 21.0504 11.8885 21.3021 11.7089 21.4912ZM25.3839 18.9212C25.3421 18.9814 25.2876 19.0316 25.2242 19.0684C25.1608 19.1052 25.0902 19.1276 25.0172 19.134C24.9442 19.1404 24.8707 19.1308 24.8019 19.1057C24.733 19.0806 24.6706 19.0406 24.6189 18.9887L12.7976 7.16745C12.7457 7.11576 12.7058 7.05329 12.6807 6.98446C12.6556 6.91563 12.6459 6.84213 12.6523 6.76915C12.6588 6.69617 12.6812 6.62549 12.7179 6.56212C12.7547 6.49876 12.805 6.44424 12.8651 6.40245C14.5966 5.19425 16.6981 4.63393 18.8012 4.81966C20.9044 5.00539 22.8751 5.92533 24.368 7.41828C25.861 8.91123 26.7809 10.8819 26.9667 12.9851C27.1524 15.0883 26.5921 17.1897 25.3839 18.9212Z" fill="url(#paint0_linear_2230_406)"/>
<defs>
<linearGradient id="paint0_linear_2230_406" x1="0" y1="18.2856" x2="27.0015" y2="18.2856" gradientUnits="userSpaceOnUse">
<stop stop-color="#FC4A1A"/>
<stop offset="1" stop-color="#F7B733"/>
</linearGradient>
</defs>
</svg>
