<svg width="32" height="32" viewBox="0 0 32 32" fill="none" xmlns="http://www.w3.org/2000/svg">
<path d="M28.115 2.71154C27.9958 2.61707 27.8564 2.55143 27.7076 2.51977C27.5589 2.48811 27.4048 2.49129 27.2575 2.52904L11.2575 6.52904C11.0414 6.58307 10.8495 6.70772 10.7122 6.88322C10.575 7.05871 10.5003 7.27501 10.5 7.49779V21.2603C9.66571 20.7029 8.66904 20.4402 7.66838 20.5142C6.66772 20.5881 5.72047 20.9944 4.97718 21.6684C4.23388 22.3424 3.73717 23.2455 3.56598 24.2342C3.39479 25.2229 3.55895 26.2404 4.03236 27.1251C4.50577 28.0098 5.26128 28.7109 6.17882 29.117C7.09637 29.523 8.12331 29.6108 9.09646 29.3663C10.0696 29.1218 10.9331 28.5591 11.5498 27.7676C12.1665 26.9761 12.5009 26.0012 12.5 24.9978V13.279L26.5 9.77904V17.2603C25.6657 16.7029 24.669 16.4402 23.6684 16.5142C22.6677 16.5881 21.7205 16.9944 20.9772 17.6684C20.2339 18.3424 19.7372 19.2455 19.566 20.2342C19.3948 21.2229 19.5589 22.2404 20.0324 23.1251C20.5058 24.0098 21.2613 24.7109 22.1788 25.117C23.0964 25.523 24.1233 25.6108 25.0965 25.3663C26.0696 25.1218 26.9331 24.5591 27.5498 23.7676C28.1665 22.9761 28.5009 22.0012 28.5 20.9978V3.49779C28.4997 3.34612 28.4648 3.19652 28.3981 3.0603C28.3314 2.92408 28.2346 2.80482 28.115 2.71154Z" fill="url(#paint0_linear_2230_404)"/>
<defs>
<linearGradient id="paint0_linear_2230_404" x1="3.5" y1="16.0001" x2="28.5" y2="16.0001" gradientUnits="userSpaceOnUse">
<stop stop-color="#FC4A1A"/>
<stop offset="1" stop-color="#F7B733"/>
</linearGradient>
</defs>
</svg>
