<svg width="32" height="32" viewBox="0 0 32 32" fill="none" xmlns="http://www.w3.org/2000/svg">
<path d="M8.01501 17.478C8.0184 17.5457 8.00798 17.6134 7.98438 17.677C7.96077 17.7406 7.92448 17.7987 7.87771 17.8478C7.83094 17.8969 7.77466 17.936 7.71231 17.9627C7.64996 17.9894 7.58283 18.0031 7.51501 18.003H2.00001C1.77431 18.0033 1.55512 17.9273 1.37811 17.7873C1.20109 17.6473 1.07664 17.4515 1.02501 17.2317C0.992865 17.0814 0.994347 16.9257 1.02935 16.776C1.06436 16.6262 1.13203 16.4861 1.22751 16.3655C2.10977 15.1955 3.28038 14.2742 4.62501 13.6917C4.03467 13.1535 3.5819 12.4816 3.30461 11.7324C3.02732 10.9832 2.9336 10.1784 3.03128 9.38556C3.12897 8.59267 3.41522 7.83474 3.86606 7.17523C4.31691 6.51572 4.91922 5.97384 5.62255 5.59498C6.32588 5.21611 7.10976 5.01129 7.90852 4.99767C8.70729 4.98406 9.49769 5.16203 10.2135 5.5167C10.9294 5.87137 11.5498 6.3924 12.0229 7.03615C12.4959 7.67991 12.8079 8.42765 12.9325 9.21675C12.9486 9.32286 12.9296 9.43133 12.8784 9.52565C12.8272 9.61997 12.7465 9.69497 12.6488 9.73925C11.2618 10.3805 10.0871 11.4051 9.2634 12.6921C8.4397 13.9791 8.00133 15.4749 8.00001 17.003C8.00001 17.163 8.00001 17.3205 8.01501 17.478ZM30.765 16.3642C29.8848 15.1956 28.7169 14.2748 27.375 13.6917C27.9654 13.1535 28.4181 12.4816 28.6954 11.7324C28.9727 10.9832 29.0664 10.1784 28.9687 9.38556C28.8711 8.59267 28.5848 7.83474 28.134 7.17523C27.6831 6.51572 27.0808 5.97384 26.3775 5.59498C25.6741 5.21611 24.8903 5.01129 24.0915 4.99767C23.2927 4.98406 22.5023 5.16203 21.7865 5.5167C21.0707 5.87137 20.4502 6.3924 19.9772 7.03615C19.5041 7.67991 19.1922 8.42765 19.0675 9.21675C19.0514 9.32286 19.0704 9.43133 19.1216 9.52565C19.1729 9.61997 19.2535 9.69497 19.3513 9.73925C20.7383 10.3805 21.9129 11.4051 22.7366 12.6921C23.5603 13.9791 23.9987 15.4749 24 17.003C24 17.163 24 17.3205 23.985 17.478C23.9816 17.5457 23.992 17.6134 24.0157 17.677C24.0393 17.7406 24.0755 17.7987 24.1223 17.8478C24.1691 17.8969 24.2254 17.936 24.2877 17.9627C24.3501 17.9894 24.4172 18.0031 24.485 18.003H30C30.2257 18.0033 30.4449 17.9273 30.6219 17.7873C30.7989 17.6473 30.9234 17.4515 30.975 17.2317C31.0074 17.0811 31.0059 16.9251 30.9706 16.7751C30.9354 16.6251 30.8673 16.4848 30.7713 16.3642H30.765ZM19.64 21.7617C20.6357 20.9992 21.3674 19.9438 21.7323 18.7439C22.0972 17.5441 22.0769 16.26 21.6744 15.0722C21.2718 13.8845 20.5071 12.8527 19.4879 12.122C18.4686 11.3912 17.246 10.9982 15.9919 10.9982C14.7377 10.9982 13.5151 11.3912 12.4959 12.122C11.4766 12.8527 10.712 13.8845 10.3094 15.0722C9.90683 16.26 9.88657 17.5441 10.2515 18.7439C10.6164 19.9438 11.3481 20.9992 12.3438 21.7617C10.5769 22.5273 9.1016 23.8384 8.13376 25.503C8.04599 25.655 7.99978 25.8275 7.99979 26.0031C7.9998 26.1786 8.04603 26.3511 8.13382 26.5031C8.22161 26.6551 8.34788 26.7814 8.49993 26.8691C8.65199 26.9569 8.82446 27.003 9.00001 27.003H23C23.1756 27.003 23.348 26.9569 23.5001 26.8691C23.6521 26.7814 23.7784 26.6551 23.8662 26.5031C23.954 26.3511 24.0002 26.1786 24.0002 26.0031C24.0002 25.8275 23.954 25.655 23.8663 25.503C22.8964 23.8373 21.4183 22.5261 19.6488 21.7617H19.64Z" fill="url(#paint0_linear_2230_405)"/>
<defs>
<linearGradient id="paint0_linear_2230_405" x1="1.00195" y1="16" x2="30.9982" y2="16" gradientUnits="userSpaceOnUse">
<stop stop-color="#FC4A1A"/>
<stop offset="1" stop-color="#F7B733"/>
</linearGradient>
</defs>
</svg>
