<svg width="40" height="60" viewBox="0 0 40 60" fill="none" xmlns="http://www.w3.org/2000/svg">
<path d="M17.6554 26.3363C18.4608 24.1597 21.5392 24.1597 22.3446 26.3363L25.0029 33.5201C25.2561 34.2044 25.7956 34.7439 26.4799 34.9971L33.6637 37.6554C35.8403 38.4608 35.8403 41.5392 33.6637 42.3446L26.4799 45.0029C25.7956 45.2561 25.2561 45.7956 25.0029 46.4799L22.3446 53.6637C21.5392 55.8403 18.4608 55.8403 17.6554 53.6637L14.9971 46.4799C14.7439 45.7956 14.2044 45.2561 13.5201 45.0029L6.33627 42.3446C4.15972 41.5392 4.15972 38.4608 6.33627 37.6554L13.5201 34.9971C14.2044 34.7439 14.7439 34.2044 14.9971 33.5201L17.6554 26.3363Z" fill="black"/>
<path d="M27.0621 2.5345C27.3843 1.66389 28.6157 1.66389 28.9379 2.53451L30.0012 5.40803C30.1024 5.68175 30.3182 5.89756 30.592 5.99885L33.4655 7.06215C34.3361 7.38431 34.3361 8.61569 33.4655 8.93785L30.592 10.0012C30.3182 10.1024 30.1024 10.3182 30.0012 10.592L28.9379 13.4655C28.6157 14.3361 27.3843 14.3361 27.0621 13.4655L25.9988 10.592C25.8976 10.3182 25.6818 10.1024 25.408 10.0012L22.5345 8.93785C21.6639 8.61569 21.6639 7.38431 22.5345 7.06215L25.408 5.99885C25.6818 5.89756 25.8976 5.68175 25.9988 5.40803L27.0621 2.5345Z" fill="black"/>
</svg>
