<svg width="88" height="72" viewBox="0 0 88 72" fill="none" xmlns="http://www.w3.org/2000/svg">
<path d="M30.7175 24.8708C31.8451 21.8236 36.1549 21.8236 37.2825 24.8708L41.004 34.9281C41.3585 35.8861 42.1139 36.6415 43.0719 36.996L53.1292 40.7175C56.1764 41.8451 56.1764 46.1549 53.1292 47.2825L43.0719 51.004C42.1139 51.3585 41.3585 52.1139 41.004 53.0719L37.2825 63.1292C36.1549 66.1764 31.8451 66.1764 30.7175 63.1292L26.996 53.0719C26.6415 52.1139 25.8861 51.3585 24.9281 51.004L14.8708 47.2825C11.8236 46.1549 11.8236 41.8451 14.8708 40.7175L24.9281 36.996C25.8861 36.6415 26.6415 35.8861 26.996 34.9281L30.7175 24.8708Z" fill="black"/>
<path d="M74.5932 21.8018C75.0765 20.4958 76.9235 20.4958 77.4068 21.8018L79.0017 26.112C79.1537 26.5226 79.4774 26.8463 79.888 26.9983L84.1982 28.5932C85.5042 29.0765 85.5042 30.9235 84.1982 31.4068L79.888 33.0017C79.4774 33.1537 79.1537 33.4774 79.0017 33.888L77.4068 38.1982C76.9235 39.5042 75.0765 39.5042 74.5932 38.1982L72.9983 33.888C72.8463 33.4774 72.5226 33.1537 72.112 33.0017L67.8018 31.4068C66.4958 30.9235 66.4958 29.0765 67.8018 28.5932L72.112 26.9983C72.5226 26.8463 72.8463 26.5226 72.9983 26.112L74.5932 21.8018Z" fill="black"/>
<path d="M10.5932 3.80176C11.0765 2.49583 12.9235 2.49583 13.4068 3.80176L15.0017 8.11205C15.1537 8.52263 15.4774 8.84634 15.888 8.99827L20.1982 10.5932C21.5042 11.0765 21.5042 12.9235 20.1982 13.4068L15.888 15.0017C15.4774 15.1537 15.1537 15.4774 15.0017 15.888L13.4068 20.1982C12.9235 21.5042 11.0765 21.5042 10.5932 20.1982L8.99827 15.888C8.84634 15.4774 8.52263 15.1537 8.11205 15.0017L3.80176 13.4068C2.49583 12.9235 2.49583 11.0765 3.80176 10.5932L8.11205 8.99827C8.52263 8.84634 8.84634 8.52263 8.99827 8.11205L10.5932 3.80176Z" fill="black"/>
</svg>
