<svg width="160" height="32" viewBox="0 0 160 32" fill="none" xmlns="http://www.w3.org/2000/svg">
<path d="M11.3113 11.712V24H6.00725V11.712H0.58325V7.488H16.7113V11.712H11.3113ZM19.1276 7.488H33.4076V11.448H24.4316V13.728H32.1116V17.52H24.4316V20.04H33.5756V24H19.1276V7.488ZM44.3199 7.2C46.7679 7.2 48.7039 7.816 50.1279 9.048C51.5519 10.264 52.2639 12.008 52.2639 14.28H47.1999C47.1999 13.32 46.9439 12.56 46.4319 12C45.9359 11.44 45.2239 11.16 44.2959 11.16C43.2239 11.16 42.4319 11.496 41.9199 12.168C41.4239 12.84 41.1759 13.776 41.1759 14.976V16.512C41.1759 17.696 41.4239 18.632 41.9199 19.32C42.4319 19.992 43.2079 20.328 44.2479 20.328C45.2719 20.328 46.0479 20.064 46.5759 19.536C47.1039 19.008 47.3679 18.264 47.3679 17.304H52.2639C52.2639 19.56 51.5679 21.288 50.1759 22.488C48.7999 23.688 46.8479 24.288 44.3199 24.288C41.5039 24.288 39.3679 23.568 37.9119 22.128C36.4719 20.688 35.7519 18.56 35.7519 15.744C35.7519 12.928 36.4719 10.8 37.9119 9.36C39.3679 7.92 41.5039 7.2 44.3199 7.2ZM66.2636 24V17.736H60.4316V24H55.1276V7.488H60.4316V13.512H66.2636V7.488H71.5676V24H66.2636ZM94.9199 24L87.9839 15.984V24H83.1119V7.488H87.7439L94.6799 15.624V7.488H99.5519V24H94.9199ZM103.104 7.488H117.384V11.448H108.408V13.728H116.088V17.52H108.408V20.04H117.552V24H103.104V7.488ZM132.832 24L130.696 13.944H130.6L128.464 24H122.632L118.768 7.488H124.288L126.184 16.848H126.28L128.152 7.488H133.384L135.376 16.848H135.472L137.248 7.488H142.528L138.664 24H132.832ZM151.36 7.2C153.472 7.2 155.208 7.632 156.568 8.496C157.928 9.344 158.624 10.608 158.656 12.288V12.576H153.688V12.48C153.688 12 153.512 11.6 153.16 11.28C152.808 10.96 152.272 10.8 151.552 10.8C150.848 10.8 150.304 10.904 149.92 11.112C149.552 11.32 149.368 11.576 149.368 11.88C149.368 12.312 149.624 12.632 150.136 12.84C150.648 13.048 151.472 13.264 152.608 13.488C153.936 13.76 155.024 14.048 155.872 14.352C156.736 14.64 157.488 15.12 158.128 15.792C158.768 16.464 159.096 17.376 159.112 18.528C159.112 20.48 158.448 21.928 157.12 22.872C155.808 23.816 154.048 24.288 151.84 24.288C149.264 24.288 147.256 23.856 145.816 22.992C144.392 22.128 143.68 20.6 143.68 18.408H148.696C148.696 19.24 148.912 19.8 149.344 20.088C149.776 20.36 150.448 20.496 151.36 20.496C152.032 20.496 152.584 20.424 153.016 20.28C153.464 20.136 153.688 19.84 153.688 19.392C153.688 18.992 153.44 18.696 152.944 18.504C152.464 18.296 151.672 18.08 150.568 17.856C149.224 17.568 148.112 17.272 147.232 16.968C146.352 16.648 145.584 16.128 144.928 15.408C144.272 14.688 143.944 13.712 143.944 12.48C143.944 10.672 144.64 9.344 146.032 8.496C147.44 7.632 149.216 7.2 151.36 7.2Z" fill="#60A5FA"/>
</svg>
