<svg width="48" height="48" viewBox="0 0 48 48" fill="none" xmlns="http://www.w3.org/2000/svg">
<path opacity="0.4" d="M44 24C44 35.0456 35.0456 44 24 44C12.9543 44 4 35.0456 4 24C4 12.9543 12.9543 4 24 4C35.0456 4 44 12.9543 44 24Z" fill="#F9A474"/>
<path d="M44 24C44 35.0456 35.0456 44 24 44C12.9543 44 4 35.0456 4 24C4 12.9543 12.9543 4 24 4C35.0456 4 44 12.9543 44 24Z" stroke="#F9A474" stroke-width="3"/>
<path d="M4 24C8.56062 28.8578 15.8217 32 24 32C32.1784 32 39.4394 28.8578 44 24" stroke="#F9A474" stroke-width="3"/>
<path d="M24 4V44" stroke="#F9A474" stroke-width="3" stroke-linecap="round" stroke-linejoin="round"/>
<path d="M10.3112 10C9.54776 13 10.0801 18 13.1324 22C16.3416 26.2056 18.3649 32 10.7386 38" stroke="#F9A474" stroke-width="3" stroke-linecap="round" stroke-linejoin="round"/>
<path d="M37.6888 10C38.4522 13 37.9198 18 34.8676 22C31.6584 26.2056 29.6352 32 37.2614 38" stroke="#F9A474" stroke-width="3" stroke-linecap="round" stroke-linejoin="round"/>
</svg>
