<svg width="48" height="48" viewBox="0 0 48 48" fill="none" xmlns="http://www.w3.org/2000/svg">
<path opacity="0.4" d="M40.2844 21.5912C43.215 19.5276 43.8788 15.5436 41.7686 12.6832C36.99 6.20556 28.0002 1.83413 20.984 7.88446C18.3267 10.1759 16.2119 12.9873 14.7982 16.2002L12.002 22.5548V23C12.002 28.5408 18.8547 34.9952 24.8112 36.9392C24.9388 36.9808 25.0686 37.0098 25.2014 37.0292C25.9714 36.462 26.8166 36.0076 27.8108 35.7656L37.7048 33.3564C42.7882 32.1186 44.0496 25.6486 39.7856 22.682L39.133 22.2408C39.6666 21.9726 40.0158 21.7804 40.2844 21.5912Z" fill="#F682A5"/>
<path d="M11.9652 22.4924C11.7911 27.9374 18.2073 34.6486 24.2232 36.7584M11.9652 22.4924C11.356 23.5378 5.13444 28.5254 5.02566 30.638C4.49852 34.8336 11.6266 42.7156 17.1227 42.9848C19.1751 43.276 22.022 39.8222 24.9078 37.2562C26.4972 35.8428 28.7878 35.5158 37.9566 33.2406C41.2838 32.6622 45.281 26.923 39.3554 22.0582M11.9652 22.4924C13.8216 18.09 17.031 9.5794 23.325 6.21856C25.881 4.7663 32.5198 3.42916 39.025 9.61354C41.263 11.4957 45.1424 15.6187 41.5316 20.369C39.1242 23.1746 35.4842 22.3624 35.1306 27.2146" stroke="#F682A5" stroke-width="3" stroke-linecap="round" stroke-linejoin="round"/>
</svg>
