<svg width="10" height="10" viewBox="0 0 10 10" fill="none" xmlns="http://www.w3.org/2000/svg">
<path fill-rule="evenodd" clip-rule="evenodd" d="M9.87754 1.02038C10.1425 1.50493 9.96454 2.11257 9.47998 2.37756C8.10863 3.12752 6.82076 4.69753 5.83744 6.20323C5.35808 6.93725 4.97349 7.62066 4.70899 8.12036C4.577 8.36972 4.47558 8.57205 4.40788 8.7105C4.37404 8.77969 4.34867 8.83283 4.33216 8.8678L4.3141 8.90633L4.31015 8.91485L4.30965 8.91595C4.15515 9.25365 3.82609 9.4782 3.45528 9.49867C3.08436 9.51914 2.73266 9.33231 2.54197 9.0135C2.23126 8.49403 1.73753 8.01982 1.27997 7.65807C1.05765 7.4823 0.85753 7.34372 0.714718 7.25017C0.643589 7.20358 0.587438 7.16865 0.550786 7.14636C0.53248 7.13522 0.519105 7.12728 0.511229 7.12265L0.504429 7.11866C0.0249384 6.84496 -0.142031 6.23442 0.131511 5.75478C0.405118 5.27503 1.01583 5.10792 1.49558 5.38153L1.00017 6.25019C1.49558 5.38153 1.49539 5.38142 1.49558 5.38153L1.49729 5.3825L1.49959 5.38382L1.50594 5.38749L1.52544 5.39888C1.5414 5.40827 1.56318 5.42123 1.59018 5.43766C1.64416 5.47049 1.71925 5.5173 1.81063 5.57716C1.99281 5.6965 2.2427 5.86964 2.52037 6.08918C2.73257 6.25696 2.96985 6.45869 3.20939 6.69111C3.46624 6.22973 3.78717 5.68499 4.1629 5.10965C5.17959 3.55285 6.69171 1.62286 8.52036 0.622817C9.00492 0.357824 9.61255 0.535817 9.87754 1.02038Z" fill="#8F8881"/>
</svg>
