<svg width="24" height="24" viewBox="0 0 24 24" fill="none" xmlns="http://www.w3.org/2000/svg">
<path fill-rule="evenodd" clip-rule="evenodd" d="M12.0572 1.75C14.2479 1.74999 15.9686 1.74998 17.312 1.93059C18.6886 2.11568 19.7809 2.50272 20.6391 3.36091C21.4973 4.21911 21.8843 5.31137 22.0694 6.68802C22.25 8.03144 22.25 9.75214 22.25 11.9428V12.0572C22.25 14.2479 22.25 15.9686 22.0694 17.312C21.8843 18.6886 21.4973 19.7809 20.6391 20.6391C19.7809 21.4973 18.6886 21.8843 17.312 22.0694C15.9686 22.25 14.2479 22.25 12.0572 22.25H11.9428C9.7521 22.25 8.03144 22.25 6.68802 22.0694C5.31137 21.8843 4.21911 21.4973 3.36091 20.6391C2.50272 19.7809 2.11568 18.6886 1.93059 17.312C1.74998 15.9686 1.74999 14.2479 1.75 12.0572V11.9428C1.74999 9.75211 1.74998 8.03144 1.93059 6.68802C2.11568 5.31137 2.50272 4.21911 3.36091 3.36091C4.21911 2.50272 5.31137 2.11568 6.68802 1.93059C8.03144 1.74998 9.75212 1.74999 11.9428 1.75H12.0572ZM16.8775 8.02038C17.1425 8.50493 16.9645 9.11257 16.48 9.37756C15.1086 10.1275 13.8208 11.6975 12.8374 13.2032C12.3581 13.9372 11.9735 14.6207 11.709 15.1204C11.577 15.3697 11.4756 15.5721 11.4079 15.7105L11.3096 15.9159C11.1551 16.2536 10.8261 16.4782 10.4553 16.4987C10.0844 16.5191 9.73267 16.3323 9.54198 16.0135C9.23126 15.494 8.73753 15.0198 8.27997 14.6581C8.05764 14.4823 7.85752 14.3437 7.71471 14.2502L7.50442 14.1187C7.02493 13.8449 6.85797 13.2344 7.13152 12.7548C7.40513 12.275 8.01585 12.1079 8.49559 12.3815L8.81063 12.5772C8.99282 12.6965 9.2427 12.8697 9.52038 13.0892C9.73258 13.257 9.96984 13.4587 10.2094 13.6911C10.4662 13.2297 10.7872 12.685 11.1629 12.1096C12.1796 10.5529 13.6917 8.62286 15.5204 7.62282C16.0049 7.35782 16.6125 7.53582 16.8775 8.02038Z" fill="#F3541C"/>
</svg>
