<svg width="48" height="48" viewBox="0 0 48 48" fill="none" xmlns="http://www.w3.org/2000/svg">
<path d="M44.002 24C44.002 35.0456 35.0476 44 24.002 44C12.9563 44 4.00195 35.0456 4.00195 24C4.00195 12.9543 12.9563 4 24.002 4C35.0476 4 44.002 12.9543 44.002 24Z" stroke="#C3B2E7" stroke-width="3"/>
<path opacity="0.4" fill-rule="evenodd" clip-rule="evenodd" d="M44.003 23.9998C44.003 29.2756 41.9602 34.0742 38.6226 37.648L31.2346 36.3108L28.7314 43.4376C27.2154 43.805 25.632 43.9998 24.003 43.9998C21.168 43.9998 18.4707 43.41 16.0273 42.3462L16.1057 34.3328L8.0095 34.4198H6.9284C5.32698 31.8012 4.311 28.7858 4.0625 25.5554L10.396 20.8774L7.11386 13.4407L7.07552 13.343C9.56584 9.39562 13.3987 6.38006 17.933 4.9375L18.0029 4.9998L24.036 9.24462L30.003 4.9998L30.08 4.93976C34.1532 6.23734 37.66 8.8045 40.1354 12.1761L40.0626 12.3915L37.6098 18.7794L43.9968 23.4966L43.9982 23.562C44.0014 23.7076 44.003 23.8536 44.003 23.9998ZM24.5876 18.6979C24.239 18.434 23.767 18.434 23.4184 18.6979L18.9129 22.108C18.5644 22.3718 18.4185 22.8394 18.5517 23.2664L20.2726 28.7842C20.4058 29.211 20.7876 29.5 21.2184 29.5H26.7876C27.2184 29.5 27.6002 29.211 27.7334 28.7842L29.4542 23.2664C29.5874 22.8394 29.4416 22.3718 29.093 22.108L24.5876 18.6979Z" fill="#C3B2E7"/>
<path d="M23.4174 18.6979C23.766 18.434 24.238 18.434 24.5866 18.6979L29.092 22.108C29.4406 22.3718 29.5864 22.8394 29.4532 23.2664L27.7324 28.7842C27.5992 29.211 27.2174 29.5 26.7866 29.5H21.2174C20.7866 29.5 20.4048 29.211 20.2716 28.7842L18.5507 23.2664C18.4176 22.8394 18.5634 22.3718 18.9119 22.108L23.4174 18.6979Z" stroke="#C3B2E7" stroke-width="3"/>
<path d="M24.002 18V10M30.002 22L38.002 19M28.002 30L32.002 36M20.002 29L16.002 34M18.002 23L10.002 21" stroke="#C3B2E7" stroke-width="3" stroke-linecap="round" stroke-linejoin="round"/>
<path d="M18.002 5L24.035 9.24482L30.002 5M4.00195 25.5996L10.3951 20.8776L7.11291 13.4409M38.9426 37.7062L31.2336 36.311L28.533 44M40.0616 12.3917L37.609 18.7796L44.002 23.5014M16.0218 42.8118L16.1048 34.333L8.00857 34.42" stroke="#C3B2E7" stroke-width="3" stroke-linejoin="round"/>
</svg>
