<svg width="24" height="24" viewBox="0 0 24 24" fill="none" xmlns="http://www.w3.org/2000/svg">
<path fill-rule="evenodd" clip-rule="evenodd" d="M12 22.75C6.06294 22.75 1.25 17.9371 1.25 12C1.25 6.06294 6.06294 1.25 12 1.25C17.9371 1.25 22.75 6.06294 22.75 12C22.75 17.9371 17.9371 22.75 12 22.75ZM16.48 9.37756C16.9645 9.11257 17.1425 8.50493 16.8775 8.02038C16.6125 7.53582 16.0049 7.35782 15.5204 7.62282C13.6917 8.62286 12.1796 10.5529 11.1629 12.1096C10.7872 12.685 10.4662 13.2297 10.2094 13.6911C9.96984 13.4587 9.73258 13.257 9.52038 13.0892C9.2427 12.8697 8.99282 12.6965 8.81063 12.5772L8.49559 12.3815C8.01585 12.1079 7.40513 12.275 7.13152 12.7548C6.85797 13.2344 7.02493 13.8449 7.50442 14.1187L7.71471 14.2502C7.85752 14.3437 8.05764 14.4823 8.27997 14.6581C8.73753 15.0198 9.23126 15.494 9.54198 16.0135C9.73267 16.3323 10.0844 16.5191 10.4553 16.4987C10.8261 16.4782 11.1551 16.2536 11.3096 15.9159L11.4079 15.7105C11.4756 15.5721 11.577 15.3697 11.709 15.1204C11.9735 14.6207 12.3581 13.9372 12.8374 13.2032C13.8208 11.6975 15.1086 10.1275 16.48 9.37756Z" fill="#F3541C"/>
</svg>
