<svg width="48" height="48" viewBox="0 0 48 48" fill="none" xmlns="http://www.w3.org/2000/svg">
<path opacity="0.4" d="M34 24C34 29.5228 29.5228 34 24 34C18.4772 34 14 29.5228 14 24C14 18.4772 18.4772 14 24 14C29.5228 14 34 18.4772 34 24Z" fill="#FEDF6F"/>
<path d="M34 24C34 29.5228 29.5228 34 24 34C18.4772 34 14 29.5228 14 24C14 18.4772 18.4772 14 24 14C29.5228 14 34 18.4772 34 24Z" stroke="#FEDF6F" stroke-width="3"/>
<path d="M24 4C23.2454 4.66666 22.189 6.4 24 8M24 40C24.7546 40.6666 25.811 42.4 24 44M39 9.00542C37.937 8.93964 35.8506 9.44586 36.0084 11.9969M10.9915 35C11.0573 36.063 10.5511 38.1494 8 37.9916M10.0054 9C9.93958 10.064 10.4463 12.1526 13 11.9946M36 35.0052C37.063 34.943 39.1494 35.4216 38.9916 37.8336M44 24C43.3334 23.2454 41.6 22.189 40 24M8 23C7.33334 23.7546 5.6 24.811 4 23" stroke="#FEDF6F" stroke-width="3" stroke-linecap="round"/>
</svg>
