<svg width="48" height="48" viewBox="0 0 48 48" fill="none" xmlns="http://www.w3.org/2000/svg">
<path opacity="0.4" d="M35 23C35 16.9249 30.0752 12 24 12C18.2465 12 13.5247 16.4172 13.0408 22.0454C7.96796 22.5282 4 26.8006 4 32C4 37.5228 8.47716 42 14 42H35C39.9706 42 44 37.9706 44 33C44 28.0294 39.9706 24 35 24L34.9552 24.0002C34.9848 23.6708 35 23.3372 35 23Z" fill="#B8CEDC"/>
<path d="M34.9552 24.0002C34.97 24 34.985 24 35 24C39.9706 24 44 28.0294 44 33C44 37.9706 39.9706 42 35 42H14C8.47716 42 4 37.5228 4 32C4 26.8006 7.96796 22.5282 13.0408 22.0454M34.9552 24.0002C34.9848 23.6708 35 23.3372 35 23C35 16.9249 30.0752 12 24 12C18.2465 12 13.5247 16.4172 13.0408 22.0454M34.9552 24.0002C34.7506 26.269 33.8572 28.3392 32.4856 30M13.0408 22.0454C13.3565 22.0154 13.6765 22 14 22C16.2516 22 18.3295 22.7442 20.001 24" stroke="#B8CEDC" stroke-width="3" stroke-linecap="round" stroke-linejoin="round"/>
<path d="M5.91878 20.3874C4.4373 14.9436 7.71844 9.34794 13.2474 7.88926M5.91878 20.3874L4 20.8936M5.91878 20.3874C6.28718 21.7412 6.9154 22.958 7.73646 24M13.2474 7.88926L12.7333 6M13.2474 7.88926C17.3335 6.81126 21.5036 8.29438 24 11.3392M6.953 12.6459L4.9288 11.4926M22.2814 6.9145L21.114 8.90988" stroke="#B8CEDC" stroke-width="3" stroke-linecap="round"/>
</svg>
