<svg width="48" height="48" viewBox="0 0 48 48" fill="none" xmlns="http://www.w3.org/2000/svg">
<path opacity="0.4" d="M21.4368 13.7217L30 31.9982C25.6666 31.9982 24.3478 29.7124 19.8261 27.4266C16.2087 25.5982 11.1594 25.9028 9.65218 26.2838L15.7148 21.9976C16.3317 21.5614 16.6402 21.3434 16.7387 21.0114C16.8373 20.6794 16.6979 20.3284 16.4189 19.6262L15.5704 17.49C15.2531 16.6912 15.0944 16.2918 14.8077 16.002C14.7078 15.9011 14.5974 15.8111 14.4784 15.7335C14.137 15.5109 13.7138 15.4358 12.8675 15.2857L6.3663 14.1322C4.9974 13.8894 4 12.6994 4 11.3091C4 9.56254 5.54836 8.22174 7.27702 8.4714L16.0686 9.74114C17.6521 9.96984 18.4438 10.0842 19.1042 10.4616C19.3795 10.619 19.6351 10.8085 19.8656 11.0262C20.4186 11.5485 20.758 12.2729 21.4368 13.7217Z" fill="#B8CEDC"/>
<path d="M21.4368 13.7217L30 31.9982C25.6666 31.9982 24.3478 29.7124 19.8261 27.4266C16.2087 25.5982 11.1594 25.9028 9.65218 26.2838L15.7148 21.9976C16.3317 21.5614 16.6402 21.3434 16.7387 21.0114C16.8373 20.6794 16.6979 20.3284 16.4189 19.6262L15.5704 17.49C15.2531 16.6912 15.0944 16.2918 14.8077 16.002C14.7078 15.9011 14.5974 15.8111 14.4784 15.7335C14.137 15.5109 13.7138 15.4358 12.8675 15.2857L6.3663 14.1322C4.9974 13.8894 4 12.6994 4 11.3091C4 9.56254 5.54836 8.22174 7.27702 8.4714L16.0686 9.74114C17.6521 9.96984 18.4438 10.0842 19.1042 10.4616C19.3795 10.619 19.6351 10.8085 19.8656 11.0262C20.4186 11.5485 20.758 12.2729 21.4368 13.7217Z" stroke="#B8CEDC" stroke-width="3" stroke-linecap="round" stroke-linejoin="round"/>
<path d="M38 26.0039C41.3137 26.0039 44 23.3176 44 20.0039C44 16.6902 41.3137 14.0039 38 14.0039C34.6863 14.0039 32 16.6902 32 20.0039C32 23.3176 34.6863 26.0039 38 26.0039Z" stroke="#B8CEDC" stroke-width="3" stroke-linecap="round" stroke-linejoin="round"/>
<path d="M4 36.1686C6.11112 29.1054 15.537 32.3472 23 36.1686C30.463 39.99 38 42.4216 42 36.1686" stroke="#B8CEDC" stroke-width="3" stroke-linecap="round" stroke-linejoin="round"/>
</svg>
