<svg width="48" height="48" viewBox="0 0 48 48" fill="none" xmlns="http://www.w3.org/2000/svg">
<path d="M44.002 24C44.002 35.0456 35.0476 44 24.002 44C12.9563 44 4.00195 35.0456 4.00195 24C4.00195 12.9543 12.9563 4 24.002 4C35.0476 4 44.002 12.9543 44.002 24Z" stroke="#FEDF6F" stroke-width="3"/>
<path opacity="0.4" d="M18.002 16.0017C22.176 12.2291 32.6542 10.2581 41.002 14.0304L41.4498 14.2181C43.075 17.1104 44.002 20.4478 44.002 24.0018C44.002 24.2324 43.998 24.462 43.9904 24.6908C43.9942 24.6942 43.9982 24.6978 44.002 24.7012L43.9878 24.7602C43.9888 24.737 43.9896 24.7138 43.9904 24.6908C41.7148 22.6346 38.2502 21.474 33.6738 21.4712L33.779 22.0018C34.9574 27.791 31.4308 38.3784 24.002 44.0018C19.8217 44.0018 15.9409 42.7192 12.7317 40.5262L14.002 40.0018C15.8911 39.1454 18.5429 37.217 20.565 34.3152L20.002 34.0018C14.7511 31.481 8.31869 21.9206 8.00195 12.0017L8.19139 11.7517C10.3153 9.01447 13.1343 6.84359 16.3835 5.50391L16.2429 6.00173C15.6655 8.09831 15.5367 12.1632 17.6478 16.3507L18.002 16.0017Z" fill="#FEDF6F"/>
<path d="M16.2429 6C15.3511 9.2381 15.5295 17.1714 23.377 23M23.377 23C33.261 20.34 40.252 21.3 44.002 24.6996M23.377 23C24.507 32.3762 17.752 38.3 14.002 40" stroke="#FEDF6F" stroke-width="3" stroke-linecap="round" stroke-linejoin="round"/>
<path d="M18.002 16.0001C22.176 12.2275 32.6542 10.2565 41.002 14.0288" stroke="#FEDF6F" stroke-width="3" stroke-linejoin="round"/>
<path d="M33.779 22C34.9574 27.7894 31.4308 38.3766 24.002 44" stroke="#FEDF6F" stroke-width="3" stroke-linejoin="round"/>
<path d="M20.002 34C14.7511 31.4792 8.31869 21.919 8.00195 12" stroke="#FEDF6F" stroke-width="3" stroke-linejoin="round"/>
</svg>
