<svg width="160" height="56" viewBox="0 0 160 56" fill="none" xmlns="http://www.w3.org/2000/svg">
<rect x="0.5" y="0.5" width="159" height="55" rx="7.5" fill="#09090B"/>
<rect x="0.5" y="0.5" width="159" height="55" rx="7.5" stroke="#A1A1AA"/>
<path d="M36.9829 42.7161C35.2409 44.4048 33.3389 44.1382 31.5081 43.3383C29.5705 42.5206 27.793 42.485 25.7488 43.3383C23.1891 44.4403 21.8382 44.1204 20.3095 42.7161C11.635 33.775 12.9148 20.159 22.7625 19.6613C25.1622 19.7857 26.8331 20.9766 28.2374 21.0833C30.3349 20.6567 32.3435 19.4302 34.5832 19.5902C37.2673 19.8035 39.2937 20.87 40.6269 22.7897C35.0809 26.1138 36.3963 33.4195 41.4801 35.4637C40.4669 38.13 39.1515 40.7786 36.9651 42.7339L36.9829 42.7161ZM28.0596 19.5546C27.793 15.5907 31.0103 12.32 34.7077 12C35.2231 16.5861 30.5482 19.999 28.0596 19.5546Z" fill="#F4F4F5"/>
<path d="M52.9588 21V12.2727H56.1548C56.7741 12.2727 57.2869 12.375 57.6932 12.5795C58.0994 12.7812 58.4034 13.0554 58.6051 13.402C58.8068 13.7457 58.9077 14.1335 58.9077 14.5653C58.9077 14.929 58.8409 15.2358 58.7074 15.4858C58.5739 15.733 58.3949 15.9318 58.1705 16.0824C57.9489 16.2301 57.7045 16.3381 57.4375 16.4062V16.4915C57.7273 16.5057 58.0099 16.5994 58.2855 16.7727C58.5639 16.9432 58.794 17.1861 58.9759 17.5014C59.1577 17.8168 59.2486 18.2003 59.2486 18.652C59.2486 19.098 59.1435 19.4986 58.9332 19.8537C58.7259 20.206 58.4048 20.4858 57.9702 20.6932C57.5355 20.8977 56.9801 21 56.304 21H52.9588ZM54.2756 19.8707H56.1761C56.8068 19.8707 57.2585 19.7486 57.5312 19.5043C57.804 19.2599 57.9403 18.9545 57.9403 18.5881C57.9403 18.3125 57.8707 18.0597 57.7315 17.8295C57.5923 17.5994 57.3935 17.4162 57.1349 17.2798C56.8793 17.1435 56.5753 17.0753 56.223 17.0753H54.2756V19.8707ZM54.2756 16.0483H56.0398C56.3352 16.0483 56.6009 15.9915 56.8366 15.8778C57.0753 15.7642 57.2642 15.6051 57.4034 15.4006C57.5455 15.1932 57.6165 14.9489 57.6165 14.6676C57.6165 14.3068 57.4901 14.0043 57.2372 13.7599C56.9844 13.5156 56.5966 13.3935 56.0739 13.3935H54.2756V16.0483ZM62.6129 21.1449C62.1982 21.1449 61.8232 21.0682 61.4879 20.9148C61.1527 20.7585 60.8871 20.5327 60.6911 20.2372C60.4979 19.9418 60.4013 19.5795 60.4013 19.1506C60.4013 18.7812 60.4723 18.4773 60.6143 18.2386C60.7564 18 60.9482 17.8111 61.1896 17.6719C61.4311 17.5327 61.701 17.4276 61.9993 17.3565C62.2976 17.2855 62.6016 17.2315 62.9112 17.1946C63.3033 17.1491 63.6214 17.1122 63.8658 17.0838C64.1101 17.0526 64.2876 17.0028 64.3984 16.9347C64.5092 16.8665 64.5646 16.7557 64.5646 16.6023V16.5724C64.5646 16.2003 64.4595 15.9119 64.2493 15.7074C64.0419 15.5028 63.7322 15.4006 63.3203 15.4006C62.8913 15.4006 62.5533 15.4957 62.3061 15.6861C62.0618 15.8736 61.8928 16.0824 61.799 16.3125L60.6016 16.0398C60.7436 15.642 60.951 15.321 61.2237 15.0767C61.4993 14.8295 61.8161 14.6506 62.174 14.5398C62.532 14.4261 62.9084 14.3693 63.3033 14.3693C63.5646 14.3693 63.8416 14.4006 64.1342 14.4631C64.4297 14.5227 64.7053 14.6335 64.9609 14.7955C65.2195 14.9574 65.4311 15.1889 65.5959 15.4901C65.7607 15.7884 65.843 16.1761 65.843 16.6534V21H64.5987V20.1051H64.5476C64.4652 20.2699 64.3416 20.4318 64.1768 20.5909C64.0121 20.75 63.8004 20.8821 63.5419 20.9872C63.2834 21.0923 62.9737 21.1449 62.6129 21.1449ZM62.8899 20.1222C63.2422 20.1222 63.5433 20.0526 63.7933 19.9134C64.0462 19.7741 64.2379 19.5923 64.3686 19.3679C64.5021 19.1406 64.5689 18.8977 64.5689 18.6392V17.7955C64.5234 17.8409 64.4354 17.8835 64.3047 17.9233C64.1768 17.9602 64.0305 17.9929 63.8658 18.0213C63.701 18.0469 63.5405 18.071 63.3842 18.0938C63.228 18.1136 63.0973 18.1307 62.9922 18.1449C62.745 18.1761 62.5192 18.2287 62.3146 18.3026C62.1129 18.3764 61.951 18.483 61.8288 18.6222C61.7095 18.7585 61.6499 18.9403 61.6499 19.1676C61.6499 19.483 61.7663 19.7216 61.9993 19.8835C62.2322 20.0426 62.5291 20.1222 62.8899 20.1222ZM67.5401 21V14.4545H68.8143V21H67.5401ZM68.1836 13.4446C67.962 13.4446 67.7717 13.3707 67.6126 13.223C67.4563 13.0724 67.3782 12.8935 67.3782 12.6861C67.3782 12.4759 67.4563 12.2969 67.6126 12.1491C67.7717 11.9986 67.962 11.9233 68.1836 11.9233C68.4052 11.9233 68.5941 11.9986 68.7504 12.1491C68.9094 12.2969 68.989 12.4759 68.989 12.6861C68.989 12.8935 68.9094 13.0724 68.7504 13.223C68.5941 13.3707 68.4052 13.4446 68.1836 13.4446ZM71.5341 14.4545L72.9787 17.0028L74.4361 14.4545H75.8295L73.7884 17.7273L75.8466 21H74.4531L72.9787 18.554L71.5085 21H70.1108L72.1477 17.7273L70.1364 14.4545H71.5341ZM79.0309 21.1449C78.6161 21.1449 78.2411 21.0682 77.9059 20.9148C77.5707 20.7585 77.305 20.5327 77.109 20.2372C76.9158 19.9418 76.8192 19.5795 76.8192 19.1506C76.8192 18.7812 76.8903 18.4773 77.0323 18.2386C77.1744 18 77.3661 17.8111 77.6076 17.6719C77.8491 17.5327 78.119 17.4276 78.4173 17.3565C78.7156 17.2855 79.0195 17.2315 79.3292 17.1946C79.7212 17.1491 80.0394 17.1122 80.2837 17.0838C80.5281 17.0526 80.7056 17.0028 80.8164 16.9347C80.9272 16.8665 80.9826 16.7557 80.9826 16.6023V16.5724C80.9826 16.2003 80.8775 15.9119 80.6673 15.7074C80.4599 15.5028 80.1502 15.4006 79.7383 15.4006C79.3093 15.4006 78.9712 15.4957 78.7241 15.6861C78.4798 15.8736 78.3107 16.0824 78.217 16.3125L77.0195 16.0398C77.1616 15.642 77.369 15.321 77.6417 15.0767C77.9173 14.8295 78.234 14.6506 78.592 14.5398C78.9499 14.4261 79.3263 14.3693 79.7212 14.3693C79.9826 14.3693 80.2596 14.4006 80.5522 14.4631C80.8477 14.5227 81.1232 14.6335 81.3789 14.7955C81.6374 14.9574 81.8491 15.1889 82.0138 15.4901C82.1786 15.7884 82.261 16.1761 82.261 16.6534V21H81.0167V20.1051H80.9656C80.8832 20.2699 80.7596 20.4318 80.5948 20.5909C80.43 20.75 80.2184 20.8821 79.9599 20.9872C79.7013 21.0923 79.3917 21.1449 79.0309 21.1449ZM79.3079 20.1222C79.6602 20.1222 79.9613 20.0526 80.2113 19.9134C80.4641 19.7741 80.6559 19.5923 80.7866 19.3679C80.9201 19.1406 80.9869 18.8977 80.9869 18.6392V17.7955C80.9414 17.8409 80.8533 17.8835 80.7227 17.9233C80.5948 17.9602 80.4485 17.9929 80.2837 18.0213C80.119 18.0469 79.9585 18.071 79.8022 18.0938C79.646 18.1136 79.5153 18.1307 79.4102 18.1449C79.163 18.1761 78.9371 18.2287 78.7326 18.3026C78.5309 18.3764 78.369 18.483 78.2468 18.6222C78.1275 18.7585 78.0678 18.9403 78.0678 19.1676C78.0678 19.483 78.1843 19.7216 78.4173 19.8835C78.6502 20.0426 78.9471 20.1222 79.3079 20.1222ZM83.9581 21V14.4545H85.1896V15.4943H85.2578C85.3771 15.142 85.5874 14.8651 85.8885 14.6634C86.1925 14.4588 86.5362 14.3565 86.9197 14.3565C86.9993 14.3565 87.093 14.3594 87.201 14.3651C87.3118 14.3707 87.3984 14.3778 87.4609 14.3864V15.6051C87.4098 15.5909 87.3189 15.5753 87.1882 15.5582C87.0575 15.5384 86.9268 15.5284 86.7962 15.5284C86.495 15.5284 86.2266 15.5923 85.9908 15.7202C85.7578 15.8452 85.5732 16.0199 85.4368 16.2443C85.3004 16.4659 85.2322 16.7187 85.2322 17.0028V21H83.9581ZM93.0135 17.1136V21H91.7393V14.4545H92.9624V15.5199H93.0433C93.1939 15.1733 93.4297 14.8949 93.7507 14.6847C94.0746 14.4744 94.4822 14.3693 94.9737 14.3693C95.4197 14.3693 95.8104 14.4631 96.1456 14.6506C96.4808 14.8352 96.7408 15.1108 96.9254 15.4773C97.1101 15.8437 97.2024 16.2969 97.2024 16.8366V21H95.9283V16.9901C95.9283 16.5156 95.8047 16.1449 95.5575 15.8778C95.3104 15.608 94.9709 15.473 94.5391 15.473C94.2436 15.473 93.9808 15.5369 93.7507 15.6648C93.5234 15.7926 93.343 15.9801 93.2095 16.2273C93.0788 16.4716 93.0135 16.767 93.0135 17.1136ZM100.816 21.1449C100.401 21.1449 100.026 21.0682 99.6911 20.9148C99.3558 20.7585 99.0902 20.5327 98.8942 20.2372C98.701 19.9418 98.6044 19.5795 98.6044 19.1506C98.6044 18.7812 98.6754 18.4773 98.8175 18.2386C98.9595 18 99.1513 17.8111 99.3928 17.6719C99.6342 17.5327 99.9041 17.4276 100.202 17.3565C100.501 17.2855 100.805 17.2315 101.114 17.1946C101.506 17.1491 101.825 17.1122 102.069 17.0838C102.313 17.0526 102.491 17.0028 102.602 16.9347C102.712 16.8665 102.768 16.7557 102.768 16.6023V16.5724C102.768 16.2003 102.663 15.9119 102.452 15.7074C102.245 15.5028 101.935 15.4006 101.523 15.4006C101.094 15.4006 100.756 15.4957 100.509 15.6861C100.265 15.8736 100.096 16.0824 100.002 16.3125L98.8047 16.0398C98.9467 15.642 99.1541 15.321 99.4268 15.0767C99.7024 14.8295 100.019 14.6506 100.377 14.5398C100.735 14.4261 101.112 14.3693 101.506 14.3693C101.768 14.3693 102.045 14.4006 102.337 14.4631C102.633 14.5227 102.908 14.6335 103.164 14.7955C103.423 14.9574 103.634 15.1889 103.799 15.4901C103.964 15.7884 104.046 16.1761 104.046 16.6534V21H102.802V20.1051H102.751C102.668 20.2699 102.545 20.4318 102.38 20.5909C102.215 20.75 102.004 20.8821 101.745 20.9872C101.487 21.0923 101.177 21.1449 100.816 21.1449ZM101.093 20.1222C101.445 20.1222 101.746 20.0526 101.996 19.9134C102.249 19.7741 102.441 19.5923 102.572 19.3679C102.705 19.1406 102.772 18.8977 102.772 18.6392V17.7955C102.727 17.8409 102.638 17.8835 102.508 17.9233C102.38 17.9602 102.234 17.9929 102.069 18.0213C101.904 18.0469 101.744 18.071 101.587 18.0938C101.431 18.1136 101.3 18.1307 101.195 18.1449C100.948 18.1761 100.722 18.2287 100.518 18.3026C100.316 18.3764 100.154 18.483 100.032 18.6222C99.9126 18.7585 99.853 18.9403 99.853 19.1676C99.853 19.483 99.9695 19.7216 100.202 19.8835C100.435 20.0426 100.732 20.1222 101.093 20.1222Z" fill="#A1A1AA"/>
<path d="M54.8267 42H52.4972L57.7315 27.4545H60.267L65.5014 42H63.1719L59.0597 30.0966H58.946L54.8267 42ZM55.2173 36.304H62.7741V38.1506H55.2173V36.304ZM67.4315 46.0909V31.0909H69.5053V32.8594H69.6829C69.806 32.6321 69.9835 32.3693 70.2156 32.071C70.4476 31.7727 70.7695 31.5123 71.1815 31.2898C71.5934 31.0625 72.1379 30.9489 72.815 30.9489C73.6957 30.9489 74.4817 31.1714 75.1729 31.6165C75.8642 32.0616 76.4064 32.7031 76.7994 33.5412C77.1971 34.3793 77.396 35.3878 77.396 36.5668C77.396 37.7457 77.1995 38.7566 76.8065 39.5994C76.4135 40.4375 75.8737 41.0838 75.1871 41.5384C74.5006 41.9882 73.717 42.2131 72.8363 42.2131C72.1734 42.2131 71.6313 42.1018 71.2099 41.8793C70.7932 41.6567 70.4665 41.3963 70.2298 41.098C69.993 40.7997 69.8107 40.5346 69.6829 40.3026H69.555V46.0909H67.4315ZM69.5124 36.5455C69.5124 37.3125 69.6237 37.9848 69.8462 38.5625C70.0688 39.1402 70.3907 39.5923 70.8121 39.919C71.2335 40.241 71.7496 40.402 72.3604 40.402C72.9949 40.402 73.5252 40.2339 73.9513 39.8977C74.3775 39.5568 74.6995 39.0952 74.9173 38.5128C75.1398 37.9304 75.2511 37.2746 75.2511 36.5455C75.2511 35.8258 75.1422 35.1795 74.9244 34.6065C74.7113 34.0336 74.3893 33.5814 73.9585 33.25C73.5323 32.9186 72.9996 32.7528 72.3604 32.7528C71.7449 32.7528 71.2241 32.9115 70.7979 33.2287C70.3765 33.5459 70.0569 33.9886 69.8391 34.5568C69.6213 35.125 69.5124 35.7879 69.5124 36.5455ZM79.7752 46.0909V31.0909H81.8491V32.8594H82.0266C82.1497 32.6321 82.3273 32.3693 82.5593 32.071C82.7913 31.7727 83.1133 31.5123 83.5252 31.2898C83.9371 31.0625 84.4817 30.9489 85.1587 30.9489C86.0394 30.9489 86.8254 31.1714 87.5167 31.6165C88.208 32.0616 88.7501 32.7031 89.1431 33.5412C89.5408 34.3793 89.7397 35.3878 89.7397 36.5668C89.7397 37.7457 89.5432 38.7566 89.1502 39.5994C88.7572 40.4375 88.2174 41.0838 87.5309 41.5384C86.8443 41.9882 86.0607 42.2131 85.18 42.2131C84.5172 42.2131 83.975 42.1018 83.5536 41.8793C83.137 41.6567 82.8103 41.3963 82.5735 41.098C82.3368 40.7997 82.1545 40.5346 82.0266 40.3026H81.8988V46.0909H79.7752ZM81.8562 36.5455C81.8562 37.3125 81.9674 37.9848 82.19 38.5625C82.4125 39.1402 82.7345 39.5923 83.1559 39.919C83.5773 40.241 84.0934 40.402 84.7042 40.402C85.3387 40.402 85.869 40.2339 86.2951 39.8977C86.7212 39.5568 87.0432 39.0952 87.261 38.5128C87.4835 37.9304 87.5948 37.2746 87.5948 36.5455C87.5948 35.8258 87.4859 35.1795 87.2681 34.6065C87.055 34.0336 86.7331 33.5814 86.3022 33.25C85.8761 32.9186 85.3434 32.7528 84.7042 32.7528C84.0887 32.7528 83.5678 32.9115 83.1417 33.2287C82.7203 33.5459 82.4007 33.9886 82.1829 34.5568C81.9651 35.125 81.8562 35.7879 81.8562 36.5455ZM105.516 31.2756C105.44 30.6032 105.127 30.0824 104.578 29.7131C104.029 29.339 103.338 29.152 102.504 29.152C101.908 29.152 101.392 29.2467 100.956 29.4361C100.52 29.6207 100.182 29.8764 99.9403 30.2031C99.7036 30.5251 99.5852 30.892 99.5852 31.304C99.5852 31.6496 99.6657 31.9479 99.8267 32.1989C99.9924 32.4498 100.208 32.6605 100.473 32.831C100.743 32.9967 101.032 33.1364 101.339 33.25C101.647 33.3589 101.943 33.4489 102.227 33.5199L103.648 33.8892C104.112 34.0028 104.588 34.1567 105.075 34.3509C105.563 34.545 106.015 34.8007 106.432 35.1179C106.848 35.4351 107.185 35.8281 107.44 36.2969C107.701 36.7656 107.831 37.3267 107.831 37.9801C107.831 38.804 107.618 39.5355 107.192 40.1747C106.77 40.8139 106.157 41.3182 105.352 41.6875C104.552 42.0568 103.584 42.2415 102.447 42.2415C101.358 42.2415 100.416 42.0687 99.6207 41.723C98.8253 41.3774 98.2027 40.8873 97.7528 40.2528C97.303 39.6136 97.0545 38.8561 97.0071 37.9801H99.2088C99.2514 38.5057 99.4219 38.9437 99.7202 39.294C100.023 39.6397 100.409 39.8977 100.878 40.0682C101.351 40.2339 101.87 40.3168 102.433 40.3168C103.054 40.3168 103.605 40.2197 104.088 40.0256C104.576 39.8267 104.959 39.5521 105.239 39.2017C105.518 38.8466 105.658 38.4323 105.658 37.9588C105.658 37.5279 105.535 37.1752 105.288 36.9006C105.047 36.6259 104.718 36.3987 104.301 36.2188C103.889 36.0388 103.423 35.8802 102.902 35.7429L101.183 35.2741C100.018 34.9569 99.0952 34.4905 98.4134 33.875C97.7363 33.2595 97.3977 32.4451 97.3977 31.4318C97.3977 30.5937 97.625 29.8622 98.0795 29.2372C98.5341 28.6122 99.1496 28.1269 99.9261 27.7812C100.703 27.4309 101.579 27.2557 102.554 27.2557C103.539 27.2557 104.408 27.4285 105.161 27.7741C105.918 28.1198 106.515 28.5956 106.95 29.2017C107.386 29.803 107.613 30.4943 107.632 31.2756H105.516ZM115.375 31.0909V32.7955H109.417V31.0909H115.375ZM111.015 28.4773H113.138V38.7969C113.138 39.2088 113.2 39.5189 113.323 39.7273C113.446 39.9309 113.605 40.0705 113.799 40.1463C113.998 40.2173 114.213 40.2528 114.445 40.2528C114.615 40.2528 114.765 40.241 114.892 40.2173C115.02 40.1937 115.12 40.1747 115.191 40.1605L115.574 41.9148C115.451 41.9621 115.276 42.0095 115.049 42.0568C114.821 42.1089 114.537 42.1373 114.196 42.142C113.638 42.1515 113.117 42.0521 112.634 41.8438C112.151 41.6354 111.76 41.3134 111.462 40.8778C111.164 40.4422 111.015 39.8954 111.015 39.2372V28.4773ZM122.202 42.2202C121.18 42.2202 120.287 41.9858 119.525 41.517C118.763 41.0483 118.171 40.3925 117.749 39.5497C117.328 38.7069 117.117 37.7221 117.117 36.5952C117.117 35.4635 117.328 34.474 117.749 33.6264C118.171 32.7789 118.763 32.1207 119.525 31.652C120.287 31.1832 121.18 30.9489 122.202 30.9489C123.225 30.9489 124.118 31.1832 124.88 31.652C125.642 32.1207 126.234 32.7789 126.656 33.6264C127.077 34.474 127.288 35.4635 127.288 36.5952C127.288 37.7221 127.077 38.7069 126.656 39.5497C126.234 40.3925 125.642 41.0483 124.88 41.517C124.118 41.9858 123.225 42.2202 122.202 42.2202ZM122.21 40.4375C122.872 40.4375 123.422 40.2623 123.857 39.9119C124.293 39.5616 124.615 39.0952 124.823 38.5128C125.036 37.9304 125.143 37.2888 125.143 36.5881C125.143 35.892 125.036 35.2528 124.823 34.6705C124.615 34.0833 124.293 33.6122 123.857 33.2571C123.422 32.902 122.872 32.7244 122.21 32.7244C121.542 32.7244 120.988 32.902 120.548 33.2571C120.112 33.6122 119.788 34.0833 119.575 34.6705C119.366 35.2528 119.262 35.892 119.262 36.5881C119.262 37.2888 119.366 37.9304 119.575 38.5128C119.788 39.0952 120.112 39.5616 120.548 39.9119C120.988 40.2623 121.542 40.4375 122.21 40.4375ZM129.658 42V31.0909H131.711V32.8239H131.824C132.023 32.2367 132.373 31.7751 132.875 31.4389C133.382 31.098 133.955 30.9276 134.594 30.9276C134.727 30.9276 134.883 30.9323 135.063 30.9418C135.248 30.9512 135.392 30.9631 135.496 30.9773V33.0085C135.411 32.9848 135.259 32.9588 135.042 32.9304C134.824 32.8973 134.606 32.8807 134.388 32.8807C133.886 32.8807 133.439 32.9872 133.046 33.2003C132.658 33.4086 132.35 33.6998 132.123 34.0739C131.895 34.4432 131.782 34.8646 131.782 35.3381V42H129.658ZM141.645 42.2202C140.57 42.2202 139.644 41.9905 138.868 41.5312C138.096 41.0672 137.5 40.4162 137.078 39.5781C136.661 38.7353 136.453 37.7481 136.453 36.6165C136.453 35.4991 136.661 34.5142 137.078 33.6619C137.5 32.8097 138.087 32.1444 138.839 31.6662C139.597 31.188 140.482 30.9489 141.496 30.9489C142.111 30.9489 142.708 31.0507 143.286 31.2543C143.863 31.4579 144.382 31.7775 144.841 32.2131C145.3 32.6487 145.662 33.2145 145.928 33.9105C146.193 34.6018 146.325 35.4422 146.325 36.4318V37.1847H137.653V35.5938H144.244C144.244 35.035 144.131 34.5402 143.903 34.1094C143.676 33.6738 143.357 33.3305 142.945 33.0795C142.537 32.8286 142.059 32.7031 141.51 32.7031C140.913 32.7031 140.393 32.8499 139.947 33.1435C139.507 33.4323 139.166 33.8111 138.925 34.2798C138.688 34.7438 138.57 35.2481 138.57 35.7926V37.0355C138.57 37.7647 138.697 38.3849 138.953 38.8963C139.214 39.4077 139.576 39.7983 140.04 40.0682C140.504 40.3333 141.046 40.4659 141.666 40.4659C142.069 40.4659 142.436 40.4091 142.767 40.2955C143.098 40.1771 143.385 40.0019 143.626 39.7699C143.868 39.5379 144.053 39.2514 144.18 38.9105L146.19 39.2727C146.029 39.8646 145.741 40.383 145.324 40.8281C144.912 41.2685 144.393 41.6117 143.768 41.858C143.148 42.0994 142.44 42.2202 141.645 42.2202Z" fill="#F4F4F5"/>
</svg>
