<svg width="178" height="56" viewBox="0 0 178 56" fill="none" xmlns="http://www.w3.org/2000/svg">
<rect x="0.5" y="0.5" width="177" height="55" rx="7.5" fill="#09090B"/>
<rect x="0.5" y="0.5" width="177" height="55" rx="7.5" stroke="#A1A1AA"/>
<g clip-path="url(#clip0_2154_721)">
<path d="M14.817 12L30.8123 28L14.8186 44C14.5342 43.8804 14.2915 43.6794 14.121 43.4223C13.9505 43.1652 13.8598 42.8634 13.8604 42.5549V13.4467C13.8602 13.1383 13.9508 12.8366 14.121 12.5794C14.2911 12.3221 14.5332 12.1206 14.817 12ZM31.9229 29.1105L35.5388 32.7265L18.3591 42.6743L31.9229 29.1105ZM36.9478 24.0872L41.357 26.6413C41.595 26.7794 41.7926 26.9775 41.9299 27.216C42.0673 27.4545 42.1396 27.7248 42.1396 28C42.1396 28.2752 42.0673 28.5455 41.9299 28.784C41.7926 29.0225 41.595 29.2206 41.357 29.3587L36.9462 31.9128L33.0334 28L36.9478 24.0872ZM18.3591 13.3257L35.5404 23.2719L31.9229 26.8895L18.3591 13.3257Z" fill="#F4F4F5"/>
</g>
<path d="M55.7841 21H52.9588V12.2727H55.8736C56.7287 12.2727 57.4631 12.4474 58.0767 12.7969C58.6903 13.1435 59.1605 13.642 59.4872 14.2926C59.8168 14.9403 59.9815 15.7173 59.9815 16.6236C59.9815 17.5327 59.8153 18.3139 59.483 18.9673C59.1534 19.6207 58.6761 20.1236 58.0511 20.4759C57.4261 20.8253 56.6705 21 55.7841 21ZM54.2756 19.8494H55.7116C56.3764 19.8494 56.929 19.7244 57.3693 19.4744C57.8097 19.2216 58.1392 18.8565 58.358 18.3793C58.5767 17.8991 58.6861 17.3139 58.6861 16.6236C58.6861 15.9389 58.5767 15.358 58.358 14.8807C58.142 14.4034 57.8196 14.0412 57.3906 13.794C56.9616 13.5469 56.429 13.4233 55.7926 13.4233H54.2756V19.8494ZM61.5167 21V14.4545H62.7908V21H61.5167ZM62.1602 13.4446C61.9386 13.4446 61.7482 13.3707 61.5891 13.223C61.4329 13.0724 61.3548 12.8935 61.3548 12.6861C61.3548 12.4759 61.4329 12.2969 61.5891 12.1491C61.7482 11.9986 61.9386 11.9233 62.1602 11.9233C62.3817 11.9233 62.5707 11.9986 62.7269 12.1491C62.886 12.2969 62.9656 12.4759 62.9656 12.6861C62.9656 12.8935 62.886 13.0724 62.7269 13.223C62.5707 13.3707 62.3817 13.4446 62.1602 13.4446ZM69.4098 16.0526L68.255 16.2571C68.2067 16.1094 68.13 15.9687 68.0249 15.8352C67.9226 15.7017 67.7834 15.5923 67.6072 15.5071C67.4311 15.4219 67.2109 15.3793 66.9467 15.3793C66.5859 15.3793 66.2848 15.4602 66.0433 15.6222C65.8018 15.7812 65.6811 15.9872 65.6811 16.2401C65.6811 16.4588 65.7621 16.6349 65.924 16.7685C66.0859 16.902 66.3473 17.0114 66.7081 17.0966L67.7479 17.3352C68.3501 17.4744 68.799 17.6889 69.0945 17.9787C69.3899 18.2685 69.5376 18.6449 69.5376 19.108C69.5376 19.5 69.424 19.8494 69.1967 20.1562C68.9723 20.4602 68.6584 20.6989 68.255 20.8722C67.8544 21.0455 67.3899 21.1321 66.8615 21.1321C66.1286 21.1321 65.5305 20.9759 65.0675 20.6634C64.6044 20.348 64.3203 19.9006 64.2152 19.321L65.4467 19.1335C65.5234 19.4545 65.6811 19.6974 65.9197 19.8622C66.1584 20.0241 66.4695 20.1051 66.853 20.1051C67.2706 20.1051 67.6044 20.0185 67.8544 19.8452C68.1044 19.669 68.2294 19.4545 68.2294 19.2017C68.2294 18.9972 68.1527 18.8253 67.9993 18.6861C67.8487 18.5469 67.6172 18.4418 67.3047 18.3707L66.1967 18.1278C65.5859 17.9886 65.1342 17.767 64.8416 17.4631C64.5518 17.1591 64.407 16.7741 64.407 16.3082C64.407 15.9219 64.5149 15.5838 64.7308 15.294C64.9467 15.0043 65.245 14.7784 65.6257 14.6165C66.0064 14.4517 66.4425 14.3693 66.9339 14.3693C67.6413 14.3693 68.1982 14.5227 68.6044 14.8295C69.0107 15.1335 69.2791 15.5412 69.4098 16.0526ZM70.9386 23.4545V14.4545H72.1829V15.5156H72.2894C72.3633 15.3793 72.4698 15.2216 72.609 15.0426C72.7482 14.8636 72.9414 14.7074 73.1886 14.5739C73.4357 14.4375 73.7624 14.3693 74.1687 14.3693C74.6971 14.3693 75.1687 14.5028 75.5835 14.7699C75.9982 15.0369 76.3235 15.4219 76.5593 15.9247C76.7979 16.4276 76.9173 17.0327 76.9173 17.7401C76.9173 18.4474 76.7994 19.054 76.5636 19.5597C76.3278 20.0625 76.0039 20.4503 75.592 20.723C75.18 20.9929 74.7099 21.1278 74.1815 21.1278C73.7837 21.1278 73.4585 21.0611 73.2056 20.9276C72.9556 20.794 72.7596 20.6378 72.6175 20.4588C72.4755 20.2798 72.3661 20.1207 72.2894 19.9815H72.2127V23.4545H70.9386ZM72.1871 17.7273C72.1871 18.1875 72.2539 18.5909 72.3874 18.9375C72.521 19.2841 72.7141 19.5554 72.967 19.7514C73.2198 19.9446 73.5295 20.0412 73.896 20.0412C74.2766 20.0412 74.5948 19.9403 74.8505 19.7386C75.1062 19.5341 75.2994 19.2571 75.43 18.9077C75.5636 18.5582 75.6303 18.1648 75.6303 17.7273C75.6303 17.2955 75.565 16.9077 75.4343 16.5639C75.3065 16.2202 75.1133 15.9489 74.8548 15.75C74.5991 15.5511 74.2795 15.4517 73.896 15.4517C73.5266 15.4517 73.2141 15.5469 72.9585 15.7372C72.7056 15.9276 72.5138 16.1932 72.3832 16.5341C72.2525 16.875 72.1871 17.2727 72.1871 17.7273ZM81.1019 21.1321C80.4883 21.1321 79.9528 20.9915 79.4954 20.7102C79.038 20.429 78.6829 20.0355 78.43 19.5298C78.1772 19.0241 78.0508 18.4332 78.0508 17.7571C78.0508 17.0781 78.1772 16.4844 78.43 15.9759C78.6829 15.4673 79.038 15.0724 79.4954 14.7912C79.9528 14.5099 80.4883 14.3693 81.1019 14.3693C81.7156 14.3693 82.2511 14.5099 82.7085 14.7912C83.1658 15.0724 83.521 15.4673 83.7738 15.9759C84.0266 16.4844 84.1531 17.0781 84.1531 17.7571C84.1531 18.4332 84.0266 19.0241 83.7738 19.5298C83.521 20.0355 83.1658 20.429 82.7085 20.7102C82.2511 20.9915 81.7156 21.1321 81.1019 21.1321ZM81.1062 20.0625C81.5039 20.0625 81.8335 19.9574 82.0948 19.7472C82.3562 19.5369 82.5494 19.2571 82.6744 18.9077C82.8022 18.5582 82.8661 18.1733 82.8661 17.7528C82.8661 17.3352 82.8022 16.9517 82.6744 16.6023C82.5494 16.25 82.3562 15.9673 82.0948 15.7543C81.8335 15.5412 81.5039 15.4347 81.1062 15.4347C80.7056 15.4347 80.3732 15.5412 80.109 15.7543C79.8477 15.9673 79.6531 16.25 79.5252 16.6023C79.4002 16.9517 79.3377 17.3352 79.3377 17.7528C79.3377 18.1733 79.4002 18.5582 79.5252 18.9077C79.6531 19.2571 79.8477 19.5369 80.109 19.7472C80.3732 19.9574 80.7056 20.0625 81.1062 20.0625ZM86.8494 17.1136V21H85.5753V14.4545H86.7983V15.5199H86.8793C87.0298 15.1733 87.2656 14.8949 87.5866 14.6847C87.9105 14.4744 88.3182 14.3693 88.8097 14.3693C89.2557 14.3693 89.6463 14.4631 89.9815 14.6506C90.3168 14.8352 90.5767 15.1108 90.7614 15.4773C90.946 15.8437 91.0384 16.2969 91.0384 16.8366V21H89.7642V16.9901C89.7642 16.5156 89.6406 16.1449 89.3935 15.8778C89.1463 15.608 88.8068 15.473 88.375 15.473C88.0795 15.473 87.8168 15.5369 87.5866 15.6648C87.3594 15.7926 87.179 15.9801 87.0455 16.2273C86.9148 16.4716 86.8494 16.767 86.8494 17.1136ZM92.7472 21V14.4545H94.0213V21H92.7472ZM92.8665 13.581L93.8636 11.6165H95.206L93.8849 13.581H92.8665ZM101.335 14.4545L98.9613 21H97.5977L95.2198 14.4545H96.5877L98.2454 19.4915H98.3136L99.967 14.4545H101.335ZM105.131 21.1321C104.486 21.1321 103.93 20.9943 103.464 20.7188C103.001 20.4403 102.643 20.0497 102.391 19.5469C102.141 19.0412 102.016 18.4489 102.016 17.7699C102.016 17.0994 102.141 16.5085 102.391 15.9972C102.643 15.4858 102.996 15.0866 103.447 14.7997C103.902 14.5128 104.433 14.3693 105.041 14.3693C105.411 14.3693 105.768 14.4304 106.115 14.5526C106.462 14.6747 106.773 14.8665 107.048 15.1278C107.324 15.3892 107.541 15.7287 107.7 16.1463C107.859 16.5611 107.939 17.0653 107.939 17.6591V18.1108H102.736V17.1562H106.69C106.69 16.821 106.622 16.5241 106.486 16.2656C106.349 16.0043 106.158 15.7983 105.911 15.6477C105.666 15.4972 105.379 15.4219 105.05 15.4219C104.692 15.4219 104.379 15.5099 104.112 15.6861C103.848 15.8594 103.643 16.0866 103.499 16.3679C103.357 16.6463 103.286 16.9489 103.286 17.2756V18.0213C103.286 18.4588 103.362 18.831 103.516 19.1378C103.672 19.4446 103.889 19.679 104.168 19.8409C104.446 20 104.771 20.0795 105.143 20.0795C105.385 20.0795 105.605 20.0455 105.804 19.9773C106.003 19.9062 106.175 19.8011 106.32 19.6619C106.464 19.5227 106.575 19.3509 106.652 19.1463L107.858 19.3636C107.761 19.7187 107.588 20.0298 107.338 20.2969C107.091 20.5611 106.78 20.767 106.405 20.9148C106.033 21.0597 105.608 21.1321 105.131 21.1321ZM110.627 12.2727V21H109.353V12.2727H110.627ZM116.791 17.1136V21H115.517V14.4545H116.74V15.5199H116.821C116.971 15.1733 117.207 14.8949 117.528 14.6847C117.852 14.4744 118.26 14.3693 118.751 14.3693C119.197 14.3693 119.588 14.4631 119.923 14.6506C120.258 14.8352 120.518 15.1108 120.703 15.4773C120.887 15.8437 120.98 16.2969 120.98 16.8366V21H119.706V16.9901C119.706 16.5156 119.582 16.1449 119.335 15.8778C119.088 15.608 118.748 15.473 118.316 15.473C118.021 15.473 117.758 15.5369 117.528 15.6648C117.301 15.7926 117.12 15.9801 116.987 16.2273C116.856 16.4716 116.791 16.767 116.791 17.1136ZM125.446 21.1321C124.832 21.1321 124.297 20.9915 123.839 20.7102C123.382 20.429 123.027 20.0355 122.774 19.5298C122.521 19.0241 122.395 18.4332 122.395 17.7571C122.395 17.0781 122.521 16.4844 122.774 15.9759C123.027 15.4673 123.382 15.0724 123.839 14.7912C124.297 14.5099 124.832 14.3693 125.446 14.3693C126.059 14.3693 126.595 14.5099 127.052 14.7912C127.51 15.0724 127.865 15.4673 128.118 15.9759C128.37 16.4844 128.497 17.0781 128.497 17.7571C128.497 18.4332 128.37 19.0241 128.118 19.5298C127.865 20.0355 127.51 20.429 127.052 20.7102C126.595 20.9915 126.059 21.1321 125.446 21.1321ZM125.45 20.0625C125.848 20.0625 126.177 19.9574 126.439 19.7472C126.7 19.5369 126.893 19.2571 127.018 18.9077C127.146 18.5582 127.21 18.1733 127.21 17.7528C127.21 17.3352 127.146 16.9517 127.018 16.6023C126.893 16.25 126.7 15.9673 126.439 15.7543C126.177 15.5412 125.848 15.4347 125.45 15.4347C125.049 15.4347 124.717 15.5412 124.453 15.7543C124.191 15.9673 123.997 16.25 123.869 16.6023C123.744 16.9517 123.681 17.3352 123.681 17.7528C123.681 18.1733 123.744 18.5582 123.869 18.9077C123.997 19.2571 124.191 19.5369 124.453 19.7472C124.717 19.9574 125.049 20.0625 125.45 20.0625Z" fill="#A1A1AA"/>
<path d="M63.4418 32.0497C63.3045 31.6188 63.1198 31.233 62.8878 30.892C62.6605 30.5464 62.3883 30.2528 62.071 30.0114C61.7538 29.7652 61.3916 29.5781 60.9844 29.4503C60.5819 29.3224 60.1392 29.2585 59.6562 29.2585C58.8371 29.2585 58.0985 29.4692 57.4403 29.8906C56.7822 30.312 56.2614 30.9299 55.8778 31.7443C55.4991 32.554 55.3097 33.5459 55.3097 34.7202C55.3097 35.8991 55.5014 36.8958 55.8849 37.7102C56.2685 38.5246 56.794 39.1425 57.4616 39.5639C58.1293 39.9853 58.8892 40.196 59.7415 40.196C60.5322 40.196 61.2211 40.035 61.8082 39.7131C62.4001 39.3911 62.857 38.9366 63.179 38.3494C63.5057 37.7576 63.669 37.0616 63.669 36.2614L64.2372 36.3679H60.0753V34.5568H65.7926V36.2116C65.7926 37.4332 65.5322 38.4938 65.0114 39.3935C64.4953 40.2884 63.7803 40.9796 62.8665 41.4673C61.9574 41.955 60.9157 42.1989 59.7415 42.1989C58.4252 42.1989 57.2699 41.8958 56.2756 41.2898C55.286 40.6837 54.5142 39.8243 53.9602 38.7116C53.4063 37.5942 53.1293 36.2685 53.1293 34.7344C53.1293 33.5743 53.2902 32.5327 53.6122 31.6094C53.9342 30.6861 54.3864 29.9025 54.9688 29.2585C55.5559 28.6098 56.2448 28.1151 57.0355 27.7741C57.831 27.4285 58.6998 27.2557 59.642 27.2557C60.428 27.2557 61.1596 27.3717 61.8366 27.6037C62.5185 27.8357 63.1245 28.1648 63.6548 28.5909C64.1899 29.017 64.6326 29.5237 64.983 30.1108C65.3333 30.6932 65.5701 31.3395 65.6932 32.0497H63.4418ZM73.0032 42.2202C71.9805 42.2202 71.0879 41.9858 70.3256 41.517C69.5633 41.0483 68.9715 40.3925 68.5501 39.5497C68.1287 38.7069 67.918 37.7221 67.918 36.5952C67.918 35.4635 68.1287 34.474 68.5501 33.6264C68.9715 32.7789 69.5633 32.1207 70.3256 31.652C71.0879 31.1832 71.9805 30.9489 73.0032 30.9489C74.0259 30.9489 74.9184 31.1832 75.6808 31.652C76.4431 32.1207 77.0349 32.7789 77.4563 33.6264C77.8777 34.474 78.0884 35.4635 78.0884 36.5952C78.0884 37.7221 77.8777 38.7069 77.4563 39.5497C77.0349 40.3925 76.4431 41.0483 75.6808 41.517C74.9184 41.9858 74.0259 42.2202 73.0032 42.2202ZM73.0103 40.4375C73.6732 40.4375 74.2224 40.2623 74.658 39.9119C75.0936 39.5616 75.4156 39.0952 75.6239 38.5128C75.837 37.9304 75.9435 37.2888 75.9435 36.5881C75.9435 35.892 75.837 35.2528 75.6239 34.6705C75.4156 34.0833 75.0936 33.6122 74.658 33.2571C74.2224 32.902 73.6732 32.7244 73.0103 32.7244C72.3427 32.7244 71.7887 32.902 71.3484 33.2571C70.9128 33.6122 70.5884 34.0833 70.3754 34.6705C70.167 35.2528 70.0629 35.892 70.0629 36.5881C70.0629 37.2888 70.167 37.9304 70.3754 38.5128C70.5884 39.0952 70.9128 39.5616 71.3484 39.9119C71.7887 40.2623 72.3427 40.4375 73.0103 40.4375ZM85.054 42.2202C84.0313 42.2202 83.1387 41.9858 82.3764 41.517C81.6141 41.0483 81.0223 40.3925 80.6009 39.5497C80.1795 38.7069 79.9688 37.7221 79.9688 36.5952C79.9688 35.4635 80.1795 34.474 80.6009 33.6264C81.0223 32.7789 81.6141 32.1207 82.3764 31.652C83.1387 31.1832 84.0313 30.9489 85.054 30.9489C86.0767 30.9489 86.9692 31.1832 87.7315 31.652C88.4938 32.1207 89.0857 32.7789 89.5071 33.6264C89.9285 34.474 90.1392 35.4635 90.1392 36.5952C90.1392 37.7221 89.9285 38.7069 89.5071 39.5497C89.0857 40.3925 88.4938 41.0483 87.7315 41.517C86.9692 41.9858 86.0767 42.2202 85.054 42.2202ZM85.0611 40.4375C85.724 40.4375 86.2732 40.2623 86.7088 39.9119C87.1444 39.5616 87.4664 39.0952 87.6747 38.5128C87.8878 37.9304 87.9943 37.2888 87.9943 36.5881C87.9943 35.892 87.8878 35.2528 87.6747 34.6705C87.4664 34.0833 87.1444 33.6122 86.7088 33.2571C86.2732 32.902 85.724 32.7244 85.0611 32.7244C84.3935 32.7244 83.8395 32.902 83.3991 33.2571C82.9635 33.6122 82.6392 34.0833 82.4261 34.6705C82.2178 35.2528 82.1136 35.892 82.1136 36.5881C82.1136 37.2888 82.2178 37.9304 82.4261 38.5128C82.6392 39.0952 82.9635 39.5616 83.3991 39.9119C83.8395 40.2623 84.3935 40.4375 85.0611 40.4375ZM97.0835 46.3182C96.217 46.3182 95.4712 46.2045 94.8462 45.9773C94.226 45.75 93.7193 45.4493 93.3263 45.0753C92.9334 44.7012 92.6398 44.2917 92.4457 43.8466L94.271 43.0938C94.3988 43.3021 94.5692 43.5223 94.7823 43.7543C95.0001 43.991 95.2937 44.1922 95.663 44.358C96.0371 44.5237 96.5176 44.6065 97.1048 44.6065C97.9097 44.6065 98.5749 44.41 99.1005 44.017C99.6261 43.6288 99.8888 43.0085 99.8888 42.1562V40.0114H99.7539C99.6261 40.2434 99.4414 40.5014 99.1999 40.7855C98.9632 41.0696 98.6365 41.3158 98.2198 41.5241C97.8031 41.7325 97.261 41.8366 96.5934 41.8366C95.7317 41.8366 94.9551 41.6354 94.2638 41.233C93.5773 40.8258 93.0328 40.2268 92.6303 39.4361C92.2326 38.6406 92.0337 37.6629 92.0337 36.5028C92.0337 35.3428 92.2302 34.3485 92.6232 33.5199C93.021 32.6913 93.5655 32.0568 94.2567 31.6165C94.948 31.1714 95.7317 30.9489 96.6076 30.9489C97.2847 30.9489 97.8316 31.0625 98.2482 31.2898C98.6649 31.5123 98.9892 31.7727 99.2212 32.071C99.458 32.3693 99.6403 32.6321 99.7681 32.8594H99.9244V31.0909H102.005V42.2415C102.005 43.179 101.788 43.9484 101.352 44.5497C100.916 45.151 100.327 45.5961 99.5835 45.8849C98.8448 46.1738 98.0115 46.3182 97.0835 46.3182ZM97.0621 40.0753C97.6729 40.0753 98.189 39.9332 98.6104 39.6491C99.0366 39.3603 99.3585 38.9484 99.5763 38.4134C99.7989 37.8736 99.9102 37.2273 99.9102 36.4744C99.9102 35.7405 99.8013 35.0942 99.5835 34.5355C99.3656 33.9768 99.046 33.5412 98.6246 33.2287C98.2032 32.9115 97.6824 32.7528 97.0621 32.7528C96.4229 32.7528 95.8903 32.9186 95.4641 33.25C95.038 33.5767 94.716 34.0218 94.4982 34.5852C94.2852 35.1487 94.1786 35.7784 94.1786 36.4744C94.1786 37.1894 94.2875 37.8168 94.5053 38.3565C94.7231 38.8963 95.0451 39.3177 95.4712 39.6207C95.9021 39.9238 96.4324 40.0753 97.0621 40.0753ZM106.977 27.4545V42H104.853V27.4545H106.977ZM114.536 42.2202C113.461 42.2202 112.535 41.9905 111.759 41.5312C110.987 41.0672 110.39 40.4162 109.969 39.5781C109.552 38.7353 109.344 37.7481 109.344 36.6165C109.344 35.4991 109.552 34.5142 109.969 33.6619C110.39 32.8097 110.977 32.1444 111.73 31.6662C112.488 31.188 113.373 30.9489 114.386 30.9489C115.002 30.9489 115.598 31.0507 116.176 31.2543C116.754 31.4579 117.272 31.7775 117.732 32.2131C118.191 32.6487 118.553 33.2145 118.818 33.9105C119.083 34.6018 119.216 35.4422 119.216 36.4318V37.1847H110.544V35.5938H117.135C117.135 35.035 117.021 34.5402 116.794 34.1094C116.567 33.6738 116.247 33.3305 115.835 33.0795C115.428 32.8286 114.95 32.7031 114.401 32.7031C113.804 32.7031 113.283 32.8499 112.838 33.1435C112.398 33.4323 112.057 33.8111 111.815 34.2798C111.579 34.7438 111.46 35.2481 111.46 35.7926V37.0355C111.46 37.7647 111.588 38.3849 111.844 38.8963C112.104 39.4077 112.466 39.7983 112.93 40.0682C113.394 40.3333 113.937 40.4659 114.557 40.4659C114.959 40.4659 115.326 40.4091 115.658 40.2955C115.989 40.1771 116.276 40.0019 116.517 39.7699C116.759 39.5379 116.943 39.2514 117.071 38.9105L119.081 39.2727C118.92 39.8646 118.631 40.383 118.214 40.8281C117.803 41.2685 117.284 41.6117 116.659 41.858C116.039 42.0994 115.331 42.2202 114.536 42.2202ZM127.036 42V27.4545H132.22C133.352 27.4545 134.289 27.6605 135.033 28.0724C135.776 28.4844 136.332 29.0478 136.702 29.7628C137.071 30.473 137.256 31.2732 137.256 32.1634C137.256 33.0582 137.069 33.8632 136.695 34.5781C136.325 35.2884 135.767 35.8518 135.018 36.2685C134.275 36.6804 133.34 36.8864 132.213 36.8864H128.648V35.0256H132.014C132.729 35.0256 133.309 34.9025 133.754 34.6562C134.199 34.4053 134.526 34.0644 134.734 33.6335C134.943 33.2027 135.047 32.7126 135.047 32.1634C135.047 31.6141 134.943 31.1264 134.734 30.7003C134.526 30.2741 134.197 29.9403 133.747 29.6989C133.302 29.4574 132.715 29.3366 131.986 29.3366H129.23V42H127.036ZM141.782 27.4545V42H139.658V27.4545H141.782ZM147.813 42.2415C147.122 42.2415 146.497 42.1136 145.938 41.858C145.379 41.5975 144.937 41.2211 144.61 40.7287C144.288 40.2363 144.127 39.6326 144.127 38.9176C144.127 38.3021 144.246 37.7955 144.482 37.3977C144.719 37 145.039 36.6851 145.441 36.4531C145.844 36.2211 146.293 36.0459 146.79 35.9276C147.288 35.8092 147.794 35.7192 148.31 35.6577C148.964 35.5819 149.494 35.5204 149.901 35.473C150.308 35.4209 150.604 35.3381 150.789 35.2244C150.974 35.1108 151.066 34.9261 151.066 34.6705V34.6207C151.066 34.0005 150.891 33.5199 150.54 33.179C150.195 32.8381 149.679 32.6676 148.992 32.6676C148.277 32.6676 147.714 32.8262 147.302 33.1435C146.895 33.456 146.613 33.804 146.457 34.1875L144.461 33.733C144.698 33.0701 145.043 32.535 145.498 32.1278C145.957 31.7159 146.485 31.4176 147.082 31.233C147.678 31.0436 148.306 30.9489 148.964 30.9489C149.399 30.9489 149.861 31.0009 150.349 31.1051C150.841 31.2045 151.3 31.3892 151.727 31.6591C152.157 31.929 152.51 32.3149 152.785 32.8168C153.059 33.3139 153.197 33.9602 153.197 34.7557V42H151.123V40.5085H151.038C150.9 40.7831 150.694 41.053 150.42 41.3182C150.145 41.5833 149.792 41.8035 149.362 41.9787C148.931 42.1539 148.415 42.2415 147.813 42.2415ZM148.275 40.5369C148.862 40.5369 149.364 40.4209 149.781 40.1889C150.202 39.9569 150.522 39.6539 150.739 39.2798C150.962 38.901 151.073 38.4962 151.073 38.0653V36.6591C150.997 36.7348 150.851 36.8059 150.633 36.8722C150.42 36.9337 150.176 36.9882 149.901 37.0355C149.627 37.0781 149.359 37.1184 149.099 37.1562C148.838 37.1894 148.621 37.2178 148.445 37.2415C148.033 37.2936 147.657 37.3812 147.316 37.5043C146.98 37.6274 146.71 37.8049 146.506 38.0369C146.308 38.2642 146.208 38.5672 146.208 38.946C146.208 39.4716 146.402 39.8693 146.79 40.1392C147.179 40.4044 147.674 40.5369 148.275 40.5369ZM156.977 46.0909C156.66 46.0909 156.371 46.0649 156.11 46.0128C155.85 45.9654 155.656 45.9134 155.528 45.8565L156.039 44.1165C156.428 44.2206 156.773 44.2656 157.076 44.2514C157.379 44.2372 157.647 44.1236 157.879 43.9105C158.116 43.6974 158.324 43.3494 158.504 42.8665L158.767 42.142L154.775 31.0909H157.048L159.811 39.5568H159.924L162.687 31.0909H164.967L160.471 43.456C160.263 44.0241 159.998 44.5047 159.676 44.8977C159.354 45.2955 158.97 45.5938 158.525 45.7926C158.08 45.9915 157.564 46.0909 156.977 46.0909Z" fill="#F4F4F5"/>
<defs>
<clipPath id="clip0_2154_721">
<rect width="32" height="32" fill="white" transform="translate(12 12)"/>
</clipPath>
</defs>
</svg>
