<svg width="85" height="32" viewBox="0 0 85 32" fill="none" xmlns="http://www.w3.org/2000/svg">
<path d="M0.864 22.52L6.504 12.992H1.08V9.488H11.88V12.992L6.36 22.496H12.12V26H0.864V22.52ZM18.4084 26.192C17.0644 26.192 16.0164 25.76 15.2644 24.896C14.5124 24.032 14.1364 22.856 14.1364 21.368V13.976H19.2244V21.152C19.2244 21.52 19.3204 21.808 19.5124 22.016C19.7204 22.208 19.9844 22.304 20.3044 22.304C20.6244 22.304 20.9524 22.208 21.2884 22.016L21.5524 25.352C21.2004 25.624 20.7364 25.832 20.1604 25.976C19.6004 26.12 19.0164 26.192 18.4084 26.192ZM16.6804 12.176C15.9284 12.176 15.2884 11.944 14.7604 11.48C14.2484 11 13.9924 10.416 13.9924 9.728C13.9924 9.04 14.2644 8.464 14.8084 8C15.3524 7.536 15.9764 7.304 16.6804 7.304C17.4164 7.304 18.0484 7.544 18.5764 8.024C19.1204 8.504 19.3924 9.072 19.3924 9.728C19.3924 10.432 19.1204 11.016 18.5764 11.48C18.0324 11.944 17.4004 12.176 16.6804 12.176ZM22.95 14.144H27.774V16.592C28.702 14.736 30.174 13.808 32.19 13.808C33.726 13.808 34.926 14.36 35.79 15.464C36.67 16.552 37.11 18.064 37.11 20V26H32.07V19.496C32.07 18.808 31.918 18.28 31.614 17.912C31.326 17.544 30.918 17.36 30.39 17.36C30.006 17.36 29.63 17.488 29.262 17.744C28.894 17.984 28.59 18.336 28.35 18.8C28.126 19.264 28.014 19.792 28.014 20.384V26H22.95V14.144ZM46.2186 31.496C45.3386 31.496 44.4986 31.408 43.6986 31.232L44.0826 27.68C44.7066 27.776 45.2826 27.824 45.8106 27.824C46.8026 27.824 47.5546 27.528 48.0666 26.936C48.5786 26.36 48.8826 25.384 48.9786 24.008C48.0346 25.336 46.5946 26 44.6586 26C43.6026 26 42.6266 25.728 41.7306 25.184C40.8506 24.64 40.1466 23.904 39.6186 22.976C39.1066 22.048 38.8506 21.032 38.8506 19.928C38.8506 18.808 39.1066 17.784 39.6186 16.856C40.1306 15.912 40.8266 15.168 41.7066 14.624C42.6026 14.08 43.5786 13.808 44.6346 13.808C45.6106 13.808 46.4586 14.064 47.1786 14.576C47.9146 15.072 48.3946 15.744 48.6186 16.592V13.808H53.6826V22.952C53.6826 25.752 53.0426 27.872 51.7626 29.312C50.4986 30.768 48.6506 31.496 46.2186 31.496ZM46.2186 22.4C46.8586 22.4 47.4106 22.176 47.8746 21.728C48.3386 21.264 48.5866 20.72 48.6186 20.096V19.904C48.5866 19.296 48.3306 18.76 47.8506 18.296C47.3866 17.832 46.8426 17.6 46.2186 17.6C45.5626 17.6 45.0026 17.84 44.5386 18.32C44.0746 18.784 43.8426 19.344 43.8426 20C43.8426 20.656 44.0746 21.224 44.5386 21.704C45.0026 22.168 45.5626 22.4 46.2186 22.4ZM62.3301 26.192C61.0021 26.192 59.8181 25.928 58.7781 25.4C57.7541 24.856 56.9541 24.12 56.3781 23.192C55.8021 22.248 55.5141 21.184 55.5141 20C55.5141 18.784 55.8101 17.704 56.4021 16.76C56.9941 15.816 57.7941 15.088 58.8021 14.576C59.8101 14.064 60.9301 13.808 62.1621 13.808C63.3461 13.808 64.3541 14.072 65.1861 14.6C66.0341 15.112 66.6661 15.816 67.0821 16.712C67.4981 17.592 67.7061 18.584 67.7061 19.688C67.7061 19.976 67.6901 20.184 67.6581 20.312L60.4581 21.248C60.6501 21.808 60.9621 22.216 61.3941 22.472C61.8261 22.712 62.3941 22.832 63.0981 22.832C64.1861 22.832 65.3621 22.552 66.6261 21.992L67.2261 25.208C65.7381 25.864 64.1061 26.192 62.3301 26.192ZM63.9861 18.224C63.7301 17.216 63.1221 16.712 62.1621 16.712C61.5861 16.712 61.1301 16.928 60.7941 17.36C60.4581 17.792 60.2821 18.352 60.2661 19.04L63.9861 18.224ZM69.45 14.144H74.274V16.592C75.202 14.736 76.674 13.808 78.69 13.808C80.226 13.808 81.426 14.36 82.29 15.464C83.17 16.552 83.61 18.064 83.61 20V26H78.57V19.496C78.57 18.808 78.418 18.28 78.114 17.912C77.826 17.544 77.418 17.36 76.89 17.36C76.506 17.36 76.13 17.488 75.762 17.744C75.394 17.984 75.09 18.336 74.85 18.8C74.626 19.264 74.514 19.792 74.514 20.384V26H69.45V14.144Z" fill="#F4F4F5"/>
</svg>
