<svg width="412" height="104" viewBox="0 0 412 104" fill="none" xmlns="http://www.w3.org/2000/svg">
<path fill-rule="evenodd" clip-rule="evenodd" d="M106 0C104.895 0 104 0.895432 104 2V102C104 103.105 104.895 104 106 104C107.105 104 108 103.105 108 102V2C108 0.895431 107.105 0 106 0ZM96 10C96 8.89543 96.8954 8 98 8C99.1046 8 100 8.89543 100 10V94C100 95.1046 99.1046 96 98 96C96.8954 96 96 95.1046 96 94V10ZM2 12C0.895431 12 0 12.8954 0 14V90C0 91.1046 0.895431 92 2 92C3.10457 92 4 91.1046 4 90V14C4 12.8954 3.10457 12 2 12ZM10 20C8.89543 20 8 20.8954 8 22V82C8 83.1046 8.89543 84 10 84C11.1046 84 12 83.1046 12 82V22C12 20.8954 11.1046 20 10 20ZM16 26C16 24.8954 16.8954 24 18 24C19.1046 24 20 24.8954 20 26V78C20 79.1046 19.1046 80 18 80C16.8954 80 16 79.1046 16 78V26ZM26 24C24.8954 24 24 24.8954 24 26V78C24 79.1046 24.8954 80 26 80C27.1046 80 28 79.1046 28 78V26C28 24.8954 27.1046 24 26 24ZM32 34C32 32.8954 32.8954 32 34 32C35.1046 32 36 32.8954 36 34V70C36 71.1046 35.1046 72 34 72C32.8954 72 32 71.1046 32 70V34ZM42 40C40.8954 40 40 40.8954 40 42V62C40 63.1046 40.8954 64 42 64C43.1046 64 44 63.1046 44 62V42C44 40.8954 43.1046 40 42 40ZM48 36C48 34.8954 48.8954 34 50 34C51.1046 34 52 34.8954 52 36V68C52 69.1046 51.1046 70 50 70C48.8954 70 48 69.1046 48 68V36ZM58 36C56.8954 36 56 36.8954 56 38V66C56 67.1046 56.8954 68 58 68C59.1046 68 60 67.1046 60 66V38C60 36.8954 59.1046 36 58 36ZM64 38C64 36.8954 64.8954 36 66 36C67.1046 36 68 36.8954 68 38V66C68 67.1046 67.1046 68 66 68C64.8954 68 64 67.1046 64 66V38ZM74 38C72.8954 38 72 38.8954 72 40V64C72 65.1046 72.8954 66 74 66C75.1046 66 76 65.1046 76 64V40C76 38.8954 75.1046 38 74 38ZM80 26C80 24.8954 80.8954 24 82 24C83.1046 24 84 24.8954 84 26V78C84 79.1046 83.1046 80 82 80C80.8954 80 80 79.1046 80 78V26ZM90 14C88.8954 14 88 14.8954 88 16V88C88 89.1046 88.8954 90 90 90C91.1046 90 92 89.1046 92 88V16C92 14.8954 91.1046 14 90 14ZM112 16C112 14.8954 112.895 14 114 14C115.105 14 116 14.8954 116 16V88C116 89.1046 115.105 90 114 90C112.895 90 112 89.1046 112 88V16ZM122 28C120.895 28 120 28.8954 120 30V74C120 75.1046 120.895 76 122 76C123.105 76 124 75.1046 124 74V30C124 28.8954 123.105 28 122 28ZM128 48C128 46.8954 128.895 46 130 46C131.105 46 132 46.8954 132 48V56C132 57.1046 131.105 58 130 58C128.895 58 128 57.1046 128 56V48ZM138 32C136.895 32 136 32.8954 136 34V70C136 71.1046 136.895 72 138 72C139.105 72 140 71.1046 140 70V34C140 32.8954 139.105 32 138 32ZM144 18C144 16.8954 144.895 16 146 16C147.105 16 148 16.8954 148 18V86C148 87.1046 147.105 88 146 88C144.895 88 144 87.1046 144 86V18ZM154 12C152.895 12 152 12.8954 152 14V90C152 91.1046 152.895 92 154 92C155.105 92 156 91.1046 156 90V14C156 12.8954 155.105 12 154 12ZM160 26C160 24.8954 160.895 24 162 24C163.105 24 164 24.8954 164 26V78C164 79.1046 163.105 80 162 80C160.895 80 160 79.1046 160 78V26ZM170 20C168.895 20 168 20.8954 168 22V82C168 83.1046 168.895 84 170 84C171.105 84 172 83.1046 172 82V22C172 20.8954 171.105 20 170 20ZM176 22C176 20.8954 176.895 20 178 20C179.105 20 180 20.8954 180 22V82C180 83.1046 179.105 84 178 84C176.895 84 176 83.1046 176 82V22ZM186 32C184.895 32 184 32.8954 184 34V70C184 71.1046 184.895 72 186 72C187.105 72 188 71.1046 188 70V34C188 32.8954 187.105 32 186 32ZM192 46C192 44.8954 192.895 44 194 44C195.105 44 196 44.8954 196 46V58C196 59.1046 195.105 60 194 60C192.895 60 192 59.1046 192 58V46ZM202 48C200.895 48 200 48.8954 200 50V54C200 55.1046 200.895 56 202 56C203.105 56 204 55.1046 204 54V50C204 48.8954 203.105 48 202 48ZM208 44C208 42.8954 208.895 42 210 42C211.105 42 212 42.8954 212 44V60C212 61.1046 211.105 62 210 62C208.895 62 208 61.1046 208 60V44ZM218 36C216.895 36 216 36.8954 216 38V66C216 67.1046 216.895 68 218 68C219.105 68 220 67.1046 220 66V38C220 36.8954 219.105 36 218 36ZM224 34C224 32.8954 224.895 32 226 32C227.105 32 228 32.8954 228 34V70C228 71.1046 227.105 72 226 72C224.895 72 224 71.1046 224 70V34ZM234 36C232.895 36 232 36.8954 232 38V66C232 67.1046 232.895 68 234 68C235.105 68 236 67.1046 236 66V38C236 36.8954 235.105 36 234 36ZM240 34C240 32.8954 240.895 32 242 32C243.105 32 244 32.8954 244 34V70C244 71.1046 243.105 72 242 72C240.895 72 240 71.1046 240 70V34ZM250 38C248.895 38 248 38.8954 248 40V64C248 65.1046 248.895 66 250 66C251.105 66 252 65.1046 252 64V40C252 38.8954 251.105 38 250 38ZM256 26C256 24.8954 256.895 24 258 24C259.105 24 260 24.8954 260 26V78C260 79.1046 259.105 80 258 80C256.895 80 256 79.1046 256 78V26ZM266 34C264.895 34 264 34.8954 264 36V68C264 69.1046 264.895 70 266 70C267.105 70 268 69.1046 268 68V36C268 34.8954 267.105 34 266 34ZM272 24C272 22.8954 272.895 22 274 22C275.105 22 276 22.8954 276 24V80C276 81.1046 275.105 82 274 82C272.895 82 272 81.1046 272 80V24ZM282 26C280.895 26 280 26.8954 280 28V76C280 77.1046 280.895 78 282 78C283.105 78 284 77.1046 284 76V28C284 26.8954 283.105 26 282 26ZM288 34C288 32.8954 288.895 32 290 32C291.105 32 292 32.8954 292 34V70C292 71.1046 291.105 72 290 72C288.895 72 288 71.1046 288 70V34ZM298 44C296.895 44 296 44.8954 296 46V58C296 59.1046 296.895 60 298 60C299.105 60 300 59.1046 300 58V46C300 44.8954 299.105 44 298 44ZM304 50C304 48.8954 304.895 48 306 48C307.105 48 308 48.8954 308 50V54C308 55.1046 307.105 56 306 56C304.895 56 304 55.1046 304 54V50ZM314 44C312.895 44 312 44.8954 312 46V58C312 59.1046 312.895 60 314 60C315.105 60 316 59.1046 316 58V46C316 44.8954 315.105 44 314 44ZM320 40C320 38.8954 320.895 38 322 38C323.105 38 324 38.8954 324 40V64C324 65.1046 323.105 66 322 66C320.895 66 320 65.1046 320 64V40ZM330 34C328.895 34 328 34.8954 328 36V68C328 69.1046 328.895 70 330 70C331.105 70 332 69.1046 332 68V36C332 34.8954 331.105 34 330 34ZM336 40C336 38.8954 336.895 38 338 38C339.105 38 340 38.8954 340 40V64C340 65.1046 339.105 66 338 66C336.895 66 336 65.1046 336 64V40ZM346 42C344.895 42 344 42.8954 344 44V60C344 61.1046 344.895 62 346 62C347.105 62 348 61.1046 348 60V44C348 42.8954 347.105 42 346 42ZM352 42C352 40.8954 352.895 40 354 40C355.105 40 356 40.8954 356 42V62C356 63.1046 355.105 64 354 64C352.895 64 352 63.1046 352 62V42ZM362 34C360.895 34 360 34.8954 360 36V68C360 69.1046 360.895 70 362 70C363.105 70 364 69.1046 364 68V36C364 34.8954 363.105 34 362 34ZM368 42C368 40.8954 368.895 40 370 40C371.105 40 372 40.8954 372 42V62C372 63.1046 371.105 64 370 64C368.895 64 368 63.1046 368 62V42ZM378 34C376.895 34 376 34.8954 376 36V68C376 69.1046 376.895 70 378 70C379.105 70 380 69.1046 380 68V36C380 34.8954 379.105 34 378 34ZM384 38C384 36.8954 384.895 36 386 36C387.105 36 388 36.8954 388 38V66C388 67.1046 387.105 68 386 68C384.895 68 384 67.1046 384 66V38ZM394 40C392.895 40 392 40.8954 392 42V62C392 63.1046 392.895 64 394 64C395.105 64 396 63.1046 396 62V42C396 40.8954 395.105 40 394 40ZM400 46C400 44.8954 400.895 44 402 44C403.105 44 404 44.8954 404 46V58C404 59.1046 403.105 60 402 60C400.895 60 400 59.1046 400 58V46ZM410 48C408.895 48 408 48.8954 408 50V54C408 55.1046 408.895 56 410 56C411.105 56 412 55.1046 412 54V50C412 48.8954 411.105 48 410 48Z" fill="url(#paint0_linear_2110_1416)"/>
<defs>
<linearGradient id="paint0_linear_2110_1416" x1="0" y1="52" x2="412" y2="52" gradientUnits="userSpaceOnUse">
<stop stop-color="#FC4A1A"/>
<stop offset="1" stop-color="#F7B733"/>
</linearGradient>
</defs>
</svg>
