<svg width="108" height="16" viewBox="0 0 108 16" fill="none" xmlns="http://www.w3.org/2000/svg">
<path d="M6.06215 2.5345C6.38431 1.66389 7.61569 1.66389 7.93785 2.53451L9.00115 5.40803C9.10244 5.68175 9.31825 5.89756 9.59197 5.99885L12.4655 7.06215C13.3361 7.38431 13.3361 8.61569 12.4655 8.93785L9.59197 10.0012C9.31825 10.1024 9.10244 10.3182 9.00115 10.592L7.93785 13.4655C7.61569 14.3361 6.38431 14.3361 6.06215 13.4655L4.99885 10.592C4.89756 10.3182 4.68175 10.1024 4.40803 10.0012L1.5345 8.93785C0.663886 8.61569 0.663887 7.38431 1.53451 7.06215L4.40803 5.99885C4.68175 5.89756 4.89756 5.68175 4.99885 5.40803L6.06215 2.5345Z" fill="black"/>
<path d="M42.84 10.8V8.68H48.76C49.4667 8.68 50.0267 8.49333 50.44 8.12C50.8533 7.73333 51.06 7.2 51.06 6.52C51.06 5.81333 50.8533 5.27333 50.44 4.9C50.0267 4.52667 49.4667 4.34 48.76 4.34H43.16V15H40.5V2.06H48.52C49.24 2.06 49.9133 2.14667 50.54 2.32C51.18 2.49333 51.7333 2.76 52.2 3.12C52.68 3.48 53.0533 3.94 53.32 4.5C53.5867 5.06 53.72 5.73333 53.72 6.52C53.72 7.29333 53.5867 7.95333 53.32 8.5C53.0533 9.04667 52.68 9.49333 52.2 9.84C51.7333 10.1733 51.18 10.42 50.54 10.58C49.9133 10.7267 49.24 10.8 48.52 10.8H42.84ZM60.3916 15.22C59.4049 15.22 58.5049 15.0067 57.6916 14.58C56.8916 14.14 56.2516 13.5333 55.7716 12.76C55.3049 11.9733 55.0716 11.0667 55.0716 10.04C55.0716 8.98667 55.3116 8.07333 55.7916 7.3C56.2716 6.52667 56.9182 5.92667 57.7316 5.5C58.5582 5.06 59.4916 4.84 60.5316 4.84C61.6782 4.84 62.5982 5.07333 63.2916 5.54C63.9982 5.99333 64.5116 6.61333 64.8316 7.4C65.1516 8.18667 65.3116 9.06667 65.3116 10.04C65.3116 10.6267 65.2182 11.2267 65.0316 11.84C64.8449 12.44 64.5582 13 64.1716 13.52C63.7849 14.0267 63.2782 14.44 62.6516 14.76C62.0249 15.0667 61.2716 15.22 60.3916 15.22ZM61.2316 13.22C62.0182 13.22 62.6982 13.0867 63.2716 12.82C63.8449 12.5533 64.2849 12.18 64.5916 11.7C64.8982 11.22 65.0516 10.6667 65.0516 10.04C65.0516 9.36 64.8916 8.78667 64.5716 8.32C64.2649 7.84 63.8249 7.48 63.2516 7.24C62.6916 6.98667 62.0182 6.86 61.2316 6.86C60.1249 6.86 59.2649 7.15333 58.6516 7.74C58.0382 8.31333 57.7316 9.08 57.7316 10.04C57.7316 10.68 57.8782 11.24 58.1716 11.72C58.4649 12.1867 58.8716 12.5533 59.3916 12.82C59.9249 13.0867 60.5382 13.22 61.2316 13.22ZM65.0516 5.06H67.6516V15H65.2316C65.2316 15 65.2116 14.8733 65.1716 14.62C65.1449 14.3533 65.1182 14.02 65.0916 13.62C65.0649 13.22 65.0516 12.8267 65.0516 12.44V5.06ZM69.3047 5.06H77.0247V7.08H69.3047V5.06ZM71.8647 2.34H74.4647V15H71.8647V2.34ZM81.6566 0.699999V2.98H78.6366V0.699999H81.6566ZM78.8366 5.06H81.4366V15H78.8366V5.06ZM84.0281 5.06H86.6281V15H84.0281V5.06ZM91.2481 4.84C91.8615 4.84 92.4281 4.92 92.9481 5.08C93.4681 5.24 93.9215 5.48667 94.3081 5.82C94.6948 6.15333 94.9948 6.58 95.2081 7.1C95.4215 7.60667 95.5281 8.21333 95.5281 8.92V15H92.9281V9.38C92.9281 8.54 92.7215 7.92667 92.3081 7.54C91.9081 7.14 91.2481 6.94 90.3281 6.94C89.6348 6.94 89.0081 7.07333 88.4481 7.34C87.8881 7.60667 87.4348 7.94667 87.0881 8.36C86.7415 8.76 86.5415 9.18 86.4881 9.62L86.4681 8.6C86.5348 8.13333 86.6881 7.68 86.9281 7.24C87.1681 6.8 87.4881 6.4 87.8881 6.04C88.3015 5.66667 88.7881 5.37333 89.3481 5.16C89.9081 4.94667 90.5415 4.84 91.2481 4.84ZM97.4953 11.7H99.8953C100.042 12.1533 100.342 12.5267 100.795 12.82C101.262 13.1 101.869 13.24 102.615 13.24C103.122 13.24 103.515 13.1933 103.795 13.1C104.075 13.0067 104.269 12.8733 104.375 12.7C104.482 12.5133 104.535 12.3067 104.535 12.08C104.535 11.8 104.449 11.5867 104.275 11.44C104.102 11.28 103.835 11.1533 103.475 11.06C103.115 10.9667 102.655 10.88 102.095 10.8C101.535 10.7067 100.995 10.5933 100.475 10.46C99.9553 10.3267 99.4953 10.1533 99.0953 9.94C98.6953 9.71333 98.3753 9.43333 98.1353 9.1C97.9086 8.75333 97.7953 8.33333 97.7953 7.84C97.7953 7.36 97.9086 6.93333 98.1353 6.56C98.3753 6.18667 98.702 5.87333 99.1153 5.62C99.542 5.36667 100.035 5.17333 100.595 5.04C101.169 4.90667 101.782 4.84 102.435 4.84C103.422 4.84 104.242 4.98667 104.895 5.28C105.549 5.56 106.035 5.96 106.355 6.48C106.689 6.98667 106.855 7.57333 106.855 8.24H104.555C104.449 7.74667 104.235 7.39333 103.915 7.18C103.595 6.95333 103.102 6.84 102.435 6.84C101.782 6.84 101.289 6.94 100.955 7.14C100.622 7.34 100.455 7.61333 100.455 7.96C100.455 8.24 100.555 8.46 100.755 8.62C100.969 8.76667 101.275 8.88667 101.675 8.98C102.089 9.07333 102.602 9.17333 103.215 9.28C103.735 9.38667 104.229 9.50667 104.695 9.64C105.175 9.77333 105.602 9.94667 105.975 10.16C106.349 10.36 106.642 10.6333 106.855 10.98C107.082 11.3133 107.195 11.74 107.195 12.26C107.195 12.9 107.009 13.44 106.635 13.88C106.275 14.32 105.755 14.66 105.075 14.9C104.395 15.1267 103.582 15.24 102.635 15.24C101.795 15.24 101.069 15.1533 100.455 14.98C99.8553 14.7933 99.3553 14.56 98.9553 14.28C98.5553 13.9867 98.242 13.68 98.0153 13.36C97.802 13.0267 97.6553 12.7133 97.5753 12.42C97.4953 12.1267 97.4686 11.8867 97.4953 11.7Z" fill="black"/>
</svg>
