<svg width="32" height="32" viewBox="0 0 32 32" fill="none" xmlns="http://www.w3.org/2000/svg">
<mask id="mask0_3212_1786" style="mask-type:luminance" maskUnits="userSpaceOnUse" x="0" y="0" width="32" height="32">
<path d="M31.7582 0H0.241699V32H31.7582V0Z" fill="white"/>
</mask>
<g mask="url(#mask0_3212_1786)">
<path d="M17.6078 5.48027L18.8234 4.26467C21.2105 1.87754 25.0968 1.81846 27.4977 4.19183C28.4074 5.09314 29.012 6.25679 29.2264 7.51931C29.4409 8.78185 29.2544 10.0798 28.6933 11.231C28.4241 11.7809 28.3335 12.4011 28.4338 13.005C28.5343 13.6089 28.8208 14.1664 29.2535 14.5995C30.0491 13.8021 30.6796 12.8558 31.1093 11.8146C31.539 10.7733 31.7594 9.65766 31.7578 8.53126C31.7561 7.40488 31.5328 6.28983 31.1001 5.24984C30.6674 4.20983 30.0341 3.26527 29.2363 2.4701C25.8791 -0.868148 20.4298 -0.801717 17.082 2.54591L5.49525 14.1323L4.54272 13.1798C2.11511 10.7522 2.09964 6.78403 4.57007 4.39956C5.48452 3.51966 6.64954 2.94526 7.90434 2.75566C9.15914 2.56606 10.4418 2.7706 11.5754 3.34105C12.0929 3.60619 12.6808 3.70104 13.2554 3.61205C13.8299 3.52307 14.3616 3.2548 14.7746 2.84555L14.8041 2.81617C14.8133 2.80704 14.8206 2.79618 14.8256 2.7842C14.8306 2.77224 14.8331 2.75941 14.8331 2.74645C14.8331 2.7335 14.8306 2.72066 14.8256 2.70871C14.8206 2.69675 14.8133 2.68588 14.8041 2.67674C13.2094 1.12205 11.0723 0.248786 8.84515 0.241726C6.61799 0.234667 4.47543 1.09437 2.87086 2.63891C-0.58557 5.97561 -0.573219 11.5242 2.82396 14.9214L14.4073 26.5047L13.1768 27.7351C10.7897 30.1223 6.90327 30.1813 4.50255 27.808C3.59282 26.9067 2.98827 25.743 2.7738 24.4805C2.55935 23.218 2.74573 21.92 3.3068 20.7688C3.57597 20.2189 3.66669 19.5987 3.5663 18.9949C3.46589 18.3909 3.17936 17.8334 2.74675 17.4003C1.95119 18.1977 1.32055 19.144 0.890839 20.1852C0.46113 21.2265 0.240783 22.3421 0.242379 23.4686C0.243976 24.5949 0.467486 25.71 0.900146 26.7499C1.3328 27.79 1.96613 28.7346 2.76394 29.5297C6.12095 32.8681 11.5704 32.8018 14.9182 29.454L26.52 17.8521L27.4761 18.8083C29.8632 21.1954 29.9223 25.0817 27.549 27.4824C26.6477 28.3923 25.484 28.9967 24.2215 29.2113C22.959 29.4258 21.661 29.2393 20.5098 28.6781C19.9598 28.4088 19.3392 28.318 18.7351 28.4187C18.131 28.5192 17.5733 28.806 17.1401 29.239C17.9376 30.0346 18.8839 30.6653 19.9251 31.095C20.9664 31.5246 22.082 31.745 23.2085 31.7435C24.3348 31.7418 25.4499 31.5182 26.4898 31.0856C27.5299 30.6529 28.4744 30.0196 29.2696 29.2218C32.608 25.8648 32.5416 20.4153 29.1939 17.0676L17.6078 5.48027ZM16.137 24.7742L7.22542 15.8627L15.8775 7.21075L24.789 16.1223L16.137 24.7742Z" fill="black"/>
</g>
</svg>
