<svg width="24" height="24" viewBox="0 0 24 24" fill="none" xmlns="http://www.w3.org/2000/svg">
<path d="M16.6 5.82C15.9164 5.03962 15.5397 4.03743 15.54 3H12.45V15.4C12.4261 16.071 12.1428 16.7066 11.6597 17.1729C11.1766 17.6393 10.5314 17.8999 9.85997 17.9C8.43997 17.9 7.25997 16.74 7.25997 15.3C7.25997 13.58 8.91997 12.29 10.63 12.82V9.66C7.17997 9.2 4.15997 11.88 4.15997 15.3C4.15997 18.63 6.91997 21 9.84997 21C12.99 21 15.54 18.45 15.54 15.3V9.01C16.793 9.90985 18.2973 10.3926 19.84 10.39V7.3C19.84 7.3 17.96 7.39 16.6 5.82Z" fill="black"/>
</svg>
