<svg width="32" height="32" viewBox="0 0 32 32" fill="none" xmlns="http://www.w3.org/2000/svg">
<path d="M25 4V22C25 22.2652 24.8946 22.5196 24.7071 22.7071C24.5196 22.8946 24.2652 23 24 23H8.41374L12.7075 27.2925C12.8004 27.3854 12.8741 27.4957 12.9244 27.6171C12.9747 27.7385 13.0005 27.8686 13.0005 28C13.0005 28.1314 12.9747 28.2615 12.9244 28.3829C12.8741 28.5043 12.8004 28.6146 12.7075 28.7075C12.6146 28.8004 12.5043 28.8741 12.3829 28.9244C12.2615 28.9747 12.1314 29.0006 12 29.0006C11.8686 29.0006 11.7385 28.9747 11.6171 28.9244C11.4957 28.8741 11.3854 28.8004 11.2925 28.7075L5.29249 22.7075C5.19952 22.6146 5.12576 22.5043 5.07543 22.3829C5.02511 22.2615 4.99921 22.1314 4.99921 22C4.99921 21.8686 5.02511 21.7385 5.07543 21.6171C5.12576 21.4957 5.19952 21.3854 5.29249 21.2925L11.2925 15.2925C11.4801 15.1049 11.7346 14.9994 12 14.9994C12.2654 14.9994 12.5199 15.1049 12.7075 15.2925C12.8951 15.4801 13.0005 15.7346 13.0005 16C13.0005 16.2654 12.8951 16.5199 12.7075 16.7075L8.41374 21H23V4C23 3.73478 23.1053 3.48043 23.2929 3.29289C23.4804 3.10536 23.7348 3 24 3C24.2652 3 24.5196 3.10536 24.7071 3.29289C24.8946 3.48043 25 3.73478 25 4Z" fill="black"/>
</svg>
